<?xml version="1.0" encoding="UTF-8" standalone="no"?>
<svg width="45px" height="45px" viewBox="0 0 45 45" version="1.1" xmlns="http://www.w3.org/2000/svg" xmlns:xlink="http://www.w3.org/1999/xlink" xmlns:sketch="http://www.bohemiancoding.com/sketch/ns">
    <!-- Generator: Sketch 3.3 (11970) - http://www.bohemiancoding.com/sketch -->
    <title>Oval 9 + Imported Layers</title>
    <desc>Created with Sketch.</desc>
    <defs></defs>
    <g id="Welcome" stroke="none" stroke-width="1" fill="none" fill-rule="evenodd" sketch:type="MSPage">
        <g id="Desktop-HD-Copy-6" sketch:type="MSArtboardGroup" transform="translate(-158.000000, -1554.000000)">
            <g id="Group" sketch:type="MSLayerGroup" transform="translate(0.000000, 1482.000000)">
                <g transform="translate(0.000000, 48.000000)" id="Математика-+-Oval-9" sketch:type="MSShapeGroup">
                    <g transform="translate(117.500000, 24.000000)">
                        <g>
                            <g id="Oval-9-+-Imported-Layers" transform="translate(40.000000, 0.000000)">
                                <circle id="Oval-9" fill="#B8F5D2" cx="23" cy="22.5" r="22.5"></circle>
                                <g id="Imported-Layers" transform="translate(13.000000, 13.000000)">
                                    <path d="M0,1 L5,1 L5,15 L0,15 L0,1 Z" id="Fill-1" fill-opacity="0" fill="#000000"></path>
                                    <path d="M0,1 L5,1 L5,15 L0,15 L0,1 Z" id="Stroke-3" stroke="#3F4C6B" stroke-linecap="square"></path>
                                    <path d="M0,15 L5,15 L5,19 L0,19 L0,15 Z" id="Fill-4" fill-opacity="0" fill="#000000"></path>
                                    <path d="M0,15 L5,15 L5,19 L0,19 L0,15 Z" id="Stroke-5" stroke="#3F4C6B" stroke-linecap="square"></path>
                                    <path d="M5,1 L10,1 L10,15 L5,15 L5,1 Z" id="Fill-6" fill-opacity="0" fill="#000000"></path>
                                    <path d="M5,1 L10,1 L10,15 L5,15 L5,1 Z" id="Stroke-7" stroke="#3F4C6B" stroke-linecap="square"></path>
                                    <path d="M5,15 L10,15 L10,19 L5,19 L5,15 Z" id="Fill-8" fill-opacity="0" fill="#000000"></path>
                                    <path d="M5,15 L10,15 L10,19 L5,19 L5,15 Z" id="Stroke-9" stroke="#3F4C6B" stroke-linecap="square"></path>
                                    <path d="M10.26666,1.59293 L15.09616,0.29893 L18.71936,13.82153 L13.88986,15.11553 L10.26666,1.59293 Z" id="Fill-10" fill-opacity="0" fill="#000000"></path>
                                    <path d="M10.26666,1.59293 L15.09616,0.29893 L18.71936,13.82153 L13.88986,15.11553 L10.26666,1.59293 Z" id="Stroke-11" stroke="#3F4C6B" stroke-linecap="square"></path>
                                    <path d="M13.95978,15.10374 L18.78928,13.80974 L19.82448,17.67334 L14.99498,18.96734 L13.95978,15.10374 Z" id="Fill-12" fill-opacity="0" fill="#000000"></path>
                                    <path d="M13.95978,15.10374 L18.78928,13.80974 L19.82448,17.67334 L14.99498,18.96734 L13.95978,15.10374 Z" id="Stroke-13" stroke="#3F4C6B" stroke-linecap="square"></path>
                                </g>
                            </g>
                        </g>
                    </g>
                </g>
            </g>
        </g>
    </g>
</svg>