<?xml version="1.0" encoding="UTF-8" standalone="no"?>
<svg width="45px" height="45px" viewBox="0 0 45 45" version="1.1" xmlns="http://www.w3.org/2000/svg" xmlns:xlink="http://www.w3.org/1999/xlink" xmlns:sketch="http://www.bohemiancoding.com/sketch/ns">
    <!-- Generator: Sketch 3.3 (11970) - http://www.bohemiancoding.com/sketch -->
    <title>Oval 9 + Imported Layers</title>
    <desc>Created with Sketch.</desc>
    <defs></defs>
    <g id="Welcome" stroke="none" stroke-width="1" fill="none" fill-rule="evenodd" sketch:type="MSPage">
        <g id="Desktop-HD-Copy-6" sketch:type="MSArtboardGroup" transform="translate(-679.000000, -1554.000000)">
            <g id="Group" sketch:type="MSLayerGroup" transform="translate(0.000000, 1482.000000)">
                <g transform="translate(0.000000, 48.000000)" id="Математика-+-Oval-9-Copy-6" sketch:type="MSShapeGroup">
                    <g transform="translate(117.500000, 24.000000)">
                        <g transform="translate(555.000000, 0.000000)">
                            <g id="Oval-9-+-Imported-Layers" transform="translate(6.000000, 0.000000)">
                                <circle id="Oval-9" fill="#B8F5D2" cx="23" cy="22.5" r="22.5"></circle>
                                <g id="Imported-Layers" transform="translate(14.000000, 11.000000)">
                                    <path d="M4.1,11 L13.9,11" id="Fill-1" fill-opacity="0" fill="#000000"></path>
                                    <path d="M4.1,11 L13.9,11" id="Stroke-3" stroke="#3F4C6B"></path>
                                    <path d="M2.95,22.5 L15.05,22.5 C16.65,22.5 17.65,20.6 16.65,19.3 L11.05,11.5 L11.05,4.5 L13.05,4.5 L13.05,0.5 L5.05,0.5 L5.05,4.5 L7.05,4.5 L7.05,11.5 L1.35,19.3 C0.35,20.6 1.35,22.5 2.95,22.5 L2.95,22.5 Z" id="Fill-4" fill-opacity="0" fill="#000000"></path>
                                    <path d="M2.95,22.5 L15.05,22.5 C16.65,22.5 17.65,20.6 16.65,19.3 L11.05,11.5 L11.05,4.5 L13.05,4.5 L13.05,0.5 L5.05,0.5 L5.05,4.5 L7.05,4.5 L7.05,11.5 L1.35,19.3 C0.35,20.6 1.35,22.5 2.95,22.5 L2.95,22.5 Z" id="Stroke-5" stroke="#3F4C6B" stroke-linecap="square"></path>
                                </g>
                            </g>
                        </g>
                    </g>
                </g>
            </g>
        </g>
    </g>
</svg>