<?xml version="1.0" encoding="UTF-8" standalone="no"?>
<svg width="45px" height="45px" viewBox="0 0 45 45" version="1.1" xmlns="http://www.w3.org/2000/svg" xmlns:xlink="http://www.w3.org/1999/xlink" xmlns:sketch="http://www.bohemiancoding.com/sketch/ns">
    <!-- Generator: Sketch 3.3 (11970) - http://www.bohemiancoding.com/sketch -->
    <title>Oval 9 + Imported Layers</title>
    <desc>Created with Sketch.</desc>
    <defs></defs>
    <g id="Welcome" stroke="none" stroke-width="1" fill="none" fill-rule="evenodd" sketch:type="MSPage">
        <g id="Desktop-HD-Copy-6" sketch:type="MSArtboardGroup" transform="translate(-1069.000000, -1554.000000)">
            <g id="Group" sketch:type="MSLayerGroup" transform="translate(0.000000, 1482.000000)">
                <g transform="translate(0.000000, 48.000000)" id="Математика-+-Oval-9-Copy-4" sketch:type="MSShapeGroup">
                    <g transform="translate(117.500000, 24.000000)">
                        <g transform="translate(931.000000, 0.000000)">
                            <g id="Oval-9-+-Imported-Layers" transform="translate(20.000000, 0.000000)">
                                <circle id="Oval-9" fill="#B8F5D2" cx="23" cy="22.5" r="22.5"></circle>
                                <g id="Imported-Layers" transform="translate(11.500000, 11.500000)">
                                    <path d="M9.41,7.54 L0,22" id="Fill-1" fill-opacity="0" fill="#000000"></path>
                                    <path d="M9.41,7.54 L0,22" id="Stroke-3" stroke="#3F4C6B"></path>
                                    <path d="M12.59,7.54 L22,22" id="Fill-4" fill-opacity="0" fill="#000000"></path>
                                    <path d="M12.59,7.54 L22,22" id="Stroke-5" stroke="#3F4C6B"></path>
                                    <path d="M13.12132,2.87868 C14.29289,4.05025 14.29289,5.94975 13.12132,7.12132 C11.94975,8.29289 10.05025,8.29289 8.87868,7.12132 C7.707107,5.94975 7.707107,4.05025 8.87868,2.87868 C10.05025,1.70711 11.94975,1.70711 13.12132,2.87868" id="Fill-6" fill-opacity="0" fill="#000000"></path>
                                    <path d="M13.12132,2.87868 C14.29289,4.050253 14.29289,5.949747 13.12132,7.12132 C11.94975,8.292893 10.05025,8.292893 8.87868,7.12132 C7.707107,5.949747 7.707107,4.050253 8.87868,2.87868 C10.05025,1.707107 11.94975,1.707107 13.12132,2.87868" id="Stroke-7" stroke="#3F4C6B" stroke-linecap="square"></path>
                                    <path d="M11,0 L11,2" id="Fill-8" fill-opacity="0" fill="#000000"></path>
                                    <path d="M11,0 L11,2" id="Stroke-9" stroke="#3F4C6B" stroke-linecap="square"></path>
                                    <path d="M11,12 L11,16" id="Fill-10" fill-opacity="0" fill="#000000"></path>
                                    <path d="M11,12 L11,16" id="Stroke-11" stroke="#3F4C6B" stroke-linecap="square"></path>
                                    <path d="M3,14 L19,14" id="Fill-12" fill-opacity="0" fill="#000000"></path>
                                    <path d="M3,14 L19,14" id="Stroke-13" stroke="#3F4C6B" stroke-linecap="square"></path>
                                </g>
                            </g>
                        </g>
                    </g>
                </g>
            </g>
        </g>
    </g>
</svg>