<?xml version="1.0" encoding="UTF-8" standalone="no"?>
<svg width="45px" height="45px" viewBox="0 0 45 45" version="1.1" xmlns="http://www.w3.org/2000/svg" xmlns:xlink="http://www.w3.org/1999/xlink" xmlns:sketch="http://www.bohemiancoding.com/sketch/ns">
    <!-- Generator: Sketch 3.3 (11970) - http://www.bohemiancoding.com/sketch -->
    <title>Oval 9 + Imported Layers</title>
    <desc>Created with Sketch.</desc>
    <defs></defs>
    <g id="Welcome" stroke="none" stroke-width="1" fill="none" fill-rule="evenodd" sketch:type="MSPage">
        <g id="Desktop-HD-Copy-6" sketch:type="MSArtboardGroup" transform="translate(-867.000000, -1554.000000)">
            <g id="Group" sketch:type="MSLayerGroup" transform="translate(0.000000, 1482.000000)">
                <g transform="translate(0.000000, 48.000000)" id="Математика-+-Oval-9-Copy-5" sketch:type="MSShapeGroup">
                    <g transform="translate(117.500000, 24.000000)">
                        <g transform="translate(698.000000, 0.000000)">
                            <g id="Oval-9-+-Imported-Layers" transform="translate(51.000000, 0.000000)">
                                <circle id="Oval-9" fill="#B8F5D2" cx="23" cy="22.5" r="22.5"></circle>
                                <g id="Imported-Layers" transform="translate(13.500000, 12.500000)">
                                    <path d="M12,8 L8.5,8 C7.1,8 6,6.9 6,5.5 L6,5.5 C6,4.1 7.1,3 8.5,3 L12,3 L12,8 L12,8 Z" id="Fill-1" fill-opacity="0" fill="#000000"></path>
                                    <path d="M12,8 L8.5,8 C7.1,8 6,6.9 6,5.5 L6,5.5 C6,4.1 7.1,3 8.5,3 L12,3 L12,8 L12,8 Z" id="Stroke-3" stroke="#3F4C6B" stroke-linecap="square"></path>
                                    <path d="M8,0 L10,0 C11.1,0 12,0.9 12,2 L12,8" id="Fill-4" fill-opacity="0" fill="#000000"></path>
                                    <path d="M8,0 L10,0 C11.1,0 12,0.9 12,2 L12,8" id="Stroke-5" stroke="#3F4C6B" stroke-linecap="square"></path>
                                    <path d="M0,9 L0,20" id="Fill-6" fill-opacity="0" fill="#000000"></path>
                                    <path d="M0,9 L0,20" id="Stroke-7" stroke="#3F4C6B" stroke-linecap="square"></path>
                                    <path d="M3,20 L0,20 L0,14 L3,14 C4.7,14 6,15.3 6,17 L6,17 C6,18.700001 4.7,20 3,20 L3,20 Z" id="Fill-8" fill-opacity="0" fill="#000000"></path>
                                    <path d="M3,20 L0,20 L0,14 L3,14 C4.7,14 6,15.3 6,17 L6,17 C6,18.7 4.7,20 3,20 L3,20 Z" id="Stroke-9" stroke="#3F4C6B" stroke-linecap="square"></path>
                                    <path d="M18.7,14 C18.4,13.4 17.7,13 17,13 L15,13 C13.9,13 13,13.9 13,15 L13,18 C13,19.1 13.9,20 15,20 L17,20 C17.7,20 18.4,19.6 18.7,19" id="Fill-10" fill-opacity="0" fill="#000000"></path>
                                    <path d="M18.7,14 C18.4,13.4 17.7,13 17,13 L15,13 C13.9,13 13,13.9 13,15 L13,18 C13,19.1 13.9,20 15,20 L17,20 C17.7,20 18.4,19.6 18.7,19" id="Stroke-11" stroke="#3F4C6B" stroke-linecap="square"></path>
                                </g>
                            </g>
                        </g>
                    </g>
                </g>
            </g>
        </g>
    </g>
</svg>