<?xml version="1.0" encoding="UTF-8" standalone="no"?>
<svg width="45px" height="45px" viewBox="0 0 45 45" version="1.1" xmlns="http://www.w3.org/2000/svg" xmlns:xlink="http://www.w3.org/1999/xlink" xmlns:sketch="http://www.bohemiancoding.com/sketch/ns">
    <!-- Generator: Sketch 3.3 (11970) - http://www.bohemiancoding.com/sketch -->
    <title>Oval 9 + Imported Layers</title>
    <desc>Created with Sketch.</desc>
    <defs></defs>
    <g id="Welcome" stroke="none" stroke-width="1" fill="none" fill-rule="evenodd" sketch:type="MSPage">
        <g id="Desktop-HD-Copy-6" sketch:type="MSArtboardGroup" transform="translate(-1249.000000, -1554.000000)">
            <g id="Group" sketch:type="MSLayerGroup" transform="translate(0.000000, 1482.000000)">
                <g transform="translate(0.000000, 48.000000)" id="Математика-+-Oval-9-Copy-3" sketch:type="MSShapeGroup">
                    <g transform="translate(117.500000, 24.000000)">
                        <g transform="translate(1103.000000, 0.000000)">
                            <g id="Oval-9-+-Imported-Layers" transform="translate(28.000000, 0.000000)">
                                <circle id="Oval-9" fill="#B8F5D2" cx="23" cy="22.5" r="22.5"></circle>
                                <g id="Imported-Layers" transform="translate(13.000000, 13.500000)">
                                    <path d="M4,8.8 L4,15 C4,16.7 6.7,18 10,18 C13.3,18 16,16.7 16,15 L16,8.8" id="Fill-1" fill-opacity="0" fill="#000000"></path>
                                    <path d="M4,8.8 L4,15 C4,16.7 6.7,18 10,18 C13.3,18 16,16.7 16,15 L16,8.8" id="Stroke-3" stroke="#3F4C6B"></path>
                                    <path d="M19,6.7 L19,14" id="Fill-4" fill-opacity="0" fill="#000000"></path>
                                    <path d="M19,6.7 L19,14" id="Stroke-5" stroke="#3F4C6B"></path>
                                    <path d="M10,13 L0,6 L10,0 L20,6 L10,13 Z" id="Fill-6" fill-opacity="0" fill="#000000"></path>
                                    <path d="M10,13 L0,6 L10,0 L20,6 L10,13 Z" id="Stroke-7" stroke="#3F4C6B" stroke-linecap="square"></path>
                                </g>
                            </g>
                        </g>
                    </g>
                </g>
            </g>
        </g>
    </g>
</svg>