<?xml version="1.0" encoding="UTF-8" standalone="no"?>
<svg width="45px" height="45px" viewBox="0 0 45 45" version="1.1" xmlns="http://www.w3.org/2000/svg" xmlns:xlink="http://www.w3.org/1999/xlink" xmlns:sketch="http://www.bohemiancoding.com/sketch/ns">
    <!-- Generator: Sketch 3.3 (11970) - http://www.bohemiancoding.com/sketch -->
    <title>Oval 9 + Imported Layers</title>
    <desc>Created with Sketch.</desc>
    <defs></defs>
    <g id="Welcome" stroke="none" stroke-width="1" fill="none" fill-rule="evenodd" sketch:type="MSPage">
        <g id="Desktop-HD-Copy-6" sketch:type="MSArtboardGroup" transform="translate(-532.000000, -1554.000000)">
            <g id="Group" sketch:type="MSLayerGroup" transform="translate(0.000000, 1482.000000)">
                <g transform="translate(0.000000, 48.000000)" id="Математика-+-Oval-9-Copy-7" sketch:type="MSShapeGroup">
                    <g transform="translate(117.500000, 24.000000)">
                        <g transform="translate(404.000000, 0.000000)">
                            <g id="Oval-9-+-Imported-Layers" transform="translate(10.000000, 0.000000)">
                                <path d="M23,45 C35.4264069,45 45.5,34.9264069 45.5,22.5 C45.5,10.0735931 35.4264069,0 23,0 C10.5735931,0 0.5,10.0735931 0.5,22.5 C0.5,34.9264069 10.5735931,45 23,45 Z" id="Oval-9" fill="#B8F5D2"></path>
                                <g id="Imported-Layers" transform="translate(13.000000, 11.000000)">
                                    <path d="M6.65,5.4 C7.35,2.4 8.55,0.5 9.95,0.5 C12.15,0.5 13.95,5.4 13.95,11.5 C13.95,17.6 12.15,22.5 9.95,22.5 C8.05,22.5 6.35,18.7 6.05,13.6" id="Fill-1" fill-opacity="0" fill="#000000"></path>
                                    <path d="M6.65,5.4 C7.35,2.4 8.55,0.5 9.95,0.5 C12.15,0.5 13.95,5.4 13.95,11.5 C13.95,17.6 12.15,22.5 9.95,22.5 C8.05,22.5 6.35,18.7 6.05,13.6" id="Stroke-3" stroke="#3F4C6B"></path>
                                    <path d="M6.65951212,17.6167098 C3.75951212,18.6167098 1.45951212,18.6167098 0.759512116,17.4167098 C-0.440487884,15.5167098 2.75951212,11.4167098 7.85951212,8.11670981 C12.9595121,4.81670981 18.0595121,3.71670981 19.2595121,5.51670981 C20.2595121,7.11670981 17.9595121,10.6167098 13.9595121,13.6167108" id="Fill-4" fill-opacity="0" fill="#000000"></path>
                                    <path d="M6.65951212,17.6167098 C3.75951212,18.6167098 1.45951212,18.6167098 0.759512116,17.4167098 C-0.440487884,15.5167098 2.75951212,11.4167098 7.85951212,8.11670981 C12.9595121,4.81670981 18.0595121,3.71670981 19.2595121,5.51670981 C20.2595121,7.11670981 17.9595121,10.6167098 13.9595121,13.6167098" id="Stroke-5" stroke="#3F4C6B"></path>
                                    <path d="M10.0526878,6.86913474 C5.75268781,4.56913474 1.85268781,3.96913474 0.752687811,5.56913474 C-0.447312189,7.46913474 2.75268781,11.5691347 7.85268781,14.8691347 C12.9526878,18.1691347 18.0526878,19.2691347 19.2526878,17.4691347 C20.0526878,16.1691347 18.8526878,13.9691347 16.4526878,11.5691347" id="Fill-6" fill-opacity="0" fill="#000000"></path>
                                    <path d="M10.0526878,6.86913474 C5.75268781,4.56913474 1.85268781,3.96913474 0.752687811,5.56913474 C-0.447312189,7.46913474 2.75268781,11.5691347 7.85268781,14.8691347 C12.9526878,18.1691347 18.0526878,19.2691347 19.2526878,17.4691347 C20.0526878,16.1691347 18.8526878,13.9691347 16.4526878,11.5691347" id="Stroke-7" stroke="#3F4C6B"></path>
                                    <path d="M10.70711,10.79289 C11.09763,11.18342 11.09763,11.81658 10.70711,12.20711 C10.31658,12.59763 9.68342,12.59763 9.29289,12.20711 C8.90237,11.81658 8.90237,11.18342 9.29289,10.79289 C9.68342,10.40237 10.31658,10.40237 10.70711,10.79289" id="Fill-8" fill-opacity="0" fill="#000000"></path>
                                    <path d="M10.70711,10.79289 C11.09763,11.18342 11.09763,11.81658 10.70711,12.20711 C10.31658,12.59763 9.68342,12.59763 9.29289,12.20711 C8.90237,11.81658 8.90237,11.18342 9.29289,10.79289 C9.68342,10.40237 10.31658,10.40237 10.70711,10.79289" id="Stroke-9" stroke="#3F4C6B" stroke-linecap="square"></path>
                                </g>
                            </g>
                        </g>
                    </g>
                </g>
            </g>
        </g>
    </g>
</svg>