<?xml version="1.0" encoding="UTF-8" standalone="no"?>
<svg width="51px" height="63px" viewBox="0 0 51 63" version="1.1" xmlns="http://www.w3.org/2000/svg" xmlns:xlink="http://www.w3.org/1999/xlink" xmlns:sketch="http://www.bohemiancoding.com/sketch/ns">
    <!-- Generator: Sketch 3.3 (11970) - http://www.bohemiancoding.com/sketch -->
    <title>Imported Layers</title>
    <desc>Created with Sketch.</desc>
    <defs></defs>
    <g id="Welcome" stroke="none" stroke-width="1" fill="none" fill-rule="evenodd" sketch:type="MSPage">
        <g id="Desktop-HD" sketch:type="MSArtboardGroup" transform="translate(-1296.000000, -278.000000)">
            <g id="Rectangle-48-Copy-+-Imported-Layers-+-Rectangle-48-+-Imported-Layers" sketch:type="MSLayerGroup" transform="translate(1058.000000, 232.000000)">
                <g id="Rectangle-48-Copy-+-Imported-Layers" transform="translate(186.000000, 0.000000)" sketch:type="MSShapeGroup">
                    <g id="Imported-Layers" transform="translate(53.500000, 47.500000)">
                        <path d="M36,0 L36,12 L48,12" id="Fill-1" fill-opacity="0" fill="#000000"></path>
                        <path d="M36,0 L36,12 L48,12" id="Stroke-3" stroke="#606C88" stroke-width="2"></path>
                        <path d="M36,0 L0,0 L0,60 L48,60 L48,12 L36,0 Z" id="Fill-4" fill-opacity="0" fill="#000000"></path>
                        <path d="M36,0 L0,0 L0,60 L48,60 L48,12 L36,0 Z" id="Stroke-5" stroke="#606C88" stroke-width="2" stroke-linecap="square"></path>
                        <path d="M24,22 L24,38" id="Fill-6" fill-opacity="0" fill="#000000"></path>
                        <path d="M24,22 L24,38" id="Stroke-7" stroke="#606C88" stroke-width="2" stroke-linecap="square"></path>
                        <path d="M32,30 L16,30" id="Fill-8" fill-opacity="0" fill="#000000"></path>
                        <path d="M32,30 L16,30" id="Stroke-9" stroke="#606C88" stroke-width="2" stroke-linecap="square"></path>
                    </g>
                </g>
            </g>
        </g>
    </g>
</svg>