<?xml version="1.0" encoding="UTF-8" standalone="no"?>
<svg width="23px" height="23px" viewBox="0 0 23 23" version="1.1" xmlns="http://www.w3.org/2000/svg" xmlns:xlink="http://www.w3.org/1999/xlink" xmlns:sketch="http://www.bohemiancoding.com/sketch/ns">
    <!-- Generator: Sketch 3.3 (11970) - http://www.bohemiancoding.com/sketch -->
    <title>Imported Layers</title>
    <desc>Created with Sketch.</desc>
    <defs></defs>
    <g id="Welcome" stroke="none" stroke-width="1" fill="none" fill-rule="evenodd" sketch:type="MSPage">
        <g id="Desktop-HD-Copy-7" sketch:type="MSArtboardGroup" transform="translate(-1109.000000, -861.000000)">
            <g id="Imported-Layers" sketch:type="MSLayerGroup" transform="translate(1109.000000, 861.000000)">
                <path d="M16.5,10.5 L11.5,15.5 L7.5,12.5 L4.5,15.5" id="Fill-1" fill-opacity="0" fill="#000000" sketch:type="MSShapeGroup"></path>
                <path d="M16.5,10.5 L11.5,15.5 L7.5,12.5 L4.5,15.5" id="Stroke-3" stroke="#3F4C6B" stroke-linecap="square" sketch:type="MSShapeGroup"></path>
                <path d="M12.5,21.5 L0.5,21.5 L0.5,0.5 L21.5,0.5 L21.5,12.5" id="Fill-4" fill-opacity="0" fill="#000000" sketch:type="MSShapeGroup"></path>
                <path d="M12.5,21.5 L0.5,21.5 L0.5,0.5 L21.5,0.5 L21.5,12.5" id="Stroke-5" stroke="#3F4C6B" stroke-linecap="square" sketch:type="MSShapeGroup"></path>
                <path d="M9.91421,5.08579 C10.69526,5.86684 10.69526,7.13316 9.91421,7.91421 C9.13316,8.69526 7.866835,8.69526 7.085786,7.91421 C6.304738,7.13316 6.304738,5.86684 7.085786,5.08579 C7.866835,4.30474 9.13316,4.30474 9.91421,5.08579" id="Fill-6" fill-opacity="0" fill="#000000" sketch:type="MSShapeGroup"></path>
                <path d="M9.91421,5.085786 C10.69526,5.866835 10.69526,7.133165 9.91421,7.914214 C9.133165,8.695262 7.866835,8.695262 7.085786,7.914214 C6.304738,7.133165 6.304738,5.866835 7.085786,5.085786 C7.866835,4.304738 9.133165,4.304738 9.91421,5.085786" id="Stroke-7" stroke="#3F4C6B" stroke-linecap="square" sketch:type="MSShapeGroup"></path>
                <path d="M19.5,16.5 L19.5,22.5" id="Fill-8" fill-opacity="0" fill="#000000" sketch:type="MSShapeGroup"></path>
                <path d="M19.5,16.5 L19.5,22.5" id="Stroke-9" stroke="#3F4C6B" stroke-linecap="square" sketch:type="MSShapeGroup"></path>
                <path d="M16.5,19.5 L22.5,19.5" id="Fill-10" fill-opacity="0" fill="#000000" sketch:type="MSShapeGroup"></path>
                <path d="M16.5,19.5 L22.5,19.5" id="Stroke-11" stroke="#3F4C6B" stroke-linecap="square" sketch:type="MSShapeGroup"></path>
            </g>
        </g>
    </g>
</svg>