<?xml version="1.0" encoding="UTF-8" standalone="no"?>
<svg width="26px" height="31px" viewBox="0 0 26 31" version="1.1" xmlns="http://www.w3.org/2000/svg" xmlns:xlink="http://www.w3.org/1999/xlink" xmlns:sketch="http://www.bohemiancoding.com/sketch/ns">
    <!-- Generator: Sketch 3.3 (11970) - http://www.bohemiancoding.com/sketch -->
    <title>Imported Layers</title>
    <desc>Created with Sketch.</desc>
    <defs></defs>
    <g id="Welcome" stroke="none" stroke-width="1" fill="none" fill-rule="evenodd" sketch:type="MSPage">
        <g id="Desktop-HD-Copy-6" sketch:type="MSArtboardGroup" transform="translate(-1267.000000, -26.000000)">
            <g id="Rectangle-1-+-Smart-as-+-Imported-Layers" sketch:type="MSLayerGroup">
                <g id="Group" transform="translate(454.000000, 25.000000)" sketch:type="MSShapeGroup">
                    <g id="Imported-Layers" transform="translate(814.000000, 2.000000)">
                        <path d="M8,3 L6,0" id="Fill-1" fill-opacity="0" fill="#000000"></path>
                        <path d="M8,3 L6,0" id="Stroke-3" stroke="#3F4C6B" stroke-width="2"></path>
                        <path d="M16,3 L18,0" id="Fill-4" fill-opacity="0" fill="#000000"></path>
                        <path d="M16,3 L18,0" id="Stroke-5" stroke="#3F4C6B" stroke-width="2"></path>
                        <path d="M0,11 L0,18" id="Fill-6" fill-opacity="0" fill="#000000"></path>
                        <path d="M0,11 L0,18" id="Stroke-7" stroke="#3F4C6B" stroke-width="2" stroke-linecap="square"></path>
                        <path d="M24,11 L24,18" id="Fill-8" fill-opacity="0" fill="#000000"></path>
                        <path d="M24,11 L24,18" id="Stroke-9" stroke="#3F4C6B" stroke-width="2" stroke-linecap="square"></path>
                        <path d="M8,24 L8,29" id="Fill-10" fill-opacity="0" fill="#000000"></path>
                        <path d="M8,24 L8,29" id="Stroke-11" stroke="#3F4C6B" stroke-width="2" stroke-linecap="square"></path>
                        <path d="M16,24 L16,29" id="Fill-12" fill-opacity="0" fill="#000000"></path>
                        <path d="M16,24 L16,29" id="Stroke-13" stroke="#3F4C6B" stroke-width="2" stroke-linecap="square"></path>
                        <path d="M4,10 L20,10" id="Fill-14" fill-opacity="0" fill="#000000"></path>
                        <path d="M4,10 L20,10" id="Stroke-15" stroke="#3F4C6B" stroke-width="2"></path>
                        <path d="M20,24 L4,24 L4,10 C4,5.582 7.582,2 12,2 L12,2 C16.418,2 20,5.582 20,10 L20,24 L20,24 Z" id="Fill-16" fill-opacity="0" fill="#000000"></path>
                        <path d="M20,24 L4,24 L4,10 C4,5.582 7.582,2 12,2 L12,2 C16.418,2 20,5.582 20,10 L20,24 L20,24 Z" id="Stroke-17" stroke="#3F4C6B" stroke-width="2" stroke-linecap="square"></path>
                    </g>
                </g>
            </g>
        </g>
    </g>
</svg>