<?xml version="1.0" encoding="UTF-8" standalone="no"?>
<svg width="200px" height="201px" viewBox="0 0 200 201" version="1.1" xmlns="http://www.w3.org/2000/svg" xmlns:xlink="http://www.w3.org/1999/xlink" xmlns:sketch="http://www.bohemiancoding.com/sketch/ns">
    <!-- Generator: Sketch 3.3 (11970) - http://www.bohemiancoding.com/sketch -->
    <title>Oval 1 Copy 2 + Imported Layers</title>
    <desc>Created with Sketch.</desc>
    <defs>
        <radialGradient cx="50%" cy="50%" fx="50%" fy="50%" r="50%" id="radialGradient-1">
            <stop stop-color="#FFFFFF" offset="0%"></stop>
            <stop stop-color="#FECBC5" offset="100%"></stop>
        </radialGradient>
    </defs>
    <g id="Welcome" stroke="none" stroke-width="1" fill="none" fill-rule="evenodd" sketch:type="MSPage">
        <g id="Desktop-HD-Copy-6" sketch:type="MSArtboardGroup" transform="translate(-781.000000, -2554.000000)">
            <g id="Наши-преимущества-+-Мы-стараемся-быть-на-+-Group" sketch:type="MSLayerGroup" transform="translate(96.000000, 2377.000000)">
                <g id="Group" transform="translate(0.000000, 176.950095)" sketch:type="MSShapeGroup">
                    <g id="Oval-1-Copy-2-+-Удобно-+-Мобильно-приложение-" transform="translate(660.000000, 0.000000)">
                        <g id="Oval-1-Copy-2-+-Imported-Layers" transform="translate(25.000000, 0.000000)">
                            <path d="M100,200.919927 C155.228475,200.919927 200,156.148402 200,100.919927 C200,45.6914522 155.228475,0.919927216 100,0.919927216 C44.771525,0.919927216 0,45.6914522 0,100.919927 C0,156.148402 44.771525,200.919927 100,200.919927 Z" id="Oval-1-Copy-2" fill="url(#radialGradient-1)"></path>
                            <g id="Imported-Layers" transform="translate(70.000000, 57.049905)">
                                <path d="M54.9166667,95.9166667 L9.08333333,95.9166667 C4.48125,95.9166667 0.75,92.1854167 0.75,87.5833333 L0.75,8.41666667 C0.75,3.81458333 4.48125,0.0833333333 9.08333333,0.0833333333 L54.9166667,0.0833333333 C59.51875,0.0833333333 63.25,3.81458333 63.25,8.41666667 L63.25,87.5833333 C63.25,92.1854167 59.51875,95.9166667 54.9166667,95.9166667 L54.9166667,95.9166667 Z" id="Fill-1" fill="#444444"></path>
                                <path d="M34.9462708,82.5537208 C36.5734583,84.1809063 36.5734583,86.8190938 34.9462708,88.4462792 C33.3190833,90.0734625 30.6809167,90.0734625 29.0537292,88.4462792 C27.4265417,86.8190938 27.4265417,84.1809063 29.0537292,82.5537208 C30.6809167,80.9265375 33.3190833,80.9265375 34.9462708,82.5537208" id="Fill-3" fill="#595959"></path>
                                <path d="M54.9166667,75.0833333 L9.08333333,75.0833333 C7.93333333,75.0833333 7,74.15 7,73 L7,14.6666667 C7,13.5166667 7.93333333,12.5833333 9.08333333,12.5833333 L54.9166667,12.5833333 C56.0666667,12.5833333 57,13.5166667 57,14.6666667 L57,73 C57,74.15 56.0666667,75.0833333 54.9166667,75.0833333 L54.9166667,75.0833333 Z" id="Fill-4" fill="#C1E0F5"></path>
                                <path d="M23.6666667,55.1125 L13.8604167,45.30625 C13.0458333,44.4916667 13.0458333,43.175 13.8604167,42.3604167 L23.6666667,32.5541667 L26.6125,35.5 L18.2791667,43.8333333 L26.6125,52.1666667 L23.6666667,55.1125 L23.6666667,55.1125 Z" id="Fill-5" fill="#FFFFFF"></path>
                                <path d="M40.3333333,55.1125 L37.3875,52.1666667 L45.7208333,43.8333333 L37.3875,35.5 L40.3333333,32.5541667 L50.1395833,42.3604167 C50.9541667,43.175 50.9541667,44.4916667 50.1395833,45.30625 L40.3333333,55.1125 L40.3333333,55.1125 Z" id="Fill-6" fill="#FFFFFF"></path>
                            </g>
                        </g>
                    </g>
                </g>
            </g>
        </g>
    </g>
</svg>