<?xml version="1.0" encoding="UTF-8" standalone="no"?>
<svg width="22px" height="29px" viewBox="0 0 22 29" version="1.1" xmlns="http://www.w3.org/2000/svg" xmlns:xlink="http://www.w3.org/1999/xlink" xmlns:sketch="http://www.bohemiancoding.com/sketch/ns">
    <!-- Generator: Sketch 3.3 (11970) - http://www.bohemiancoding.com/sketch -->
    <title>Imported Layers</title>
    <desc>Created with Sketch.</desc>
    <defs></defs>
    <g id="Welcome" stroke="none" stroke-width="1" fill="none" fill-rule="evenodd" sketch:type="MSPage">
        <g id="Desktop-HD" sketch:type="MSArtboardGroup" transform="translate(-472.000000, -426.000000)">
            <g id="Group" sketch:type="MSLayerGroup" transform="translate(457.000000, 232.000000)">
                <g id="Imported-Layers" transform="translate(16.000000, 194.500000)" sketch:type="MSShapeGroup">
                    <path d="M14,7.63636364 L19.7272727,20.5545455 C21.1909091,24.0545448 18.6454545,28 14.8272727,28 L5.6,28 C1.78181818,28 -0.827273364,24.1181812 0.699999364,20.5545455 L6.36363636,7.63636364" id="Fill-1" fill-opacity="0" fill="#000000"></path>
                    <path d="M14,7.63636364 L19.7272727,20.5545455 C21.1909091,24.0545455 18.6454545,28 14.8272727,28 L5.6,28 C1.78181818,28 -0.827273364,24.1181818 0.699999364,20.5545455 L6.36363636,7.63636364" id="Stroke-3" stroke="#3F4C6B"></path>
                    <path d="M16.5454545,0 L3.81818182,0 L6.36363636,7.63636364 L14,7.63636364 L16.5454545,0 Z" id="Fill-4" fill-opacity="0" fill="#000000"></path>
                    <path d="M16.5454545,0 L3.81818182,0 L6.36363636,7.63636364 L14,7.63636364 L16.5454545,0 Z" id="Stroke-5" stroke="#3F4C6B" stroke-linecap="square"></path>
                    <path d="M10,7.63636364 L10,5.09090909" id="Fill-6" fill-opacity="0" fill="#000000"></path>
                    <path d="M10,7.63636364 L10,5.09090909" id="Stroke-7" stroke="#3F4C6B" stroke-linecap="square"></path>
                    <path d="M8.27272727,20.0454545 L8.27272727,20.0454545 C8.27272727,20.9363636 8.97272727,21.6363636 9.86363636,21.6363636 L10.5,21.6363636 C11.3909091,21.6363636 12.0909091,20.9363636 12.0909091,20.0454545 L12.0909091,20.0454545 C12.0909091,17.8181818 8.27272727,19.0909091 8.27272727,16.8636364 L8.27272727,16.8636364 C8.27272727,15.9727273 8.97272727,15.2727273 9.86363636,15.2727273 L10.5,15.2727273 C11.3909091,15.2727273 12.0909091,15.9727273 12.0909091,16.8636364" id="Fill-8" fill-opacity="0" fill="#000000"></path>
                    <path d="M8.27272727,20.0454545 L8.27272727,20.0454545 C8.27272727,20.9363636 8.97272727,21.6363636 9.86363636,21.6363636 L10.5,21.6363636 C11.3909091,21.6363636 12.0909091,20.9363636 12.0909091,20.0454545 L12.0909091,20.0454545 C12.0909091,17.8181818 8.27272727,19.0909091 8.27272727,16.8636364 L8.27272727,16.8636364 C8.27272727,15.9727273 8.97272727,15.2727273 9.86363636,15.2727273 L10.5,15.2727273 C11.3909091,15.2727273 12.0909091,15.9727273 12.0909091,16.8636364" id="Stroke-9" stroke="#3F4C6B"></path>
                    <path d="M10,21.6363636 L10,24.1818182" id="Fill-10" fill-opacity="0" fill="#000000"></path>
                    <path d="M10,21.6363636 L10,24.1818182" id="Stroke-11" stroke="#3F4C6B"></path>
                    <path d="M10,12.7272727 L10,15.2727273" id="Fill-12" fill-opacity="0" fill="#000000"></path>
                    <path d="M10,12.7272727 L10,15.2727273" id="Stroke-13" stroke="#3F4C6B"></path>
                </g>
            </g>
        </g>
    </g>
</svg>