<?xml version="1.0" encoding="UTF-8" standalone="no"?>
<svg width="29px" height="29px" viewBox="0 0 29 29" version="1.1" xmlns="http://www.w3.org/2000/svg" xmlns:xlink="http://www.w3.org/1999/xlink" xmlns:sketch="http://www.bohemiancoding.com/sketch/ns">
    <!-- Generator: Sketch 3.3 (11970) - http://www.bohemiancoding.com/sketch -->
    <title>Imported Layers</title>
    <desc>Created with Sketch.</desc>
    <defs></defs>
    <g id="Welcome" stroke="none" stroke-width="1" fill="none" fill-rule="evenodd" sketch:type="MSPage">
        <g id="Desktop-HD" sketch:type="MSArtboardGroup" transform="translate(-121.000000, -412.000000)">
            <g id="Group" sketch:type="MSLayerGroup" transform="translate(109.000000, 232.000000)">
                <g id="Rectangle-101-+-Imported-Layers" transform="translate(0.000000, 169.000000)" sketch:type="MSShapeGroup">
                    <g id="Imported-Layers" transform="translate(12.250000, 11.500000)">
                        <path d="M14,11.5294118 L14,16.4705882 L18.9411765,16.4705882" id="Fill-1" fill-opacity="0" fill="#000000"></path>
                        <path d="M14,11.5294118 L14,16.4705882 L18.9411765,16.4705882" id="Stroke-3" stroke="#3F4C6B" stroke-linecap="square"></path>
                        <path d="M2.88235294,27.5882353 L6.15588235,24.3147065" id="Fill-4" fill-opacity="0" fill="#000000"></path>
                        <path d="M2.88235294,27.5882353 L6.15588235,24.3147059" id="Stroke-5" stroke="#3F4C6B"></path>
                        <path d="M25.1176471,27.5882353 L21.8441176,24.3147065" id="Fill-6" fill-opacity="0" fill="#000000"></path>
                        <path d="M25.1176471,27.5882353 L21.8441176,24.3147059" id="Stroke-7" stroke="#3F4C6B"></path>
                        <path d="M21.8613624,8.60922588 C26.2030753,12.9509388 26.2030753,19.9902376 21.8613624,24.3319518 C17.5196494,28.6736631 10.4803506,28.6736631 6.13863765,24.3319518 C1.79692532,19.9902376 1.79692532,12.9509388 6.13863765,8.60922588 C10.4803506,4.26751294 17.5196494,4.26751294 21.8613624,8.60922588" id="Fill-8" fill-opacity="0" fill="#000000"></path>
                        <path d="M21.8613624,8.60922588 C26.2030753,12.9509388 26.2030753,19.9902376 21.8613624,24.3319506 C17.5196494,28.6736635 10.4803506,28.6736635 6.13863765,24.3319506 C1.79692532,19.9902376 1.79692532,12.9509388 6.13863765,8.60922588 C10.4803506,4.26751356 17.5196494,4.26751356 21.8613624,8.60922588" id="Stroke-9" stroke="#3F4C6B" stroke-linecap="square"></path>
                        <path d="M10.7264706,2.01764706 C9.61470588,1.02941176 8.19411765,0.411764706 6.58823529,0.411764706 C3.19117647,0.411764706 0.411764706,3.19117647 0.411764706,6.58823529 C0.411764706,7.57647059 0.658823529,8.44117647 1.02941176,9.30588235 C3.06764706,5.66176471 6.58823529,2.94411765 10.7264706,2.01764706 L10.7264706,2.01764706 Z" id="Fill-10" fill-opacity="0" fill="#000000"></path>
                        <path d="M10.7264706,2.01764706 C9.61470588,1.02941176 8.19411765,0.411764706 6.58823529,0.411764706 C3.19117647,0.411764706 0.411764706,3.19117647 0.411764706,6.58823529 C0.411764706,7.57647059 0.658823529,8.44117647 1.02941176,9.30588235 C3.06764706,5.66176471 6.58823529,2.94411765 10.7264706,2.01764706 L10.7264706,2.01764706 Z" id="Stroke-11" stroke="#3F4C6B" stroke-linecap="square"></path>
                        <path d="M17.2735294,2.01764706 C18.3852941,1.02941176 19.8058824,0.411764706 21.4117647,0.411764706 C24.8088235,0.411764706 27.5882353,3.19117647 27.5882353,6.58823529 C27.5882353,7.57647059 27.3411765,8.44117647 26.9705882,9.30588235 C24.9323529,5.66176471 21.4117647,2.94411765 17.2735294,2.01764706 L17.2735294,2.01764706 Z" id="Fill-12" fill-opacity="0" fill="#000000"></path>
                        <path d="M17.2735294,2.01764706 C18.3852941,1.02941176 19.8058824,0.411764706 21.4117647,0.411764706 C24.8088235,0.411764706 27.5882353,3.19117647 27.5882353,6.58823529 C27.5882353,7.57647059 27.3411765,8.44117647 26.9705882,9.30588235 C24.9323529,5.66176471 21.4117647,2.94411765 17.2735294,2.01764706 L17.2735294,2.01764706 Z" id="Stroke-13" stroke="#3F4C6B" stroke-linecap="square"></path>
                    </g>
                </g>
            </g>
        </g>
    </g>
</svg>