<?xml version="1.0" encoding="UTF-8" standalone="no"?>
<svg width="27px" height="31px" viewBox="0 0 27 31" version="1.1" xmlns="http://www.w3.org/2000/svg" xmlns:xlink="http://www.w3.org/1999/xlink" xmlns:sketch="http://www.bohemiancoding.com/sketch/ns">
    <!-- Generator: Sketch 3.3 (11970) - http://www.bohemiancoding.com/sketch -->
    <title>Imported Layers</title>
    <desc>Created with Sketch.</desc>
    <defs></defs>
    <g id="Welcome" stroke="none" stroke-width="1" fill="none" fill-rule="evenodd" sketch:type="MSPage">
        <g id="Desktop-HD" sketch:type="MSArtboardGroup" transform="translate(-470.000000, -486.000000)">
            <g id="Group" sketch:type="MSLayerGroup" transform="translate(457.000000, 232.000000)">
                <g id="Imported-Layers" transform="translate(13.500000, 253.500000)" sketch:type="MSShapeGroup">
                    <path d="M0,26.5 L8.325,18.1" id="Fill-1" fill-opacity="0" fill="#000000"></path>
                    <path d="M0,26.5 L8.325,18.1" id="Stroke-3" stroke="#3F4C6B"></path>
                    <path d="M12,5.5 L3,10 L0,26.5 L16.5,23.5 L21,14.5" id="Fill-4" fill-opacity="0" fill="#000000"></path>
                    <path d="M12,5.5 L3,10 L0,26.5 L16.5,23.5 L21,14.5" id="Stroke-5" stroke="#3F4C6B"></path>
                    <path d="M22.5078375,15.9778075 L10.5224925,3.9924625 L13.545345,0.96961 L25.53069,12.954955 L22.5078375,15.9778075 Z" id="Fill-6" fill-opacity="0" fill="#000000"></path>
                    <path d="M22.5078375,15.9778082 L10.5224925,3.99246325 L13.545345,0.96961075 L25.53069,12.9549557 L22.5078375,15.9778082 Z" id="Stroke-7" stroke="#3F4C6B" stroke-linecap="square"></path>
                    <path d="M12.6213225,13.8786775 C13.79289,15.0502525 13.79289,16.9497475 12.6213225,18.1213225 C11.4497475,19.29289 9.5502525,19.29289 8.3786775,18.1213225 C7.20711,16.9497475 7.20711,15.0502525 8.3786775,13.8786775 C9.5502525,12.70711 11.4497475,12.70711 12.6213225,13.8786775" id="Fill-8" fill-opacity="0" fill="#000000"></path>
                    <path d="M12.6213225,13.8786775 C13.79289,15.0502525 13.79289,16.9497475 12.6213225,18.1213225 C11.4497475,19.29289 9.5502525,19.29289 8.3786775,18.1213225 C7.20711,16.9497475 7.20711,15.0502525 8.3786775,13.8786775 C9.5502525,12.70711 11.4497475,12.70711 12.6213225,13.8786775" id="Stroke-9" stroke="#3F4C6B" stroke-linecap="square"></path>
                    <path d="M0,31 L24,31" id="Fill-10" fill-opacity="0" fill="#000000"></path>
                    <path d="M0,31 L24,31" id="Stroke-11" stroke="#3F4C6B" stroke-linecap="square"></path>
                </g>
            </g>
        </g>
    </g>
</svg>