<?xml version="1.0" encoding="UTF-8" standalone="no"?>
<svg width="200px" height="201px" viewBox="0 0 200 201" version="1.1" xmlns="http://www.w3.org/2000/svg" xmlns:xlink="http://www.w3.org/1999/xlink" xmlns:sketch="http://www.bohemiancoding.com/sketch/ns">
    <!-- Generator: Sketch 3.3 (11970) - http://www.bohemiancoding.com/sketch -->
    <title>Oval 1 Copy + Imported Layers</title>
    <desc>Created with Sketch.</desc>
    <defs>
        <radialGradient cx="50%" cy="50%" fx="50%" fy="50%" r="50%" id="radialGradient-1">
            <stop stop-color="#AFF8E6" offset="0%"></stop>
            <stop stop-color="#38BC9C" offset="100%"></stop>
        </radialGradient>
    </defs>
    <g id="Welcome" stroke="none" stroke-width="1" fill="none" fill-rule="evenodd" sketch:type="MSPage">
        <g id="Desktop-HD-Copy-6" sketch:type="MSArtboardGroup" transform="translate(-1119.000000, -2554.000000)">
            <g id="Наши-преимущества-+-Мы-стараемся-быть-на-+-Group" sketch:type="MSLayerGroup" transform="translate(96.000000, 2377.000000)">
                <g id="Group" transform="translate(0.000000, 176.950095)" sketch:type="MSShapeGroup">
                    <g id="Oval-1-Copy-+-Быстро-+-Буквально-за-несколь" transform="translate(998.000000, 0.000000)">
                        <g id="Oval-1-Copy-+-Imported-Layers" transform="translate(25.000000, 0.000000)">
                            <circle id="Oval-1-Copy" fill="url(#radialGradient-1)" cx="100" cy="100.919927" r="100"></circle>
                            <g id="Imported-Layers" transform="translate(50.000000, 50.919927)">
                                <path d="M50,97.9166667 C23.577875,97.9166667 2.08333333,76.4211042 2.08333333,50 C2.08333333,23.5788958 23.577875,2.08333333 50,2.08333333 C76.422125,2.08333333 97.9166667,23.5788958 97.9166667,50 C97.9166667,76.4211042 76.422125,97.9166667 50,97.9166667 L50,97.9166667 Z" id="Fill-1" fill="#444444"></path>
                                <path d="M54.4194167,54.4194167 C51.9826875,56.8561458 48.0172917,56.8561458 45.5805833,54.4194167 C43.143875,51.9826875 35.4166667,35.4166667 35.4166667,35.4166667 C35.4166667,35.4166667 51.9826875,43.1438542 54.4194167,45.5805833 C56.8561458,48.0173125 56.8561458,51.9826875 54.4194167,54.4194167 L54.4194167,54.4194167 Z" id="Fill-3" fill="#FFFFFF"></path>
                                <path d="M70.4121875,72.9166667 C69.8730417,72.9166667 69.331875,72.708125 68.9249583,72.2910625 C68.1192917,71.4701458 68.1315,70.1507708 68.9534375,69.3451042 C74.196375,64.2079583 77.0833333,57.3374375 77.0833333,50 C77.0833333,35.0657083 64.9332708,22.9166667 50,22.9166667 C42.6615417,22.9166667 35.7910208,25.803625 30.6538958,31.0455417 C29.8482292,31.8695208 28.529875,31.8776458 27.7079375,31.0760625 C26.886,30.2703958 26.8737917,28.9520417 27.6794583,28.1301042 C33.6059583,22.0815 41.5323958,18.75 50,18.75 C67.23225,18.75 81.25,32.76875 81.25,50 C81.25,58.4665833 77.9195208,66.3930208 71.8709375,72.3215833 C71.4640208,72.7183125 70.939125,72.9166667 70.4121875,72.9166667 L70.4121875,72.9166667 Z" id="Fill-4" fill="#282828"></path>
                                <path d="M29.5857708,72.914625 C29.0588333,72.914625 28.5339375,72.7162708 28.1270208,72.3195417 C22.0804792,66.3930208 18.75,58.4665833 18.75,50 C18.75,41.7714375 21.9217917,34.0047292 27.6794375,28.1290625 C28.4830625,27.3061042 29.8014167,27.2959375 30.6253958,28.0995625 C31.4473333,28.9052292 31.4595417,30.2246042 30.653875,31.0465417 C25.6652917,36.136875 22.9166667,42.8690625 22.9166667,50 C22.9166667,57.3374375 25.803625,64.2069583 31.0445208,69.3430625 C31.8664583,70.1487292 31.8786667,71.4681042 31.073,72.2890208 C30.6661042,72.7061042 30.1249167,72.914625 29.5857708,72.914625 L29.5857708,72.914625 Z" id="Fill-5" fill="#43A6DD"></path>
                            </g>
                        </g>
                    </g>
                </g>
            </g>
        </g>
    </g>
</svg>