<?xml version="1.0" encoding="UTF-8" standalone="no"?>
<svg width="93px" height="109px" viewBox="0 0 93 109" version="1.1" xmlns="http://www.w3.org/2000/svg" xmlns:xlink="http://www.w3.org/1999/xlink" xmlns:sketch="http://www.bohemiancoding.com/sketch/ns">
    <!-- Generator: Sketch 3.3 (11970) - http://www.bohemiancoding.com/sketch -->
    <title>Imported Layers</title>
    <desc>Created with Sketch.</desc>
    <defs></defs>
    <g id="Welcome" stroke="none" stroke-width="1" fill="none" fill-rule="evenodd" sketch:type="MSPage">
        <g id="Desktop-HD-Copy-6" sketch:type="MSArtboardGroup" transform="translate(-371.000000, -4214.000000)">
            <g id="Imported-Layers" sketch:type="MSLayerGroup" transform="translate(353.750000, 4209.830078)">
                <path d="M91.767575,53.232425 L61.767575,23.232425 C61.003425,22.469475 59.8462,22.288825 58.881825,22.763675 L28.881825,37.763675 C28.1787,38.11645 27.68065,38.778075 27.5415,39.553225 L17.5415025,94.553225 C17.3925775,95.3601025 17.6513775,96.1877525 18.2324275,96.7675775 C18.70605,97.2412025 19.34325,97.5 20,97.5 C20.148925,97.5 20.29785,97.486575 20.446775,97.459725 L75.446775,87.459725 C76.2207,87.31935 76.884775,86.8213 77.236325,86.118175 L92.236325,56.118175 C92.717275,55.155025 92.5293,53.992925 91.767575,53.232425 L91.767575,53.232425 Z" id="Fill-1" fill="#EFD358" sketch:type="MSShapeGroup"></path>
                <path d="M109.267575,45.732425 L69.267575,5.732425 C68.291025,4.755875 66.708975,4.755875 65.732425,5.732425 L53.232425,18.232425 C52.255875,19.208975 52.255875,20.791025 53.232425,21.767575 L93.232425,61.767575 C93.7207,62.25585 94.36035,62.5 95,62.5 C95.63965,62.5 96.2793,62.25585 96.767575,61.767575 L109.267575,49.267575 C110.24415,48.291025 110.24415,46.708975 109.267575,45.732425 L109.267575,45.732425 Z" id="Fill-3" fill="#444444" sketch:type="MSShapeGroup"></path>
                <path d="M57.80335,57.19665 C54.874425,54.267725 50.125575,54.267725 47.19665,57.19665 C44.9298,59.4635 44.438625,62.81235 45.6807,65.57205 L18.2251,93.238525 C17.253425,94.21875 17.2583,95.8020025 18.23975,96.7749025 C18.725575,97.2583 19.3628,97.5 20,97.5 C20.6421,97.5 21.286625,97.253425 21.7749,96.761475 L49.151925,69.1742 C51.961675,70.582575 55.45915,70.14755 57.80335,67.8032 C60.732275,64.874275 60.732275,60.125575 57.80335,57.19665 L57.80335,57.19665 Z" id="Fill-4" fill="#B29930" sketch:type="MSShapeGroup"></path>
                <path d="M100,112.5 L20,112.5 C18.618175,112.5 17.5,111.380625 17.5,110 C17.5,108.619375 18.618175,107.5 20,107.5 L100,107.5 C101.381825,107.5 102.5,108.619375 102.5,110 C102.5,111.380625 101.381825,112.5 100,112.5 L100,112.5 Z" id="Fill-5" fill="#B3B3B3" sketch:type="MSShapeGroup"></path>
            </g>
        </g>
    </g>
</svg>