<?xml version="1.0" encoding="UTF-8" standalone="no"?>
<svg width="84px" height="116px" viewBox="0 0 84 116" version="1.1" xmlns="http://www.w3.org/2000/svg" xmlns:xlink="http://www.w3.org/1999/xlink" xmlns:sketch="http://www.bohemiancoding.com/sketch/ns">
    <!-- Generator: Sketch 3.3 (11970) - http://www.bohemiancoding.com/sketch -->
    <title>Imported Layers</title>
    <desc>Created with Sketch.</desc>
    <defs></defs>
    <g id="Welcome" stroke="none" stroke-width="1" fill="none" fill-rule="evenodd" sketch:type="MSPage">
        <g id="Desktop-HD-Copy-6" sketch:type="MSArtboardGroup" transform="translate(-1040.000000, -4490.000000)">
            <g id="Imported-Layers" sketch:type="MSLayerGroup" transform="translate(1021.812500, 4488.000000)">
                <path d="M99.70215,84.8877 C99.6985,84.877925 99.6936,84.86695 99.688725,84.857175 L77.5,35 L87.371825,5.791025 C87.625725,5.028075 87.49755,4.190675 87.027575,3.538825 C86.557625,2.88575 85.803225,2.5 85,2.5 L35,2.5 C34.196775,2.5 33.442375,2.88575 32.9724,3.538825 C32.502425,4.190675 32.37425,5.028075 32.62815,5.791025 L42.5,35 L20.29785,84.8877 C17.215575,92.150875 17.976075,100.415045 22.33155,106.99342 C26.687,113.572997 33.9978,117.5 41.8872,117.5 L78.112775,117.5 C86.002175,117.5 93.312975,113.573 97.66845,106.9934 C102.023925,100.415047 102.784425,92.150875 99.70215,84.8877 L99.70215,84.8877 Z" id="Fill-1" fill="#A67C52" sketch:type="MSShapeGroup"></path>
                <path d="M60,37.5 C58.619375,37.5 57.5,36.380625 57.5,35 L57.5,20 C57.5,18.619375 58.619375,17.5 60,17.5 C61.380625,17.5 62.5,18.619375 62.5,20 L62.5,35 C62.5,36.380625 61.380625,37.5 60,37.5 L60,37.5 Z" id="Fill-3" fill="#87613E" sketch:type="MSShapeGroup"></path>
                <path d="M60.6067,75.074475 C56.0738,73.941875 54.89555,73.299925 55.0071,70.96575 C55.10055,69.01015 56.7922,67.500025 58.750025,67.500025 L61.250025,67.500025 C63.35525,67.500025 64.93125,69.230875 65.00145,71.334925 C65.0462,72.676225 66.1478,73.75 67.5,73.75 C68.880625,73.75 70,72.630625 70,71.25 C70,66.8538 66.729125,63.23945 62.5,62.62635 L62.5,57.5 C62.5,56.1193 61.380725,55 60,55 L60,55 C58.6193,55 57.5,56.119275 57.5,57.5 L57.5,62.62635 C53.270875,63.23945 50,66.8538 50,71.25 C50,77.5769 55.653075,78.990475 59.3933,79.925525 C63.9262,81.058125 65.10445,81.700075 64.9929,84.03425 C64.899475,85.98985 63.207825,87.499975 61.25,87.5 L58.75,87.5 C56.644775,87.5 55.068775,85.76915 54.998575,83.665075 C54.9538,82.323775 53.8522,81.25 52.5,81.25 C51.119375,81.25 50,82.369375 50,83.75 C50,88.1462 53.270875,91.76055 57.5,92.37365 L57.5,97.5 C57.5,98.8807 58.619275,100 60,100 L60,100 C61.3807,100 62.5,98.8807 62.5,97.5 L62.5,92.37365 C66.729125,91.76055 70,88.1462 70,83.75 C70,77.4231 64.346925,76.009525 60.6067,75.074475 L60.6067,75.074475 Z" id="Fill-4" fill="#EFD358" sketch:type="MSShapeGroup"></path>
                <path d="M77.5,37.5 L42.5,37.5 C41.119375,37.5 40,36.380625 40,35 C40,33.619375 41.119375,32.5 42.5,32.5 L77.5,32.5 C78.880625,32.5 80,33.619375 80,35 C80,36.380625 78.880625,37.5 77.5,37.5 L77.5,37.5 Z" id="Fill-5" fill="#EFD358" sketch:type="MSShapeGroup"></path>
            </g>
        </g>
    </g>
</svg>