<?xml version="1.0" encoding="UTF-8" standalone="no"?>
<svg width="116px" height="116px" viewBox="0 0 116 116" version="1.1" xmlns="http://www.w3.org/2000/svg" xmlns:xlink="http://www.w3.org/1999/xlink" xmlns:sketch="http://www.bohemiancoding.com/sketch/ns">
    <!-- Generator: Sketch 3.3 (11970) - http://www.bohemiancoding.com/sketch -->
    <title>Imported Layers</title>
    <desc>Created with Sketch.</desc>
    <defs></defs>
    <g id="Welcome" stroke="none" stroke-width="1" fill="none" fill-rule="evenodd" sketch:type="MSPage">
        <g id="Desktop-HD-Copy-6" sketch:type="MSArtboardGroup" transform="translate(-356.000000, -4739.000000)">
            <g id="Imported-Layers" sketch:type="MSLayerGroup" transform="translate(355.750000, 4739.000000)">
                <path d="M68,5.5 L8,5.5 C3.8575,5.5 0.5,8.8575 0.5,13 L0.5,108 C0.5,112.1425 3.8575,115.5 8,115.5 L68,115.5 C72.1425,115.5 75.5,112.1425 75.5,108 L75.5,13 C75.5,8.8575 72.1425,5.5 68,5.5 L68,5.5 Z" id="Fill-1" fill="#444444" sketch:type="MSShapeGroup"></path>
                <path d="M41.535525,99.464465 C43.48815,101.417087 43.48815,104.582912 41.535525,106.535535 C39.5829,108.488155 36.4171,108.488155 34.464475,106.535535 C32.51185,104.582912 32.51185,101.417087 34.464475,99.464465 C36.4171,97.511845 39.5829,97.511845 41.535525,99.464465" id="Fill-3" fill="#686868" sketch:type="MSShapeGroup"></path>
                <path d="M65.5,90.5 L10.5,90.5 C9.12,90.5 8,89.38 8,88 L8,20.5 C8,19.12 9.12,18 10.5,18 L65.5,18 C66.88,18 68,19.12 68,20.5 L68,88 C68,89.38 66.88,90.5 65.5,90.5 L65.5,90.5 Z" id="Fill-4" fill="#686868" sketch:type="MSShapeGroup"></path>
                <path d="M110.5,0.5 L50.5,0.5 C47.7375,0.5 45.5,2.7375 45.5,5.5 L45.5,45.5 C45.5,48.2625 47.7375,50.5 50.5,50.5 L110.5,50.5 C113.2625,50.5 115.5,48.2625 115.5,45.5 L115.5,5.5 C115.5,2.7375 113.2625,0.5 110.5,0.5 L110.5,0.5 Z" id="Fill-5" fill="#43A6DD" sketch:type="MSShapeGroup"></path>
                <path d="M45.5,10.5 L115.5,10.5 L115.5,23 L45.5,23 L45.5,10.5 Z" id="Fill-6" fill="#223E49" sketch:type="MSShapeGroup"></path>
                <path d="M53,30.5 L80.5,30.5 L80.5,38 L53,38 L53,30.5 Z" id="Fill-7" fill="#FFFFFF" sketch:type="MSShapeGroup"></path>
            </g>
        </g>
    </g>
</svg>