<?xml version="1.0" encoding="UTF-8" standalone="no"?>
<svg width="108px" height="111px" viewBox="0 0 108 111" version="1.1" xmlns="http://www.w3.org/2000/svg" xmlns:xlink="http://www.w3.org/1999/xlink" xmlns:sketch="http://www.bohemiancoding.com/sketch/ns">
    <!-- Generator: Sketch 3.3 (11970) - http://www.bohemiancoding.com/sketch -->
    <title>Imported Layers</title>
    <desc>Created with Sketch.</desc>
    <defs></defs>
    <g id="Welcome" stroke="none" stroke-width="1" fill="none" fill-rule="evenodd" sketch:type="MSPage">
        <g id="Desktop-HD-Copy-6" sketch:type="MSArtboardGroup" transform="translate(-360.000000, -5310.000000)">
            <g id="Imported-Layers" sketch:type="MSLayerGroup" transform="translate(353.750000, 5305.370117)">
                <path d="M75,75 C74.2578,75 73.544925,74.6692 73.063975,74.08325 L50.563975,46.58325 C50.097675,46.01195 49.907225,45.26245 50.04395,44.53735 C50.180675,43.811025 50.6299,43.1836 51.274425,42.82105 L99.4995,15.6836 C100.471175,15.133075 101.6992,15.301525 102.492675,16.094975 C117.26075,30.86425 117.26075,54.89625 102.492675,69.665525 C102.13135,70.02685 101.667475,70.26855 101.16455,70.358875 L75.43945,74.960925 C75.292975,74.9878 75.146475,75 75,75 L75,75 Z M100.7251,67.89795 L100.749525,67.89795 L100.7251,67.89795 L100.7251,67.89795 Z" id="Fill-1" fill="#F2C7AA" sketch:type="MSShapeGroup"></path>
                <path d="M103.92335,68.684075 C103.913575,68.6743 103.903825,68.66455 103.89405,68.654775 L69.694825,33.669425 L62.01905,10.214825 C61.80665,9.56785 61.34035,9.035625 60.72755,8.740225 C46.254875,1.77125 28.8794,4.721675 17.507325,16.094975 C4.6289,28.9734 2.731925,49.216325 12.9956,64.228525 C13.076175,64.34815 13.16895,64.461675 13.271475,64.56545 L52.9248,105.081798 L60.03905,112.194823 C61.84815,114.003898 64.252925,115 66.811525,115 C69.367675,115 71.772475,114.0039 73.58155,112.194825 C75.5591,110.216075 76.489275,107.57935 76.369625,104.9829 C79.0747,105.1062 81.6748,104.102775 83.586425,102.1875 C85.57855,100.196725 86.509875,97.55275 86.381825,94.9707 C88.979475,95.101325 91.61375,94.158925 93.5937,92.1814 C95.570025,90.2051 96.515425,87.58065 96.38915,84.94995 C99.025875,85.05615 101.682125,84.0918 103.737775,82.03735 C107.43165,78.344725 107.51465,72.47925 103.92335,68.684075 L103.92335,68.684075 Z" id="Fill-3" fill="#C19F85" sketch:type="MSShapeGroup"></path>
                <path d="M60.08895,87.911675 L60.0888,87.911675 C57.325575,85.1483 52.8453,85.1483 50.081925,87.911675 C52.8453,85.1483 52.8453,80.668025 50.081925,77.90465 C47.31855,75.141275 42.838275,75.141275 40.0749,77.90465 C42.838275,75.141275 42.838275,70.661 40.0749,67.897625 C37.311525,65.13425 32.83125,65.13425 30.067875,67.897625 C32.83125,65.13425 32.83125,60.653975 30.067875,57.8906 C27.3045,55.127225 22.824225,55.127225 20.06085,57.8906 L12.5555,65.39595 C9.792125,68.159325 9.792125,72.6396 12.5555,75.402975 C15.318875,78.16635 19.79915,78.16635 22.562525,75.402975 C19.79915,78.16635 19.79915,82.646625 22.562525,85.41 C25.3259,88.173375 29.806175,88.173375 32.56955,85.41 C29.806175,88.173375 29.806175,92.65365 32.56955,95.4170225 C35.332925,98.1803975 39.8132,98.1803975 42.576575,95.4170225 C39.8132,98.1803975 39.8132,102.660673 42.576575,105.423898 L42.576575,105.424048 C45.33995,108.187422 49.820225,108.187422 52.5836,105.424048 L60.08895,97.9186975 C62.852325,95.155325 62.852325,90.67505 60.08895,87.911675 L60.08895,87.911675 Z" id="Fill-4" fill="#F2C7AA" sketch:type="MSShapeGroup"></path>
                <path d="M102.492675,16.094975 C87.722175,1.3257 63.6914,1.32935 48.9209,16.094975 L23.9038,41.11205 C23.4033,41.611325 23.13965,42.298575 23.173825,43.00415 C23.21045,43.709725 23.542475,44.367675 24.08935,44.81445 C24.355475,45.03295 27.761225,47.717275 33.58155,47.717275 C38.842775,47.71605 46.076675,45.521225 54.738775,37.325425 C60.44435,40.087875 79.1382,47.76365 90.749525,36.154775 C90.849625,36.0559 90.93995,35.9497 91.020525,35.83495 L102.7637,19.3103 C103.46925,18.31665 103.3545,16.956775 102.492675,16.094975 L102.492675,16.094975 Z" id="Fill-5" fill="#F2C7AA" sketch:type="MSShapeGroup"></path>
            </g>
        </g>
    </g>
</svg>