<?xml version="1.0" encoding="UTF-8" standalone="no"?>
<svg width="1101px" height="1852px" viewBox="0 0 1101 1852" version="1.1" xmlns="http://www.w3.org/2000/svg" xmlns:xlink="http://www.w3.org/1999/xlink" xmlns:sketch="http://www.bohemiancoding.com/sketch/ns">
    <!-- Generator: Sketch 3.3 (11970) - http://www.bohemiancoding.com/sketch -->
    <title>Group</title>
    <desc>Created with Sketch.</desc>
    <defs></defs>
    <g id="Welcome" stroke="none" stroke-width="1" fill="none" fill-rule="evenodd" sketch:type="MSPage">
        <g id="Desktop-HD-Copy-6" sketch:type="MSArtboardGroup" transform="translate(-179.000000, -4124.000000)">
            <g id="Group" sketch:type="MSLayerGroup" transform="translate(159.500000, 3953.419922)">
                <g transform="translate(0.000000, 170.000000)">
                    <g transform="translate(29.000000, 0.000000)">
                        <g>
                            <rect id="Rectangle-2" fill="#FBAEA8" sketch:type="MSShapeGroup" x="0.125" y="0.98762183" width="444" height="222" rx="10"></rect>
                            <g id="Line-+-Line" transform="translate(219.125000, 219.987622)" stroke="#FBAEA8" stroke-width="5" sketch:type="MSShapeGroup" stroke-linejoin="round" stroke-dasharray="18,9">
                                <path d="M0.875,116.482593 L429.375,116.482593" id="Line"></path>
                                <path d="M3,1.479953 L3,112.479953" id="Line" stroke-linecap="square"></path>
                            </g>
                            <g id="Imported-Layers" transform="translate(162.125000, 51.987622)" sketch:type="MSShapeGroup">
                                <path d="M91.767575,53.232425 L61.767575,23.232425 C61.003425,22.469475 59.8462,22.288825 58.881825,22.763675 L28.881825,37.763675 C28.1787,38.11645 27.68065,38.778075 27.5415,39.553225 L17.5415025,94.553225 C17.3925775,95.3601025 17.6513775,96.1877525 18.2324275,96.7675775 C18.70605,97.2412025 19.34325,97.5 20,97.5 C20.148925,97.5 20.29785,97.486575 20.446775,97.459725 L75.446775,87.459725 C76.2207,87.31935 76.884775,86.8213 77.236325,86.118175 L92.236325,56.118175 C92.717275,55.155025 92.5293,53.992925 91.767575,53.232425 L91.767575,53.232425 Z" id="Fill-1" fill="#EFD358"></path>
                                <path d="M109.267575,45.732425 L69.267575,5.732425 C68.291025,4.755875 66.708975,4.755875 65.732425,5.732425 L53.232425,18.232425 C52.255875,19.208975 52.255875,20.791025 53.232425,21.767575 L93.232425,61.767575 C93.7207,62.25585 94.36035,62.5 95,62.5 C95.63965,62.5 96.2793,62.25585 96.767575,61.767575 L109.267575,49.267575 C110.24415,48.291025 110.24415,46.708975 109.267575,45.732425 L109.267575,45.732425 Z" id="Fill-3" fill="#444444"></path>
                                <path d="M57.80335,57.19665 C54.874425,54.267725 50.125575,54.267725 47.19665,57.19665 C44.9298,59.4635 44.438625,62.81235 45.6807,65.57205 L18.2251,93.238525 C17.253425,94.21875 17.2583,95.8020025 18.23975,96.7749025 C18.725575,97.2583 19.3628,97.5 20,97.5 C20.6421,97.5 21.286625,97.253425 21.7749,96.761475 L49.151925,69.1742 C51.961675,70.582575 55.45915,70.14755 57.80335,67.8032 C60.732275,64.874275 60.732275,60.125575 57.80335,57.19665 L57.80335,57.19665 Z" id="Fill-4" fill="#B29930"></path>
                                <path d="M100,112.5 L20,112.5 C18.618175,112.5 17.5,111.380625 17.5,110 C17.5,108.619375 18.618175,107.5 20,107.5 L100,107.5 C101.381825,107.5 102.5,108.619375 102.5,110 C102.5,111.380625 101.381825,112.5 100,112.5 L100,112.5 Z" id="Fill-5" fill="#B3B3B3"></path>
                            </g>
                            <text id="Сначала-Вы-заполняет" sketch:type="MSTextLayer" font-family="SF UI Display" font-size="24" font-weight="206" sketch:alignment="middle" line-spacing="42" fill="#888888">
                                <tspan x="521.40625" y="73.979953">Сначала Вы заполняете форму с заказом, </tspan>
                                <tspan x="510.326172" y="115.979953">прикладываете фото или иные документы и </tspan>
                                <tspan x="628.017578" y="157.979953">выкладываете заказ</tspan>
                            </text>
                        </g>
                    </g>
                    <g transform="translate(314.000000, 283.000000)">
                        <text id="Исполнители-оцениваю" sketch:type="MSTextLayer" font-family="SF UI Display" font-size="24" font-weight="206" sketch:alignment="middle" line-spacing="42" fill="#888888">
                            <tspan x="361.148438" y="288.767923">Исполнители оценивают сложность заказа </tspan>
                            <tspan x="454.207031" y="330.767923">и предлагают свою цену </tspan>
                        </text>
                        <rect id="Rectangle-2-Copy-5" fill="#EAFBB1" sketch:type="MSShapeGroup" x="362.125" y="0.760253906" width="444" height="222" rx="10"></rect>
                        <g id="Line-+-Line" transform="translate(0.125000, 167.979953)" stroke="#EAFBB1" stroke-width="5" sketch:type="MSShapeGroup" stroke-dasharray="18,9">
                            <path d="M362.375,3.48000793 L2.375,3.48000793" id="Line" stroke-linecap="square" stroke-linejoin="round"></path>
                            <path d="M1.625,0.810086083 L1.625,114.479953" id="Line"></path>
                        </g>
                        <g id="Imported-Layers" transform="translate(524.125000, 51.760254)" sketch:type="MSShapeGroup">
                            <path d="M99.70215,84.8877 C99.6985,84.877925 99.6936,84.86695 99.688725,84.857175 L77.5,35 L87.371825,5.791025 C87.625725,5.028075 87.49755,4.190675 87.027575,3.538825 C86.557625,2.88575 85.803225,2.5 85,2.5 L35,2.5 C34.196775,2.5 33.442375,2.88575 32.9724,3.538825 C32.502425,4.190675 32.37425,5.028075 32.62815,5.791025 L42.5,35 L20.29785,84.8877 C17.215575,92.150875 17.976075,100.415045 22.33155,106.99342 C26.687,113.572997 33.9978,117.5 41.8872,117.5 L78.112775,117.5 C86.002175,117.5 93.312975,113.573 97.66845,106.9934 C102.023925,100.415047 102.784425,92.150875 99.70215,84.8877 L99.70215,84.8877 Z" id="Fill-1" fill="#A67C52"></path>
                            <path d="M60,37.5 C58.619375,37.5 57.5,36.380625 57.5,35 L57.5,20 C57.5,18.619375 58.619375,17.5 60,17.5 C61.380625,17.5 62.5,18.619375 62.5,20 L62.5,35 C62.5,36.380625 61.380625,37.5 60,37.5 L60,37.5 Z" id="Fill-3" fill="#87613E"></path>
                            <path d="M60.6067,75.074475 C56.0738,73.941875 54.89555,73.299925 55.0071,70.96575 C55.10055,69.01015 56.7922,67.500025 58.750025,67.500025 L61.250025,67.500025 C63.35525,67.500025 64.93125,69.230875 65.00145,71.334925 C65.0462,72.676225 66.1478,73.75 67.5,73.75 C68.880625,73.75 70,72.630625 70,71.25 C70,66.8538 66.729125,63.23945 62.5,62.62635 L62.5,57.5 C62.5,56.1193 61.380725,55 60,55 L60,55 C58.6193,55 57.5,56.119275 57.5,57.5 L57.5,62.62635 C53.270875,63.23945 50,66.8538 50,71.25 C50,77.5769 55.653075,78.990475 59.3933,79.925525 C63.9262,81.058125 65.10445,81.700075 64.9929,84.03425 C64.899475,85.98985 63.207825,87.499975 61.25,87.5 L58.75,87.5 C56.644775,87.5 55.068775,85.76915 54.998575,83.665075 C54.9538,82.323775 53.8522,81.25 52.5,81.25 C51.119375,81.25 50,82.369375 50,83.75 C50,88.1462 53.270875,91.76055 57.5,92.37365 L57.5,97.5 C57.5,98.8807 58.619275,100 60,100 L60,100 C61.3807,100 62.5,98.8807 62.5,97.5 L62.5,92.37365 C66.729125,91.76055 70,88.1462 70,83.75 C70,77.4231 64.346925,76.009525 60.6067,75.074475 L60.6067,75.074475 Z" id="Fill-4" fill="#EFD358"></path>
                            <path d="M77.5,37.5 L42.5,37.5 C41.119375,37.5 40,36.380625 40,35 C40,33.619375 41.119375,32.5 42.5,32.5 L77.5,32.5 C78.880625,32.5 80,33.619375 80,35 C80,36.380625 78.880625,37.5 77.5,37.5 L77.5,37.5 Z" id="Fill-5" fill="#EFD358"></path>
                        </g>
                    </g>
                    <g transform="translate(74.000000, 565.000000)">
                        <text id="Вы-выбираете-наиболе" sketch:type="MSTextLayer" font-family="SF UI Display" font-size="24" font-weight="206" sketch:alignment="middle" line-spacing="42" fill="#888888">
                            <tspan x="6.4609375" y="291.280273">Вы выбираете наиболее оптимальный вариант, </tspan>
                            <tspan x="33.2675781" y="333.280273">и с вашего баланса снимается стоимость </tspan>
                            <tspan x="208.544922" y="375.280273">заказа</tspan>
                        </text>
                        <rect id="Rectangle-2-Copy-2" fill="#B8F5D2" sketch:type="MSShapeGroup" x="19.75" y="0.770019531" width="444" height="222" rx="10"></rect>
                        <g id="Line-+-Line" transform="translate(463.750000, 169.770020)" stroke="#B8F5D2" stroke-width="5" sketch:type="MSShapeGroup" stroke-linejoin="round" stroke-dasharray="18">
                            <path d="M0.125,3 L292.75,3" id="Line"></path>
                            <path d="M293.125,1.02001953 L293.125,112.5" id="Line"></path>
                        </g>
                        <g id="Imported-Layers" transform="translate(181.750000, 51.770020)" sketch:type="MSShapeGroup">
                            <path d="M70,7.5 L10,7.5 C5.8575,7.5 2.5,10.8575 2.5,15 L2.5,110 C2.5,114.1425 5.8575,117.5 10,117.5 L70,117.5 C74.1425,117.5 77.5,114.1425 77.5,110 L77.5,15 C77.5,10.8575 74.1425,7.5 70,7.5 L70,7.5 Z" id="Fill-1" fill="#444444"></path>
                            <path d="M43.535525,101.464465 C45.48815,103.417087 45.48815,106.582912 43.535525,108.535535 C41.5829,110.488155 38.4171,110.488155 36.464475,108.535535 C34.51185,106.582912 34.51185,103.417087 36.464475,101.464465 C38.4171,99.511845 41.5829,99.511845 43.535525,101.464465" id="Fill-3" fill="#686868"></path>
                            <path d="M67.5,92.5 L12.5,92.5 C11.12,92.5 10,91.38 10,90 L10,22.5 C10,21.12 11.12,20 12.5,20 L67.5,20 C68.88,20 70,21.12 70,22.5 L70,90 C70,91.38 68.88,92.5 67.5,92.5 L67.5,92.5 Z" id="Fill-4" fill="#686868"></path>
                            <path d="M112.5,2.5 L52.5,2.5 C49.7375,2.5 47.5,4.7375 47.5,7.5 L47.5,47.5 C47.5,50.2625 49.7375,52.5 52.5,52.5 L112.5,52.5 C115.2625,52.5 117.5,50.2625 117.5,47.5 L117.5,7.5 C117.5,4.7375 115.2625,2.5 112.5,2.5 L112.5,2.5 Z" id="Fill-5" fill="#43A6DD"></path>
                            <path d="M47.5,12.5 L117.5,12.5 L117.5,25 L47.5,25 L47.5,12.5 Z" id="Fill-6" fill="#223E49"></path>
                            <path d="M55,32.5 L82.5,32.5 L82.5,40 L55,40 L55,32.5 Z" id="Fill-7" fill="#FFFFFF"></path>
                        </g>
                    </g>
                    <g transform="translate(239.000000, 854.000000)">
                        <text id="Исполнитель-выполняе" sketch:type="MSTextLayer" font-family="SF UI Display" font-size="24" font-weight="206" sketch:alignment="middle" line-spacing="42" fill="#888888">
                            <tspan x="392.304688" y="276.466391">Исполнитель выполняет работу, и затем </tspan>
                            <tspan x="468.300781" y="318.466391">отправляет ее заказчику </tspan>
                        </text>
                        <rect id="Rectangle-2-Copy-3" fill="#FBF4B1" sketch:type="MSShapeGroup" x="369.875" y="0.140136719" width="444" height="222" rx="10"></rect>
                        <g id="Line-+-Line" transform="translate(0.750000, 157.466391)" stroke="#FBF4B1" stroke-width="5" sketch:type="MSShapeGroup" stroke-linejoin="round" stroke-dasharray="18">
                            <path d="M368.530404,3.24992371 L1.66486791,3.24992371" id="Line"></path>
                            <path d="M2.02638673,1.32364798 L2.0263867,108.613686" id="Line"></path>
                        </g>
                        <g id="Imported-Layers" transform="translate(531.875000, 51.140137)" sketch:type="MSShapeGroup">
                            <path d="M95,117.5 L10,117.5 C7.2375,117.5 5,115.2625 5,112.5 L5,7.5 C5,4.7375 7.2375,2.5 10,2.5 L70,2.5 L100,32.5 L100,112.5 C100,115.2625 97.7625,117.5 95,117.5 L95,117.5 Z" id="Fill-1" fill="#E6E6E6"></path>
                            <path d="M70,2.5 L70,27.5 C70,30.2625 72.2375,32.5 75,32.5 L100,32.5 L70,2.5 L70,2.5 Z" id="Fill-3" fill="#B3B3B3"></path>
                            <path d="M105.177675,57.322325 C114.940775,67.08545 114.940775,82.91455 105.177675,92.677675 C95.41455,102.440777 79.58545,102.440777 69.822325,92.677675 C60.059225,82.91455 60.059225,67.08545 69.822325,57.322325 C79.58545,47.559225 95.41455,47.559225 105.177675,57.322325" id="Fill-4" fill="#FFFFFF"></path>
                            <path d="M87.5,102.5 C72.3375,102.5 60,90.1625 60,75 C60,59.8375 72.3375,47.5 87.5,47.5 C102.6625,47.5 115,59.8375 115,75 C115,90.1625 102.6625,102.5 87.5,102.5 L87.5,102.5 Z M87.5,52.5 C75.0925,52.5 65,62.5925 65,75 C65,87.4075 75.0925,97.5 87.5,97.5 C99.9075,97.5 110,87.4075 110,75 C110,62.5925 99.9075,52.5 87.5,52.5 L87.5,52.5 Z" id="Fill-5" fill="#43A6DD"></path>
                            <path d="M97.5,77.5 L87.5,77.5 C86.1175,77.5 85,76.3825 85,75 L85,65 C85,63.6175 86.1175,62.5 87.5,62.5 C88.8825,62.5 90,63.6175 90,65 L90,72.5 L97.5,72.5 C98.8825,72.5 100,73.6175 100,75 C100,76.3825 98.8825,77.5 97.5,77.5 L97.5,77.5 Z" id="Fill-6" fill="#444444"></path>
                        </g>
                    </g>
                    <g transform="translate(0.000000, 1120.000000)">
                        <text id="После-того,-как-Вы-у" sketch:type="MSTextLayer" font-family="SF UI Display" font-size="24" font-weight="206" sketch:alignment="middle" line-spacing="42" fill="#888888">
                            <tspan x="40.9151611" y="301">После того, как Вы убедитесь в качестве </tspan>
                            <tspan x="24.7550049" y="343">выполненной работы, исполнитель получит </tspan>
                            <tspan x="157.042114" y="385">вознаграждение  </tspan>
                        </text>
                        <rect id="Rectangle-2-Copy-4" fill="#EAEDF0" sketch:type="MSShapeGroup" x="19.8800049" y="0.0849609375" width="444" height="222" rx="10"></rect>
                        <g id="Line-+-Line" transform="translate(463.000000, 176.000000)" stroke="#EAEDF0" stroke-width="5" sketch:type="MSShapeGroup" stroke-linejoin="round" stroke-dasharray="18">
                            <path d="M1.125,2.479953 L344.5,2.479953" id="Line"></path>
                            <path d="M344,2.79003907 L344,116.479953" id="Line"></path>
                        </g>
                        <g id="Imported-Layers" transform="translate(181.880005, 51.084961)" sketch:type="MSShapeGroup">
                            <path d="M75,75 C74.2578,75 73.544925,74.6692 73.063975,74.08325 L50.563975,46.58325 C50.097675,46.01195 49.907225,45.26245 50.04395,44.53735 C50.180675,43.811025 50.6299,43.1836 51.274425,42.82105 L99.4995,15.6836 C100.471175,15.133075 101.6992,15.301525 102.492675,16.094975 C117.26075,30.86425 117.26075,54.89625 102.492675,69.665525 C102.13135,70.02685 101.667475,70.26855 101.16455,70.358875 L75.43945,74.960925 C75.292975,74.9878 75.146475,75 75,75 L75,75 Z M100.7251,67.89795 L100.749525,67.89795 L100.7251,67.89795 L100.7251,67.89795 Z" id="Fill-1" fill="#F2C7AA"></path>
                            <path d="M103.92335,68.684075 C103.913575,68.6743 103.903825,68.66455 103.89405,68.654775 L69.694825,33.669425 L62.01905,10.214825 C61.80665,9.56785 61.34035,9.035625 60.72755,8.740225 C46.254875,1.77125 28.8794,4.721675 17.507325,16.094975 C4.6289,28.9734 2.731925,49.216325 12.9956,64.228525 C13.076175,64.34815 13.16895,64.461675 13.271475,64.56545 L52.9248,105.081798 L60.03905,112.194823 C61.84815,114.003898 64.252925,115 66.811525,115 C69.367675,115 71.772475,114.0039 73.58155,112.194825 C75.5591,110.216075 76.489275,107.57935 76.369625,104.9829 C79.0747,105.1062 81.6748,104.102775 83.586425,102.1875 C85.57855,100.196725 86.509875,97.55275 86.381825,94.9707 C88.979475,95.101325 91.61375,94.158925 93.5937,92.1814 C95.570025,90.2051 96.515425,87.58065 96.38915,84.94995 C99.025875,85.05615 101.682125,84.0918 103.737775,82.03735 C107.43165,78.344725 107.51465,72.47925 103.92335,68.684075 L103.92335,68.684075 Z" id="Fill-3" fill="#C19F85"></path>
                            <path d="M60.08895,87.911675 L60.0888,87.911675 C57.325575,85.1483 52.8453,85.1483 50.081925,87.911675 C52.8453,85.1483 52.8453,80.668025 50.081925,77.90465 C47.31855,75.141275 42.838275,75.141275 40.0749,77.90465 C42.838275,75.141275 42.838275,70.661 40.0749,67.897625 C37.311525,65.13425 32.83125,65.13425 30.067875,67.897625 C32.83125,65.13425 32.83125,60.653975 30.067875,57.8906 C27.3045,55.127225 22.824225,55.127225 20.06085,57.8906 L12.5555,65.39595 C9.792125,68.159325 9.792125,72.6396 12.5555,75.402975 C15.318875,78.16635 19.79915,78.16635 22.562525,75.402975 C19.79915,78.16635 19.79915,82.646625 22.562525,85.41 C25.3259,88.173375 29.806175,88.173375 32.56955,85.41 C29.806175,88.173375 29.806175,92.65365 32.56955,95.4170225 C35.332925,98.1803975 39.8132,98.1803975 42.576575,95.4170225 C39.8132,98.1803975 39.8132,102.660673 42.576575,105.423898 L42.576575,105.424048 C45.33995,108.187422 49.820225,108.187422 52.5836,105.424048 L60.08895,97.9186975 C62.852325,95.155325 62.852325,90.67505 60.08895,87.911675 L60.08895,87.911675 Z" id="Fill-4" fill="#F2C7AA"></path>
                            <path d="M102.492675,16.094975 C87.722175,1.3257 63.6914,1.32935 48.9209,16.094975 L23.9038,41.11205 C23.4033,41.611325 23.13965,42.298575 23.173825,43.00415 C23.21045,43.709725 23.542475,44.367675 24.08935,44.81445 C24.355475,45.03295 27.761225,47.717275 33.58155,47.717275 C38.842775,47.71605 46.076675,45.521225 54.738775,37.325425 C60.44435,40.087875 79.1382,47.76365 90.749525,36.154775 C90.849625,36.0559 90.93995,35.9497 91.020525,35.83495 L102.7637,19.3103 C103.46925,18.31665 103.3545,16.956775 102.492675,16.094975 L102.492675,16.094975 Z" id="Fill-5" fill="#F2C7AA"></path>
                        </g>
                    </g>
                    <g id="В-случае,-если-заказ-+-Rectangle-2-Copy-+-Imported-Layers" transform="translate(570.000000, 1421.000000)">
                        <text id="В-случае,-если-заказ" sketch:type="MSTextLayer" font-family="SF UI Display" font-size="24" font-weight="206" sketch:alignment="middle" line-spacing="42" fill="#888888">
                            <tspan x="43.3828125" y="258.000049">В случае, если заказчику не понравится </tspan>
                            <tspan x="27.3339844" y="300.000049">качество работы, исполнитель может либо </tspan>
                            <tspan x="80.9003906" y="342.000049">переделать, либо пожаловаться </tspan>
                            <tspan x="25.0605469" y="384.000049">администратору нашего сервиса, и вопрос </tspan>
                            <tspan x="176.794922" y="426.000049">будет решен</tspan>
                        </text>
                        <rect id="Rectangle-2-Copy" fill="#C1E0F5" sketch:type="MSShapeGroup" x="15" y="0.790039062" width="444" height="222" rx="10"></rect>
                        <path d="M231.5,150.790039 L196.5,115.790039 L211.5,100.790039 L231.5,120.790039 L281.5,70.7900391 L296.5,85.7900391 L231.5,150.790039 Z" id="Imported-Layers" fill="#72C472" sketch:type="MSShapeGroup"></path>
                    </g>
                </g>
            </g>
        </g>
    </g>
</svg>