<?xml version="1.0" encoding="UTF-8" standalone="no"?>
<svg width="27px" height="33px" viewBox="0 0 27 33" version="1.1" xmlns="http://www.w3.org/2000/svg" xmlns:xlink="http://www.w3.org/1999/xlink" xmlns:sketch="http://www.bohemiancoding.com/sketch/ns">
    <!-- Generator: Sketch 3.3 (11970) - http://www.bohemiancoding.com/sketch -->
    <title>Imported Layers</title>
    <desc>Created with Sketch.</desc>
    <defs></defs>
    <g id="Welcome" stroke="none" stroke-width="1" fill="none" fill-rule="evenodd" sketch:type="MSPage">
        <g id="Desktop-HD-Copy-6" sketch:type="MSArtboardGroup" transform="translate(-1120.000000, -23.000000)">
            <g id="Rectangle-1-+-Smart-as-+-Imported-Layers" sketch:type="MSLayerGroup">
                <g id="Group" transform="translate(454.000000, 25.000000)" sketch:type="MSShapeGroup">
                    <g id="Imported-Layers" transform="translate(666.000000, 0.000000)">
                        <path d="M25,22.697001 C24.344,24.124001 24.031,24.761 23.185,26.022001 C22.008,27.783001 20.346,29.976001 18.288,29.995001 C16.459,30.0120006 15.989,28.827001 13.507,28.840001 C11.025,28.853001 10.507,30.0160006 8.678,29.999001 C6.62,29.981001 5.047,28 3.868,26.238001 C0.573,21.313001 0.229,15.534 2.261,12.462 C3.705,10.278 5.984,9.001 8.126,9.001 C10.307,9.001 11.678,10.175 13.482,10.175 C15.232,10.175 16.297,8.999 18.82,8.999 C20.726,8.999 22.746,10.018 24.185,11.779 C19.47,14.318 20.236,20.929 25,22.697001 L25,22.697001 L25,22.697001 Z" id="Fill-1" fill-opacity="0" fill="#000000"></path>
                        <path d="M25,22.697 C24.344,24.124 24.031,24.761 23.185,26.022 C22.008,27.783 20.346,29.976 18.288,29.995 C16.459,30.012 15.989,28.827 13.507,28.84 C11.025,28.853 10.507,30.016 8.678,29.999 C6.62,29.981 5.047,28 3.868,26.238 C0.573,21.313 0.229,15.534 2.261,12.462 C3.705,10.278 5.984,9.001 8.126,9.001 C10.307,9.001 11.678,10.175 13.482,10.175 C15.232,10.175 16.297,8.999001 18.82,8.999001 C20.726,8.999001 22.746,10.018 24.185,11.779 C19.47,14.318 20.236,20.929 25,22.697 L25,22.697 L25,22.697 Z" id="Stroke-3" stroke="#3F4C6B" stroke-width="2" stroke-linecap="square"></path>
                        <path d="M17.56,4.722 C18.515,3.497 19.239,1.768 18.976,0 C17.416,0.107 15.593,1.099 14.528,2.392 C13.562,3.565 12.763,5.306 13.073,6.998 C14.775,7.051 16.537,6.035 17.56,4.722 L17.56,4.722 L17.56,4.722 Z" id="Fill-4" fill-opacity="0" fill="#000000"></path>
                        <path d="M17.56,4.722 C18.515,3.497 19.239,1.768 18.976,0 C17.416,0.107 15.593,1.099 14.528,2.392 C13.562,3.565 12.763,5.306 13.073,6.998 C14.775,7.051 16.537,6.035 17.56,4.722 L17.56,4.722 L17.56,4.722 Z" id="Stroke-5" stroke="#3F4C6B" stroke-width="2" stroke-linecap="square"></path>
                    </g>
                </g>
            </g>
        </g>
    </g>
</svg>