<?xml version="1.0" encoding="UTF-8" standalone="no"?>
<svg width="201px" height="201px" viewBox="0 0 201 201" version="1.1" xmlns="http://www.w3.org/2000/svg" xmlns:xlink="http://www.w3.org/1999/xlink" xmlns:sketch="http://www.bohemiancoding.com/sketch/ns">
    <!-- Generator: Sketch 3.3 (11970) - http://www.bohemiancoding.com/sketch -->
    <title>Oval 1 Copy 4 + Imported Layers</title>
    <desc>Created with Sketch.</desc>
    <defs>
        <radialGradient cx="50%" cy="50%" fx="50%" fy="50%" r="36.4176379%" id="radialGradient-1">
            <stop stop-color="#F8F8F8" offset="0%"></stop>
            <stop stop-color="#B8F5D2" offset="100%"></stop>
        </radialGradient>
    </defs>
    <g id="Welcome" stroke="none" stroke-width="1" fill="none" fill-rule="evenodd" sketch:type="MSPage">
        <g id="Desktop-HD-Copy-6" sketch:type="MSArtboardGroup" transform="translate(-121.000000, -2554.000000)">
            <g id="Наши-преимущества-+-Мы-стараемся-быть-на-+-Group" sketch:type="MSLayerGroup" transform="translate(96.000000, 2377.000000)">
                <g id="Group" transform="translate(0.000000, 176.950095)" sketch:type="MSShapeGroup">
                    <g id="Oval-1-Copy-4-+--Цены-ниже-+-Цены-формируются,-ка">
                        <g id="Oval-1-Copy-4-+-Imported-Layers" transform="translate(25.000000, 0.000000)">
                            <circle id="Oval-1-Copy-4" fill="url(#radialGradient-1)" cx="100.5" cy="100.919927" r="100"></circle>
                            <g id="Imported-Layers" transform="translate(66.500000, 56.919927)">
                                <path d="M36.0833333,58.5833333 L2.75,58.5833333 C1.59947917,58.5833333 0.666666667,59.5161458 0.666666667,60.6666667 L0.666666667,66.9166667 C0.666666667,72.3874583 10.098625,75.25 19.4166667,75.25 C28.7347083,75.25 38.1666667,72.3874583 38.1666667,66.9166667 L38.1666667,60.6666667 C38.1666667,59.5161458 37.2338542,58.5833333 36.0833333,58.5833333 L36.0833333,58.5833333 Z" id="Fill-1" fill="#D8BC48"></path>
                                <path d="M19.4166667,52.3333333 C10.098625,52.3333333 0.666666667,55.195875 0.666666667,60.6666667 C0.666666667,66.1374583 10.098625,69 19.4166667,69 C28.7347083,69 38.1666667,66.1374583 38.1666667,60.6666667 C38.1666667,55.195875 28.7347083,52.3333333 19.4166667,52.3333333 L19.4166667,52.3333333 Z" id="Fill-3" fill="#EFD358"></path>
                                <path d="M36.0833333,48.1666667 L2.75,48.1666667 C1.59947917,48.1666667 0.666666667,49.0994792 0.666666667,50.25 L0.666666667,56.5 C0.666666667,61.9707917 10.098625,64.8333333 19.4166667,64.8333333 C28.7347083,64.8333333 38.1666667,61.9707917 38.1666667,56.5 L38.1666667,50.25 C38.1666667,49.0994792 37.2338542,48.1666667 36.0833333,48.1666667 L36.0833333,48.1666667 Z" id="Fill-4" fill="#D8BC48"></path>
                                <path d="M19.4166667,41.9166667 C10.098625,41.9166667 0.666666667,44.7792083 0.666666667,50.25 C0.666666667,55.7207917 10.098625,58.5833333 19.4166667,58.5833333 C28.7347083,58.5833333 38.1666667,55.7207917 38.1666667,50.25 C38.1666667,44.7792083 28.7347083,41.9166667 19.4166667,41.9166667 L19.4166667,41.9166667 Z" id="Fill-5" fill="#EFD358"></path>
                                <path d="M36.0833333,37.75 L2.75,37.75 C1.59947917,37.75 0.666666667,38.6828125 0.666666667,39.8333333 L0.666666667,46.0833333 C0.666666667,51.554125 10.098625,54.4166667 19.4166667,54.4166667 C28.7347083,54.4166667 38.1666667,51.554125 38.1666667,46.0833333 L38.1666667,39.8333333 C38.1666667,38.6828125 37.2338542,37.75 36.0833333,37.75 L36.0833333,37.75 Z" id="Fill-6" fill="#D8BC48"></path>
                                <path d="M19.4166667,31.5 C10.098625,31.5 0.666666667,34.3625417 0.666666667,39.8333333 C0.666666667,45.304125 10.098625,48.1666667 19.4166667,48.1666667 C28.7347083,48.1666667 38.1666667,45.304125 38.1666667,39.8333333 C38.1666667,34.3625417 28.7347083,31.5 19.4166667,31.5 L19.4166667,31.5 Z" id="Fill-7" fill="#EFD358"></path>
                                <path d="M36.0833333,27.3333333 L2.75,27.3333333 C1.59947917,27.3333333 0.666666667,28.2661458 0.666666667,29.4166667 L0.666666667,35.6666667 C0.666666667,41.1374583 10.098625,44 19.4166667,44 C28.7347083,44 38.1666667,41.1374583 38.1666667,35.6666667 L38.1666667,29.4166667 C38.1666667,28.2661458 37.2338542,27.3333333 36.0833333,27.3333333 L36.0833333,27.3333333 Z" id="Fill-8" fill="#D8BC48"></path>
                                <path d="M19.4166667,21.0833333 C10.098625,21.0833333 0.666666667,23.945875 0.666666667,29.4166667 C0.666666667,34.8874583 10.098625,37.75 19.4166667,37.75 C28.7347083,37.75 38.1666667,34.8874583 38.1666667,29.4166667 C38.1666667,23.945875 28.7347083,21.0833333 19.4166667,21.0833333 L19.4166667,21.0833333 Z" id="Fill-9" fill="#EFD358"></path>
                                <path d="M36.0833333,16.9166667 L2.75,16.9166667 C1.59947917,16.9166667 0.666666667,17.8494792 0.666666667,19 L0.666666667,25.25 C0.666666667,30.7207917 10.098625,33.5833333 19.4166667,33.5833333 C28.7347083,33.5833333 38.1666667,30.7207917 38.1666667,25.25 L38.1666667,19 C38.1666667,17.8494792 37.2338542,16.9166667 36.0833333,16.9166667 L36.0833333,16.9166667 Z" id="Fill-10" fill="#D8BC48"></path>
                                <path d="M19.4166667,10.6666667 C10.098625,10.6666667 0.666666667,13.5292083 0.666666667,19 C0.666666667,24.4707917 10.098625,27.3333333 19.4166667,27.3333333 C28.7347083,27.3333333 38.1666667,24.4707917 38.1666667,19 C38.1666667,13.5292083 28.7347083,10.6666667 19.4166667,10.6666667 L19.4166667,10.6666667 Z" id="Fill-11" fill="#EFD358"></path>
                                <path d="M36.0833333,6.5 L2.75,6.5 C1.59947917,6.5 0.666666667,7.4328125 0.666666667,8.58333333 L0.666666667,14.8333333 C0.666666667,20.304125 10.098625,23.1666667 19.4166667,23.1666667 C28.7347083,23.1666667 38.1666667,20.304125 38.1666667,14.8333333 L38.1666667,8.58333333 C38.1666667,7.4328125 37.2338542,6.5 36.0833333,6.5 L36.0833333,6.5 Z" id="Fill-12" fill="#D8BC48"></path>
                                <path d="M19.4166667,0.25 C10.098625,0.25 0.666666667,3.11254167 0.666666667,8.58333333 C0.666666667,14.054125 10.098625,16.9166667 19.4166667,16.9166667 C28.7347083,16.9166667 38.1666667,14.054125 38.1666667,8.58333333 C38.1666667,3.11254167 28.7347083,0.25 19.4166667,0.25 L19.4166667,0.25 Z" id="Fill-13" fill="#EFD358"></path>
                                <path d="M38.1666667,9.75635417 C31.0836667,11.4830208 25.6666667,15.160625 25.6666667,21.0833333 L25.6666667,27.3333333 C25.6666667,28.0372708 25.753125,28.7340833 25.9240417,29.4166667 C25.753125,30.09925 25.6666667,30.7960625 25.6666667,31.5 L25.6666667,37.75 C25.6666667,38.4539375 25.753125,39.15075 25.9240417,39.8333333 C25.753125,40.5159167 25.6666667,41.2127292 25.6666667,41.9166667 L25.6666667,48.1666667 C25.6666667,48.8706042 25.753125,49.5674167 25.9240417,50.25 C25.753125,50.9325833 25.6666667,51.6293958 25.6666667,52.3333333 L25.6666667,58.5833333 C25.6666667,59.2872708 25.753125,59.9840833 25.9240417,60.6666667 C25.753125,61.34925 25.6666667,62.0460625 25.6666667,62.75 L25.6666667,69 C25.6666667,69.7039375 25.753125,70.40075 25.9240417,71.0833333 C25.753125,71.7659167 25.6666667,72.4627292 25.6666667,73.1666667 L25.6666667,74.8022917 C32.5275208,73.8074167 38.1666667,71.14475 38.1666667,66.9166667 L38.1666667,60.6666667 C38.1666667,59.9221667 37.9783542,59.2305625 37.6530833,58.5833333 C37.9783542,57.9361042 38.1666667,57.2445 38.1666667,56.5 L38.1666667,50.25 C38.1666667,49.5055 37.9783542,48.8138958 37.6530833,48.1666667 C37.9783542,47.5194375 38.1666667,46.8278333 38.1666667,46.0833333 L38.1666667,39.8333333 C38.1666667,39.0888333 37.9783542,38.3972292 37.6530833,37.75 C37.9783542,37.1027708 38.1666667,36.4111667 38.1666667,35.6666667 L38.1666667,29.4166667 C38.1666667,28.6721667 37.9783542,27.9805625 37.6530833,27.3333333 C37.9783542,26.6861042 38.1666667,25.9945 38.1666667,25.25 L38.1666667,19 C38.1666667,18.2555 37.9783542,17.5638958 37.6530833,16.9166667 C37.9783542,16.2694375 38.1666667,15.5778333 38.1666667,14.8333333 L38.1666667,9.75635417 L38.1666667,9.75635417 Z" id="Fill-14" fill-opacity="0.1" fill="#000000"></path>
                                <path d="M65.25,71.0833333 L31.9166667,71.0833333 C30.7661458,71.0833333 29.8333333,72.0161458 29.8333333,73.1666667 L29.8333333,79.4166667 C29.8333333,84.8874583 39.2652917,87.75 48.5833333,87.75 C57.901375,87.75 67.3333333,84.8874583 67.3333333,79.4166667 L67.3333333,73.1666667 C67.3333333,72.0161458 66.4005208,71.0833333 65.25,71.0833333 L65.25,71.0833333 Z" id="Fill-15" fill="#D8BC48"></path>
                                <path d="M48.5833333,64.8333333 C39.2652917,64.8333333 29.8333333,67.695875 29.8333333,73.1666667 C29.8333333,78.6374583 39.2652917,81.5 48.5833333,81.5 C57.901375,81.5 67.3333333,78.6374583 67.3333333,73.1666667 C67.3333333,67.695875 57.901375,64.8333333 48.5833333,64.8333333 L48.5833333,64.8333333 Z" id="Fill-16" fill="#EFD358"></path>
                                <path d="M65.25,60.6666667 L31.9166667,60.6666667 C30.7661458,60.6666667 29.8333333,61.5994792 29.8333333,62.75 L29.8333333,69 C29.8333333,74.4707917 39.2652917,77.3333333 48.5833333,77.3333333 C57.901375,77.3333333 67.3333333,74.4707917 67.3333333,69 L67.3333333,62.75 C67.3333333,61.5994792 66.4005208,60.6666667 65.25,60.6666667 L65.25,60.6666667 Z" id="Fill-17" fill="#D8BC48"></path>
                                <path d="M48.5833333,54.4166667 C39.2652917,54.4166667 29.8333333,57.2792083 29.8333333,62.75 C29.8333333,68.2207917 39.2652917,71.0833333 48.5833333,71.0833333 C57.901375,71.0833333 67.3333333,68.2207917 67.3333333,62.75 C67.3333333,57.2792083 57.901375,54.4166667 48.5833333,54.4166667 L48.5833333,54.4166667 Z" id="Fill-18" fill="#EFD358"></path>
                                <path d="M65.25,50.25 L31.9166667,50.25 C30.7661458,50.25 29.8333333,51.1828125 29.8333333,52.3333333 L29.8333333,58.5833333 C29.8333333,64.054125 39.2652917,66.9166667 48.5833333,66.9166667 C57.901375,66.9166667 67.3333333,64.054125 67.3333333,58.5833333 L67.3333333,52.3333333 C67.3333333,51.1828125 66.4005208,50.25 65.25,50.25 L65.25,50.25 Z" id="Fill-19" fill="#D8BC48"></path>
                                <path d="M48.5833333,44 C39.2652917,44 29.8333333,46.8625417 29.8333333,52.3333333 C29.8333333,57.804125 39.2652917,60.6666667 48.5833333,60.6666667 C57.901375,60.6666667 67.3333333,57.804125 67.3333333,52.3333333 C67.3333333,46.8625417 57.901375,44 48.5833333,44 L48.5833333,44 Z" id="Fill-20" fill="#EFD358"></path>
                                <path d="M65.25,39.8333333 L31.9166667,39.8333333 C30.7661458,39.8333333 29.8333333,40.7661458 29.8333333,41.9166667 L29.8333333,48.1666667 C29.8333333,53.6374583 39.2652917,56.5 48.5833333,56.5 C57.901375,56.5 67.3333333,53.6374583 67.3333333,48.1666667 L67.3333333,41.9166667 C67.3333333,40.7661458 66.4005208,39.8333333 65.25,39.8333333 L65.25,39.8333333 Z" id="Fill-21" fill="#D8BC48"></path>
                                <path d="M48.5833333,33.5833333 C39.2652917,33.5833333 29.8333333,36.445875 29.8333333,41.9166667 C29.8333333,47.3874583 39.2652917,50.25 48.5833333,50.25 C57.901375,50.25 67.3333333,47.3874583 67.3333333,41.9166667 C67.3333333,36.445875 57.901375,33.5833333 48.5833333,33.5833333 L48.5833333,33.5833333 Z" id="Fill-22" fill="#EFD358"></path>
                                <path d="M65.25,29.4166667 L31.9166667,29.4166667 C30.7661458,29.4166667 29.8333333,30.3494792 29.8333333,31.5 L29.8333333,37.75 C29.8333333,43.2207917 39.2652917,46.0833333 48.5833333,46.0833333 C57.901375,46.0833333 67.3333333,43.2207917 67.3333333,37.75 L67.3333333,31.5 C67.3333333,30.3494792 66.4005208,29.4166667 65.25,29.4166667 L65.25,29.4166667 Z" id="Fill-23" fill="#D8BC48"></path>
                                <path d="M48.5833333,23.1666667 C39.2652917,23.1666667 29.8333333,26.0292083 29.8333333,31.5 C29.8333333,36.9707917 39.2652917,39.8333333 48.5833333,39.8333333 C57.901375,39.8333333 67.3333333,36.9707917 67.3333333,31.5 C67.3333333,26.0292083 57.901375,23.1666667 48.5833333,23.1666667 L48.5833333,23.1666667 Z" id="Fill-24" fill="#EFD358"></path>
                                <path d="M31.9166667,19 C30.7661458,19 29.8333333,19.9328125 29.8333333,21.0833333 L29.8333333,27.3333333 C29.8333333,32.804125 39.2652917,35.6666667 48.5833333,35.6666667 C57.901375,35.6666667 67.3333333,32.804125 67.3333333,27.3333333 L67.3333333,21.0833333 C67.3333333,19.9328125 66.4005208,19 65.25,19 L31.9166667,19 Z" id="Fill-25" fill="#D8BC48"></path>
                                <path d="M48.5833333,12.75 C39.2652917,12.75 29.8333333,15.6125417 29.8333333,21.0833333 C29.8333333,26.554125 39.2652917,29.4166667 48.5833333,29.4166667 C57.901375,29.4166667 67.3333333,26.554125 67.3333333,21.0833333 C67.3333333,15.6125417 57.901375,12.75 48.5833333,12.75 L48.5833333,12.75 Z" id="Fill-26" fill="#EFD358"></path>
                            </g>
                        </g>
                    </g>
                </g>
            </g>
        </g>
    </g>
</svg>