<?xml version="1.0" encoding="UTF-8" standalone="no"?>
<svg width="29px" height="32px" viewBox="0 0 29 32" version="1.1" xmlns="http://www.w3.org/2000/svg" xmlns:xlink="http://www.w3.org/1999/xlink" xmlns:sketch="http://www.bohemiancoding.com/sketch/ns">
    <!-- Generator: Sketch 3.3 (11970) - http://www.bohemiancoding.com/sketch -->
    <title>Imported Layers</title>
    <desc>Created with Sketch.</desc>
    <defs></defs>
    <g id="Welcome" stroke="none" stroke-width="1" fill="none" fill-rule="evenodd" sketch:type="MSPage">
        <g id="Desktop-HD-Copy-2" sketch:type="MSArtboardGroup" transform="translate(-1342.000000, -34.000000)">
            <g id="Group-+-Group" sketch:type="MSLayerGroup" transform="translate(-3.000000, 0.000000)">
                <g id="Group" transform="translate(3.000000, 0.000000)" sketch:type="MSShapeGroup">
                    <g id="Imported-Layers" transform="translate(1343.000000, 34.911765)">
                        <path d="M13.5,15.0882353 L13.5,15.0882353 C9.84573529,15.0882353 6.88235294,12.1248529 6.88235294,8.47058824 L6.88235294,7.14705882 C6.88235294,3.49279412 9.84573529,0.529411765 13.5,0.529411765 L13.5,0.529411765 C17.1542647,0.529411765 20.1176471,3.49279412 20.1176471,7.14705882 L20.1176471,8.47058824 C20.1176471,12.1248529 17.1542647,15.0882353 13.5,15.0882353 L13.5,15.0882353 Z" id="Fill-1" fill-opacity="0" fill="#000000"></path>
                        <path d="M13.5,15.0882353 L13.5,15.0882353 C9.84573529,15.0882353 6.88235294,12.1248529 6.88235294,8.47058824 L6.88235294,7.14705882 C6.88235294,3.49279412 9.84573529,0.529411765 13.5,0.529411765 L13.5,0.529411765 C17.1542647,0.529411765 20.1176471,3.49279412 20.1176471,7.14705882 L20.1176471,8.47058824 C20.1176471,12.1248529 17.1542647,15.0882353 13.5,15.0882353 L13.5,15.0882353 Z" id="Stroke-3" stroke="#FFFFFF" stroke-width="2" stroke-linecap="square"></path>
                        <path d="M26.7352941,26.8782366 C26.7352941,24.4958837 25.1510294,22.4007366 22.8520588,21.7747072 C20.3452941,21.0904412 16.9226471,20.3823529 13.5,20.3823529 C10.0773529,20.3823529 6.65470588,21.0904412 4.14794118,21.7747059 C1.84897059,22.4007353 0.264705882,24.4958824 0.264705882,26.8782366 L0.264705882,29.6470588 L26.7352941,29.6470588 L26.7352941,26.8782366 L26.7352941,26.8782366 Z" id="Fill-4" fill-opacity="0" fill="#000000"></path>
                        <path d="M26.7352941,26.8782353 C26.7352941,24.4958824 25.1510294,22.4007353 22.8520588,21.7747059 C20.3452941,21.0904412 16.9226471,20.3823529 13.5,20.3823529 C10.0773529,20.3823529 6.65470588,21.0904412 4.14794118,21.7747059 C1.84897059,22.4007353 0.264705882,24.4958824 0.264705882,26.8782353 L0.264705882,29.6470588 L26.7352941,29.6470588 L26.7352941,26.8782353 L26.7352941,26.8782353 Z" id="Stroke-5" stroke="#FFFFFF" stroke-width="2" stroke-linecap="square"></path>
                    </g>
                </g>
            </g>
        </g>
    </g>
</svg>