<?xml version="1.0" encoding="UTF-8" standalone="no"?>
<svg width="17px" height="17px" viewBox="0 0 17 17" version="1.1" xmlns="http://www.w3.org/2000/svg" xmlns:xlink="http://www.w3.org/1999/xlink" xmlns:sketch="http://www.bohemiancoding.com/sketch/ns">
    <!-- Generator: Sketch 3.3 (11970) - http://www.bohemiancoding.com/sketch -->
    <title>Imported Layers</title>
    <desc>Created with Sketch.</desc>
    <defs></defs>
    <g id="Welcome" stroke="none" stroke-width="1" fill="none" fill-rule="evenodd" sketch:type="MSPage">
        <g id="Desktop-HD-Copy-7" sketch:type="MSArtboardGroup" transform="translate(-595.000000, -379.000000)">
            <g id="Imported-Layers" sketch:type="MSLayerGroup" transform="translate(595.000000, 379.000000)">
                <path d="M3.66666667,5.73333333 L1,7.66666667 L1,15.6666667 L15.6666667,15.6666667 L15.6666667,7.66666667 L13,5.73333333" id="Fill-1" fill-opacity="0" fill="#000000" sketch:type="MSShapeGroup"></path>
                <path d="M3.66666667,5.73333333 L1,7.66666667 L1,15.6666667 L15.6666667,15.6666667 L15.6666667,7.66666667 L13,5.73333333" id="Stroke-3" stroke="#FFFFFF" sketch:type="MSShapeGroup"></path>
                <path d="M3.66666667,9.13333333 L3.66666667,1 L13,1 L13,9.13333333" id="Fill-4" fill-opacity="0" fill="#000000" sketch:type="MSShapeGroup"></path>
                <path d="M3.66666667,9.13333333 L3.66666667,1 L13,1 L13,9.13333333" id="Stroke-5" stroke="#FFFFFF" sketch:type="MSShapeGroup"></path>
                <path d="M1,7.66666667 L15.6666667,15.6666667" id="Fill-6" fill-opacity="0" fill="#000000" sketch:type="MSShapeGroup"></path>
                <path d="M1,7.66666667 L15.6666667,15.6666667" id="Stroke-7" stroke="#FFFFFF" sketch:type="MSShapeGroup"></path>
                <path d="M15.6666667,7.66666667 L8.33333333,11.6666667" id="Fill-8" fill-opacity="0" fill="#000000" sketch:type="MSShapeGroup"></path>
                <path d="M15.6666667,7.66666667 L8.33333333,11.6666667" id="Stroke-9" stroke="#FFFFFF" sketch:type="MSShapeGroup"></path>
                <path d="M6.33333333,4.33333333 L10.3333333,4.33333333" id="Fill-10" fill-opacity="0" fill="#000000" sketch:type="MSShapeGroup"></path>
                <path d="M6.33333333,4.33333333 L10.3333333,4.33333333" id="Stroke-11" stroke="#FFFFFF" stroke-linecap="square" sketch:type="MSShapeGroup"></path>
                <path d="M6.33333333,7 L10.3333333,7" id="Fill-12" fill-opacity="0" fill="#000000" sketch:type="MSShapeGroup"></path>
                <path d="M6.33333333,7 L10.3333333,7" id="Stroke-13" stroke="#FFFFFF" stroke-linecap="square" sketch:type="MSShapeGroup"></path>
            </g>
        </g>
    </g>
</svg>