<?xml version="1.0" encoding="UTF-8" standalone="no"?>
<svg width="61px" height="63px" viewBox="0 0 61 63" version="1.1" xmlns="http://www.w3.org/2000/svg" xmlns:xlink="http://www.w3.org/1999/xlink" xmlns:sketch="http://www.bohemiancoding.com/sketch/ns">
    <!-- Generator: Sketch 3.3 (11970) - http://www.bohemiancoding.com/sketch -->
    <title>Imported Layers</title>
    <desc>Created with Sketch.</desc>
    <defs></defs>
    <g id="Welcome" stroke="none" stroke-width="1" fill="none" fill-rule="evenodd" sketch:type="MSPage">
        <g id="Desktop-HD" sketch:type="MSArtboardGroup" transform="translate(-1105.000000, -278.000000)">
            <g id="Rectangle-48-Copy-+-Imported-Layers-+-Rectangle-48-+-Imported-Layers" sketch:type="MSLayerGroup" transform="translate(1058.000000, 232.000000)">
                <g id="Rectangle-48-+-Imported-Layers" sketch:type="MSShapeGroup">
                    <g id="Imported-Layers" transform="translate(48.500000, 47.500000)">
                        <path d="M23.9,38.6 C23.9,39.6 23.6,40.4 23,40.9 C22.4,41.4 21.5,41.7 20.3,41.7 L19.5,41.7 L19.5,45 L17.5,45 L17.5,35.7 L20.5,35.7 C21.6,35.7 22.5,35.9 23.1,36.4 C23.6,36.9 23.9,37.7 23.9,38.6 L23.9,38.6 Z M19.4,40.1 L20,40.1 C20.6,40.1 21.1,40 21.4,39.7 C21.7,39.4 21.9,39.1 21.9,38.7 C21.9,38.2 21.8,37.9 21.5,37.7 C21.2,37.5 20.9,37.4 20.3,37.4 L19.4,37.4 L19.4,40.1 L19.4,40.1 Z" id="Fill-1" fill="#606C88"></path>
                        <path d="M33.6,40.3 C33.6,41.8 33.2,43 32.3,43.8 C31.4,44.6 30.2,45 28.5,45 L25.9,45 L25.9,35.7 L28.8,35.7 C30.3,35.7 31.5,36.1 32.3,36.9 C33.2,37.7 33.6,38.8 33.6,40.3 L33.6,40.3 Z M31.5,40.3 C31.5,38.3 30.6,37.3 28.9,37.3 L27.9,37.3 L27.9,43.3 L28.7,43.3 C30.6,43.4 31.5,42.4 31.5,40.3 L31.5,40.3 Z" id="Fill-3" fill="#606C88"></path>
                        <path d="M37.7,45 L35.8,45 L35.8,35.7 L41.1,35.7 L41.1,37.3 L37.7,37.3 L37.7,39.7 L40.8,39.7 L40.8,41.3 L37.7,41.3 L37.7,45 L37.7,45 Z" id="Fill-4" fill="#606C88"></path>
                        <path d="M37,0 L37,16 L53,16" id="Fill-5" fill-opacity="0" fill="#000000"></path>
                        <path d="M37,0 L37,16 L53,16" id="Stroke-6" stroke="#606C88" stroke-width="2"></path>
                        <path d="M53,30 L53,16 L37,0 L5,0 L5,30" id="Fill-7" fill-opacity="0" fill="#000000"></path>
                        <path d="M53,30 L53,16 L37,0 L5,0 L5,30" id="Stroke-8" stroke="#606C88" stroke-width="2" stroke-linecap="square"></path>
                        <path d="M5,51 L5,60 L53,60 L53,51" id="Fill-9" fill-opacity="0" fill="#000000"></path>
                        <path d="M5,51 L5,60 L53,60 L53,51" id="Stroke-10" stroke="#606C88" stroke-width="2" stroke-linecap="square"></path>
                        <path d="M58,30 L0,30" id="Fill-11" fill-opacity="0" fill="#000000"></path>
                        <path d="M58,30 L0,30" id="Stroke-12" stroke="#606C88" stroke-width="2"></path>
                        <path d="M5,25 L0,30 L0,51 L58,51 L58,30 L53,25" id="Fill-13" fill-opacity="0" fill="#000000"></path>
                        <path d="M5,25 L0,30 L0,51 L58,51 L58,30 L53,25" id="Stroke-14" stroke="#606C88" stroke-width="2"></path>
                    </g>
                </g>
            </g>
        </g>
    </g>
</svg>