<?xml version="1.0" encoding="UTF-8" standalone="no"?>
<svg width="76px" height="86px" viewBox="0 0 76 86" version="1.1" xmlns="http://www.w3.org/2000/svg" xmlns:xlink="http://www.w3.org/1999/xlink" xmlns:sketch="http://www.bohemiancoding.com/sketch/ns">
    <!-- Generator: Sketch 3.3 (11970) - http://www.bohemiancoding.com/sketch -->
    <title>Imported Layers</title>
    <desc>Created with Sketch.</desc>
    <defs></defs>
    <g id="Welcome" stroke="none" stroke-width="1" fill="none" fill-rule="evenodd" sketch:type="MSPage">
        <g id="Desktop-HD-Copy-6" sketch:type="MSArtboardGroup" transform="translate(-982.000000, -289.000000)">
            <g id="Imported-Layers" sketch:type="MSLayerGroup" transform="translate(982.500000, 289.000000)">
                <path d="M3.0859375,84.8671875 L71.3359375,84.8671875" id="Fill-1" fill-opacity="0" fill="#000000" sketch:type="MSShapeGroup"></path>
                <path d="M3.0859375,84.8671875 L71.3359375,84.8671875" id="Stroke-3" stroke="#FFFFFF" stroke-linecap="square" sketch:type="MSShapeGroup"></path>
                <path d="M42.8984375,45.0546875 L28.6796875,30.8359375 L55.6953125,3.8203125 C59.6765625,-0.1609375 65.9328125,-0.1609375 69.9140625,3.8203125 L69.9140625,3.8203125 C73.8953125,7.8015625 73.8953125,14.0578125 69.9140625,18.0390625 L42.8984375,45.0546875 L42.8984375,45.0546875 Z" id="Fill-4" fill-opacity="0" fill="#000000" sketch:type="MSShapeGroup"></path>
                <path d="M42.8984375,45.0546875 L28.6796875,30.8359375 L55.6953125,3.8203125 C59.6765625,-0.1609375 65.9328125,-0.1609375 69.9140625,3.8203125 L69.9140625,3.8203125 C73.8953125,7.8015625 73.8953125,14.0578125 69.9140625,18.0390625 L42.8984375,45.0546875 L42.8984375,45.0546875 Z" id="Stroke-5" stroke="#FFFFFF" stroke-linecap="square" sketch:type="MSShapeGroup"></path>
                <path d="M8.7734375,56.4296875 L31.5234375,33.6796875" id="Fill-6" fill-opacity="0" fill="#000000" sketch:type="MSShapeGroup"></path>
                <path d="M8.7734375,56.4296875 L31.5234375,33.6796875" id="Stroke-7" stroke="#FFFFFF" sketch:type="MSShapeGroup"></path>
                <path d="M40.0546875,42.2109375 L17.3046875,64.9609375" id="Fill-8" fill-opacity="0" fill="#000000" sketch:type="MSShapeGroup"></path>
                <path d="M40.0546875,42.2109375 L17.3046875,64.9609375" id="Stroke-9" stroke="#FFFFFF" sketch:type="MSShapeGroup"></path>
                <path d="M8.7734375,56.4296875 L4.5078125,60.6953125 C2.090625,63.1125 2.090625,66.809375 4.5078125,69.2265625 L4.5078125,69.2265625 C6.925,71.64375 10.621875,71.64375 13.0390625,69.2265625 L17.3046875,64.9609375 L8.7734375,56.4296875 L8.7734375,56.4296875 Z" id="Fill-10" fill-opacity="0" fill="#000000" sketch:type="MSShapeGroup"></path>
                <path d="M8.7734375,56.4296875 L4.5078125,60.6953125 C2.090625,63.1125 2.090625,66.809375 4.5078125,69.2265625 L4.5078125,69.2265625 C6.925,71.64375 10.621875,71.64375 13.0390625,69.2265625 L17.3046875,64.9609375 L8.7734375,56.4296875 L8.7734375,56.4296875 Z" id="Stroke-11" stroke="#FFFFFF" stroke-linecap="square" sketch:type="MSShapeGroup"></path>
                <path d="M4.5078125,69.2265625 L0.2421875,73.4921875" id="Fill-12" fill-opacity="0" fill="#000000" sketch:type="MSShapeGroup"></path>
                <path d="M4.5078125,69.2265625 L0.2421875,73.4921875" id="Stroke-13" stroke="#FFFFFF" stroke-linecap="square" sketch:type="MSShapeGroup"></path>
                <path d="M57.1171875,42.2109375 L74.1796875,25.1484375 L68.4921875,19.4609375" id="Fill-14" fill-opacity="0" fill="#000000" sketch:type="MSShapeGroup"></path>
                <path d="M57.1171875,42.2109375 L74.1796875,25.1484375 L68.4921875,19.4609375" id="Stroke-15" stroke="#FFFFFF" stroke-linecap="square" sketch:type="MSShapeGroup"></path>
            </g>
        </g>
    </g>
</svg>