<?xml version="1.0" encoding="UTF-8" standalone="no"?>
<svg width="96px" height="93px" viewBox="0 0 96 93" version="1.1" xmlns="http://www.w3.org/2000/svg" xmlns:xlink="http://www.w3.org/1999/xlink" xmlns:sketch="http://www.bohemiancoding.com/sketch/ns">
    <!-- Generator: Sketch 3.3 (11970) - http://www.bohemiancoding.com/sketch -->
    <title>Imported Layers</title>
    <desc>Created with Sketch.</desc>
    <defs></defs>
    <g id="Welcome" stroke="none" stroke-width="1" fill="none" fill-rule="evenodd" sketch:type="MSPage">
        <g id="Desktop-HD-Copy-6" sketch:type="MSArtboardGroup" transform="translate(-372.000000, -284.000000)">
            <g id="Imported-Layers" sketch:type="MSLayerGroup" transform="translate(372.000000, 285.000000)">
                <path d="M60.660375,2.777125 C64.3215469,6.43829687 64.3215469,12.3742031 60.660375,16.035375 C56.9992031,19.6965469 51.0632969,19.6965469 47.402125,16.035375 C43.7409531,12.3742031 43.7409531,6.43829687 47.402125,2.777125 C51.0632969,-0.884046875 56.9992031,-0.884046875 60.660375,2.777125" id="Fill-1" fill-opacity="0" fill="#000000" sketch:type="MSShapeGroup"></path>
                <path d="M60.660375,2.77712344 C64.3215469,6.43828906 64.3215469,12.3742031 60.660375,16.035375 C56.9992031,19.6965469 51.0632969,19.6965469 47.402125,16.035375 C43.7409531,12.3742031 43.7409531,6.43828906 47.402125,2.77712344 C51.0632969,-0.884040625 56.9992031,-0.884040625 60.660375,2.77712344" id="Stroke-3" stroke="#FFFFFF" stroke-linecap="square" sketch:type="MSShapeGroup"></path>
                <path d="M44.65625,37.53125 L63.40625,37.53125" id="Fill-4" fill-opacity="0" fill="#000000" sketch:type="MSShapeGroup"></path>
                <path d="M44.65625,37.53125 L63.40625,37.53125" id="Stroke-5" stroke="#FFFFFF" stroke-linecap="square" sketch:type="MSShapeGroup"></path>
                <path d="M87.9375,55.65625 C92,55.03125 94.65625,52.0625 94.65625,47.21875 C94.65625,41.75 90.4375,40.8125 90.4375,40.8125" id="Fill-6" fill-opacity="0" fill="#000000" sketch:type="MSShapeGroup"></path>
                <path d="M87.9375,55.65625 C92,55.03125 94.65625,52.0625 94.65625,47.21875 C94.65625,41.75 90.4375,40.8125 90.4375,40.8125" id="Stroke-7" stroke="#FFFFFF" sketch:type="MSShapeGroup"></path>
                <path d="M30.7833125,45.1541875 C32.6138906,46.9847656 32.6138906,49.9527344 30.7833125,51.7833125 C28.9527344,53.6138906 25.9847656,53.6138906 24.1541875,51.7833125 C22.3236094,49.9527344 22.3236094,46.9847656 24.1541875,45.1541875 C25.9847656,43.3236094 28.9527344,43.3236094 30.7833125,45.1541875" id="Fill-8" fill-opacity="0" fill="#000000" sketch:type="MSShapeGroup"></path>
                <path d="M30.7833125,45.1541875 C32.6138906,46.9847656 32.6138906,49.9527344 30.7833125,51.7833125 C28.9527344,53.6138906 25.9847656,53.6138906 24.1541875,51.7833125 C22.3236094,49.9527344 22.3236094,46.9847656 24.1541875,45.1541875 C25.9847656,43.3236094 28.9527344,43.3236094 30.7833125,45.1541875" id="Stroke-9" stroke="#FFFFFF" stroke-linecap="square" sketch:type="MSShapeGroup"></path>
                <path d="M57.15625,81.28125 L57.15625,90.65625 L72.78125,90.65625 L72.78125,78.9375 C82,74.71875 88.40625,65.5 88.40625,54.71875 C88.40625,40.03125 76.53125,28.15625 61.84375,28.15625 L36.84375,28.15625 C29.34375,14.875 16.53125,18.78125 16.53125,18.78125 L21.375,33.15625 C16.6875,36.4375 13.25,41.28125 11.53125,46.90625 L0.90625,46.90625 L0.90625,68.78125 L14.34375,68.78125 C17.15625,73.15625 21.0625,76.75 25.90625,78.9375 L25.90625,90.65625 L41.53125,90.65625 L41.53125,81.28125" id="Fill-10" fill-opacity="0" fill="#000000" sketch:type="MSShapeGroup"></path>
                <path d="M57.15625,81.28125 L57.15625,90.65625 L72.78125,90.65625 L72.78125,78.9375 C82,74.71875 88.40625,65.5 88.40625,54.71875 C88.40625,40.03125 76.53125,28.15625 61.84375,28.15625 L36.84375,28.15625 C29.34375,14.875 16.53125,18.78125 16.53125,18.78125 L21.375,33.15625 C16.6875,36.4375 13.25,41.28125 11.53125,46.90625 L0.90625,46.90625 L0.90625,68.78125 L14.34375,68.78125 C17.15625,73.15625 21.0625,76.75 25.90625,78.9375 L25.90625,90.65625 L41.53125,90.65625 L41.53125,81.28125" id="Stroke-11" stroke="#FFFFFF" stroke-linecap="square" sketch:type="MSShapeGroup"></path>
                <path d="M38.40625,81.28125 L60.28125,81.28125" id="Fill-12" fill-opacity="0" fill="#000000" sketch:type="MSShapeGroup"></path>
                <path d="M38.40625,81.28125 L60.28125,81.28125" id="Stroke-13" stroke="#FFFFFF" stroke-linecap="square" sketch:type="MSShapeGroup"></path>
            </g>
        </g>
    </g>
</svg>