<?xml version="1.0" encoding="UTF-8" standalone="no"?>
<svg width="30px" height="28px" viewBox="0 0 30 28" version="1.1" xmlns="http://www.w3.org/2000/svg" xmlns:xlink="http://www.w3.org/1999/xlink" xmlns:sketch="http://www.bohemiancoding.com/sketch/ns">
    <!-- Generator: Sketch 3.3 (11970) - http://www.bohemiancoding.com/sketch -->
    <title>Imported Layers</title>
    <desc>Created with Sketch.</desc>
    <defs></defs>
    <g id="Welcome" stroke="none" stroke-width="1" fill="none" fill-rule="evenodd" sketch:type="MSPage">
        <g id="Desktop-HD" sketch:type="MSArtboardGroup" transform="translate(-469.000000, -244.000000)">
            <g id="Group" sketch:type="MSLayerGroup" transform="translate(457.000000, 232.000000)">
                <g id="Group-Copy-11-+-Rectangle-101-+-Imported-Layers" transform="translate(1.000000, 0.000000)" sketch:type="MSShapeGroup">
                    <g id="Imported-Layers" transform="translate(11.000000, 12.000000)">
                        <path d="M28.5,10.55 L28.5,21.5" id="Fill-1" fill-opacity="0" fill="#000000"></path>
                        <path d="M28,10.55 L28,21.5" id="Stroke-3" stroke="#3F4C6B"></path>
                        <path d="M6,13.7 L6,23 C6,25.475 10.05,27.5 15,27.5 C19.95,27.5 24,25.475 24,23 L24,13.7" id="Fill-4" fill-opacity="0" fill="#000000"></path>
                        <path d="M6,13.7 L6,23 C6,25.475 10.05,27.5 15,27.5 C19.95,27.5 24,25.475 24,23 L24,13.7" id="Stroke-5" stroke="#3F4C6B"></path>
                        <path d="M15,20 L0,9.5 L15,0.5 L30,9.5 L15,20 Z" id="Fill-6" fill-opacity="0" fill="#000000"></path>
                        <path d="M15,20 L0,9.5 L15,0.5 L30,9.5 L15,20 Z" id="Stroke-7" stroke="#3F4C6B" stroke-linecap="square"></path>
                    </g>
                </g>
            </g>
        </g>
    </g>
</svg>