<?xml version="1.0" encoding="UTF-8" standalone="no"?>
<svg width="320px" height="568px" viewBox="0 0 320 568" version="1.1" xmlns="http://www.w3.org/2000/svg" xmlns:xlink="http://www.w3.org/1999/xlink" xmlns:sketch="http://www.bohemiancoding.com/sketch/ns">
    <!-- Generator: Sketch 3.3 (11970) - http://www.bohemiancoding.com/sketch -->
    <title>Group</title>
    <desc>Created with Sketch.</desc>
    <defs></defs>
    <g id="Elements" stroke="none" stroke-width="1" fill="none" fill-rule="evenodd" sketch:type="MSPage">
        <g id="iPhone-5/5S/5C-Copy-14" sketch:type="MSArtboardGroup">
            <g id="Group" sketch:type="MSLayerGroup">
                <rect id="Rectangle-457" fill="#F6F6F6" sketch:type="MSShapeGroup" x="0" y="0" width="320" height="568"></rect>
                <text id="Аналитическая-геомет" sketch:type="MSTextLayer" font-family="Helvetica Neue" font-size="18" font-weight="260" fill="#3A3942">
                    <tspan x="57" y="44">Аналитическая геометрия</tspan>
                </text>
                <g id="Status-Bar-White-Copy-4" fill="#030303">
                    <path d="M7.89333333,13 C9.18936155,13 10.24,11.7687831 10.24,10.25 C10.24,8.73121694 9.18936155,7.5 7.89333333,7.5 C6.59730512,7.5 5.54666667,8.73121694 5.54666667,10.25 C5.54666667,11.7687831 6.59730512,13 7.89333333,13 Z M13.8666667,13 C15.1626949,13 16.2133333,11.7687831 16.2133333,10.25 C16.2133333,8.73121694 15.1626949,7.5 13.8666667,7.5 C12.5706385,7.5 11.52,8.73121694 11.52,10.25 C11.52,11.7687831 12.5706385,13 13.8666667,13 Z M19.84,13 C21.1360282,13 22.1866667,11.7687831 22.1866667,10.25 C22.1866667,8.73121694 21.1360282,7.5 19.84,7.5 C18.5439718,7.5 17.4933333,8.73121694 17.4933333,10.25 C17.4933333,11.7687831 18.5439718,13 19.84,13 Z M25.8133333,13 C27.1093615,13 28.16,11.7687831 28.16,10.25 C28.16,8.73121694 27.1093615,7.5 25.8133333,7.5 C24.5173051,7.5 23.4666667,8.73121694 23.4666667,10.25 C23.4666667,11.7687831 24.5173051,13 25.8133333,13 Z M25.8133333,12.5 C26.8737201,12.5 27.7333333,11.4926407 27.7333333,10.25 C27.7333333,9.00735931 26.8737201,8 25.8133333,8 C24.7529466,8 23.8933333,9.00735931 23.8933333,10.25 C23.8933333,11.4926407 24.7529466,12.5 25.8133333,12.5 Z M31.7866667,13 C33.0826949,13 34.1333333,11.7687831 34.1333333,10.25 C34.1333333,8.73121694 33.0826949,7.5 31.7866667,7.5 C30.4906385,7.5 29.44,8.73121694 29.44,10.25 C29.44,11.7687831 30.4906385,13 31.7866667,13 Z M31.7866667,12.5 C32.8470534,12.5 33.7066667,11.4926407 33.7066667,10.25 C33.7066667,9.00735931 32.8470534,8 31.7866667,8 C30.7262799,8 29.8666667,9.00735931 29.8666667,10.25 C29.8666667,11.4926407 30.7262799,12.5 31.7866667,12.5 Z" id="Mobile-Signal" sketch:type="MSShapeGroup"></path>
                    <text id="Carrier" sketch:type="MSTextLayer" font-family="Helvetica Neue" font-size="10.24" font-weight="normal" letter-spacing="0.200000003">
                        <tspan x="37.5466667" y="13.5">Sketch</tspan>
                    </text>
                    <path d="M82.0432391,12.4385043 C81.6011724,11.8454456 80.9406819,11.4689119 80.2027205,11.4689119 C79.4786195,11.4689119 78.8291067,11.8314341 78.387341,12.4053177 L80.2325667,14.5 L82.0432391,12.4385043 Z M83.9027169,10.3214425 C82.9822117,9.19174563 81.6652277,8.48445596 80.2027205,8.48445596 C78.752659,8.48445596 77.4456545,9.17975893 76.5263102,10.2926936 L77.4564682,11.3486 C78.1373482,10.5053708 79.1156463,9.97668394 80.2027205,9.97668394 C81.3029407,9.97668394 82.291738,10.518235 82.9735437,11.3793293 L83.9027169,10.3214425 L83.9027169,10.3214425 Z M85.76,8.20687933 C84.3630573,6.53943672 82.3898197,5.5 80.2027205,5.5 C78.0266755,5.5 76.0623357,6.52895605 74.6666667,8.18164431 L75.5964228,9.23709441 C76.7539881,7.85431655 78.389668,6.99222798 80.2027205,6.99222798 C82.0275222,6.99222798 83.672645,7.86552609 84.8314622,9.26404272 L85.76,8.20687933 Z" id="Wi-Fi" sketch:type="MSShapeGroup"></path>
                    <text id="9:41-AM" sketch:type="MSTextLayer" font-family="Helvetica Neue" font-size="10.24" font-weight="normal" sketch:alignment="middle" letter-spacing="0.100000001">
                        <tspan x="140.059173" y="13.5">9:41 AM</tspan>
                    </text>
                    <text id="100%" sketch:type="MSTextLayer" font-family="Helvetica Neue" font-size="10.24" font-weight="normal" sketch:alignment="right">
                        <tspan x="264.51968" y="13.5">100%</tspan>
                    </text>
                    <path d="M295.906592,5.5 C295.074524,5.5 294.4,6.16802155 294.4,7.00530324 L294.4,13.4946968 C294.4,14.3260528 295.07208,15 295.906592,15 L312.093408,15 C312.925476,15 313.6,14.3319784 313.6,13.4946968 L313.6,7.00530324 C313.6,6.17394722 312.92792,5.5 312.093408,5.5 L295.906592,5.5 Z M314.026667,8.5 L314.026667,12 L314.666667,12 C315.020129,12 315.306667,11.7135803 315.306667,11.3580461 L315.306667,9.14195395 C315.306667,8.78741257 315.022593,8.5 314.666667,8.5 L314.026667,8.5 Z M295.826092,6 C295.274125,6 294.826667,6.45699692 294.826667,7.00844055 L294.826667,13.4915594 C294.826667,14.0485058 295.280182,14.5 295.826092,14.5 L312.173908,14.5 C312.725875,14.5 313.173333,14.0430031 313.173333,13.4915594 L313.173333,7.00844055 C313.173333,6.45149422 312.719818,6 312.173908,6 L295.826092,6 Z M295.758009,6.5 C295.479284,6.5 295.253333,6.71637201 295.253333,6.99209595 L295.253333,13.5079041 C295.253333,13.7796811 295.474514,14 295.758009,14 L312.241991,14 C312.520716,14 312.746667,13.783628 312.746667,13.5079041 L312.746667,6.99209595 C312.746667,6.72031886 312.525486,6.5 312.241991,6.5 L295.758009,6.5 Z" id="Battery" sketch:type="MSShapeGroup"></path>
                </g>
                <rect id="Rectangle-239" stroke="#3A3942" stroke-width="0.1" sketch:type="MSShapeGroup" x="0" y="524" width="320" height="44"></rect>
                <g id="Line-+-Line" transform="translate(14.000000, 535.000000)" stroke="#3A3942" stroke-width="0.5" stroke-linecap="square" sketch:type="MSShapeGroup">
                    <path d="M9.66666667,0.666666667 L9.66666667,19.3333333" id="Line"></path>
                    <path d="M0.666666667,9.66666667 L19.3333333,9.66666667" id="Line"></path>
                </g>
                <text id="location-arrow---fontawesome" stroke="#3A3942" fill-opacity="0" fill="#D8D8D8" sketch:type="MSTextLayer" font-family="FontAwesome" font-size="24" font-weight="normal">
                    <tspan x="284" y="554" fill="#3A3942"></tspan>
                </text>
                <g id="Oval-295-+-Rectangle-240" transform="translate(182.000000, 187.000000)">
                    <path d="M109.154531,26.3627573 C111.063592,28.3032944 117.180995,29.906037 120.268613,29.906037 C124.403693,29.906037 123.339254,30.6454734 120.413656,27.9757346 C120.413656,27.9757346 119.256125,26.8308362 118.940512,26.3627576 C118.624899,25.894679 118.065939,24.852992 117.867575,24.1662854 C117.817705,23.9936427 117.718429,23.8523743 117.667969,23.6902462 C117.517718,23.2074912 117.424327,22.749565 117.361777,22.3988904 C117.27822,21.9304456 117.036051,18.6346128 117.036051,18.0207671 C117.036051,17.4069214 116.938965,15.2464377 117.036051,14.9971313 C117.133136,14.747825 115.073539,22.4411348 115.073539,21.8807111 C115.073539,19.5127313 112.718119,17.3874576 113.244385,16.3468018 C113.882502,15.0849674 117.195905,15.1699881 114.040277,15.1699881 C108.28215,15.1699881 109.842601,15.1803008 109.842601,20.4195454 C109.842601,22.8494068 107.503366,24.6843691 109.154531,26.3627573 Z" id="Oval-295" fill="#38BC9C" sketch:type="MSShapeGroup"></path>
                    <rect id="Rectangle-240" fill="#38BC9C" sketch:type="MSShapeGroup" x="39" y="0" width="78" height="30" rx="15"></rect>
                    <text id="Привет" sketch:type="MSTextLayer" font-family="Helvetica Neue" font-size="14" font-weight="260" fill="#FFFFFF">
                        <tspan x="54" y="20">Привет</tspan>
                    </text>
                    <text id="19:03" sketch:type="MSTextLayer" font-family="Helvetica Neue" font-size="10" font-weight="260" fill="#3A3942">
                        <tspan x="0" y="19">19:03</tspan>
                    </text>
                </g>
                <g id="Oval-295-+-Rectangle-240-Copy-4" transform="translate(201.000000, 408.000000)">
                    <path d="M89.1545308,26.3627573 C91.0635924,28.3032944 97.1809947,29.906037 100.268613,29.906037 C104.403693,29.906037 103.339254,30.6454734 100.413656,27.9757346 C100.413656,27.9757346 99.2561245,26.8308362 98.9405117,26.3627576 C98.624899,25.894679 98.065939,24.852992 97.8675747,24.1662854 C97.8177046,23.9936427 97.7184292,23.8523743 97.6679691,23.6902462 C97.5177185,23.2074912 97.4243272,22.749565 97.3617769,22.3988904 C97.2782197,21.9304456 97.0360507,18.6346128 97.0360507,18.0207671 C97.0360507,17.4069214 96.9389652,15.2464377 97.0360507,14.9971313 C97.1331362,14.747825 95.0735394,22.4411348 95.0735394,21.8807111 C95.0735394,19.5127313 92.7181194,17.3874576 93.2443849,16.3468018 C93.8825016,15.0849674 97.1959053,15.1699881 94.040277,15.1699881 C88.2821496,15.1699881 89.8426009,15.1803008 89.8426009,20.4195454 C89.8426009,22.8494068 87.503366,24.6843691 89.1545308,26.3627573 Z" id="Oval-295" fill="#38BC9C" sketch:type="MSShapeGroup"></path>
                    <rect id="Rectangle-240" fill="#38BC9C" sketch:type="MSShapeGroup" x="34" y="0" width="63" height="30" rx="15"></rect>
                    <text id="Жаль" sketch:type="MSTextLayer" font-family="Helvetica Neue" font-size="14" font-weight="260" fill="#FFFFFF">
                        <tspan x="46" y="20">Жаль</tspan>
                    </text>
                    <text id="07:59" sketch:type="MSTextLayer" font-family="Helvetica Neue" font-size="10" font-weight="260" fill="#3A3942">
                        <tspan x="0" y="20">07:59</tspan>
                    </text>
                </g>
                <g id="Oval-295-+-Rectangle-240-Copy-2" transform="translate(73.500000, 315.000000)">
                    <path d="M217.154531,44.3627573 C219.063592,46.3032944 225.180995,47.906037 228.268613,47.906037 C232.403693,47.906037 231.339254,48.6454734 228.413656,45.9757346 C228.413656,45.9757346 227.256125,44.8308362 226.940512,44.3627576 C226.624899,43.894679 226.065939,42.852992 225.867575,42.1662854 C225.817705,41.9936427 225.718429,41.8523743 225.667969,41.6902462 C225.517718,41.2074912 225.424327,40.749565 225.361777,40.3988904 C225.27822,39.9304456 225.036051,36.6346128 225.036051,36.0207671 C225.036051,35.4069214 224.938965,33.2464377 225.036051,32.9971313 C225.133136,32.747825 223.073539,40.4411348 223.073539,39.8807111 C223.073539,37.5127313 220.718119,35.3874576 221.244385,34.3468018 C221.882502,33.0849674 225.195905,33.1699881 222.040277,33.1699881 C216.28215,33.1699881 217.842601,33.1803008 217.842601,38.4195454 C217.842601,40.8494068 215.503366,42.6843691 217.154531,44.3627573 Z" id="Oval-295" fill="#38BC9C" sketch:type="MSShapeGroup"></path>
                    <rect id="Rectangle-240" fill="#38BC9C" sketch:type="MSShapeGroup" x="40" y="0" width="185" height="48" rx="15"></rect>
                    <text id="Ты-сделал-то-что-я-п" sketch:type="MSTextLayer" font-family="Helvetica Neue" font-size="14" font-weight="260" fill="#FFFFFF">
                        <tspan x="54" y="20">Ты сделал то что я </tspan>
                        <tspan x="54" y="37.4060974">просил тебя вчера?</tspan>
                    </text>
                    <text id="07:16" sketch:type="MSTextLayer" font-family="Helvetica Neue" font-size="10" font-weight="260" fill="#3A3942">
                        <tspan x="0.5" y="41">07:16</tspan>
                    </text>
                </g>
                <text id="вчера,-24-марта" sketch:type="MSTextLayer" font-family="Helvetica Neue" font-size="12" font-weight="260" fill="#3A3942">
                    <tspan x="121.5" y="170">вчера, 24 марта</tspan>
                </text>
                <g id="Oval-295-+-Rectangle-240-Copy" transform="translate(75.500000, 247.500000) scale(-1, 1) translate(-75.500000, -247.500000) translate(14.000000, 232.000000)">
                    <path d="M108.154531,26.3627573 C110.063592,28.3032944 116.180995,29.906037 119.268613,29.906037 C123.403693,29.906037 122.339254,30.6454734 119.413656,27.9757346 C119.413656,27.9757346 118.256125,26.8308362 117.940512,26.3627576 C117.624899,25.894679 117.065939,24.852992 116.867575,24.1662854 C116.817705,23.9936427 116.718429,23.8523743 116.667969,23.6902462 C116.517718,23.2074912 116.424327,22.749565 116.361777,22.3988904 C116.27822,21.9304456 116.036051,18.6346128 116.036051,18.0207671 C116.036051,17.4069214 115.938965,15.2464377 116.036051,14.9971313 C116.133136,14.747825 114.073539,22.4411348 114.073539,21.8807111 C114.073539,19.5127313 111.718119,17.3874576 112.244385,16.3468018 C112.882502,15.0849674 116.195905,15.1699881 113.040277,15.1699881 C107.28215,15.1699881 108.842601,15.1803008 108.842601,20.4195454 C108.842601,22.8494068 106.503366,24.6843691 108.154531,26.3627573 Z" id="Oval-295" fill="#FFFFFF" sketch:type="MSShapeGroup"></path>
                    <rect id="Rectangle-240" fill="#FFFFFF" sketch:type="MSShapeGroup" x="38" y="0" width="78" height="30" rx="15"></rect>
                    <text id="Привет" sketch:type="MSTextLayer" transform="translate(77.500000, 15.000000) scale(-1, 1) translate(-77.500000, -15.000000) " font-family="Helvetica Neue" font-size="14" font-weight="260" fill="#3A3942">
                        <tspan x="54" y="20">Привет</tspan>
                    </text>
                    <text id="19:05" sketch:type="MSTextLayer" transform="translate(13.500000, 14.500000) scale(-1, 1) translate(-13.500000, -14.500000) " font-family="Helvetica Neue" font-size="10" font-weight="260" fill="#3A3942">
                        <tspan x="0.5" y="18">19:05</tspan>
                    </text>
                </g>
                <g id="Oval-295-+-Rectangle-240-Copy-3" transform="translate(62.000000, 392.500000) scale(-1, 1) translate(-62.000000, -392.500000) translate(14.000000, 377.000000)">
                    <path d="M81.1545308,26.3627573 C83.0635924,28.3032944 89.1809947,29.906037 92.2686129,29.906037 C96.4036933,29.906037 95.3392544,30.6454734 92.4136563,27.9757346 C92.4136563,27.9757346 91.2561245,26.8308362 90.9405117,26.3627576 C90.624899,25.894679 90.065939,24.852992 89.8675747,24.1662854 C89.8177046,23.9936427 89.7184292,23.8523743 89.6679691,23.6902462 C89.5177185,23.2074912 89.4243272,22.749565 89.3617769,22.3988904 C89.2782197,21.9304456 89.0360507,18.6346128 89.0360507,18.0207671 C89.0360507,17.4069214 88.9389652,15.2464377 89.0360507,14.9971313 C89.1331362,14.747825 87.0735394,22.4411348 87.0735394,21.8807111 C87.0735394,19.5127313 84.7181194,17.3874576 85.2443849,16.3468018 C85.8825016,15.0849674 89.1959053,15.1699881 86.040277,15.1699881 C80.2821496,15.1699881 81.8426009,15.1803008 81.8426009,20.4195454 C81.8426009,22.8494068 79.503366,24.6843691 81.1545308,26.3627573 Z" id="Oval-295" fill="#FFFFFF" sketch:type="MSShapeGroup"></path>
                    <rect id="Rectangle-240" fill="#FFFFFF" sketch:type="MSShapeGroup" x="35" y="0" width="54" height="30" rx="15"></rect>
                    <text id="Нет" sketch:type="MSTextLayer" transform="translate(62.000000, 15.000000) scale(-1, 1) translate(-62.000000, -15.000000) " font-family="Helvetica Neue" font-size="14" font-weight="260" fill="#3A3942">
                        <tspan x="50" y="20">Нет</tspan>
                    </text>
                    <text id="07:30" sketch:type="MSTextLayer" transform="translate(13.500000, 15.500000) scale(-1, 1) translate(-13.500000, -15.500000) " font-family="Helvetica Neue" font-size="10" font-weight="260" fill="#3A3942">
                        <tspan x="0.5" y="19">07:30</tspan>
                    </text>
                </g>
                <text id="сегодня,-25-марта" sketch:type="MSTextLayer" font-family="Helvetica Neue" font-size="12" font-weight="260" fill="#3A3942">
                    <tspan x="116.5" y="295">сегодня, 25 марта</tspan>
                </text>
                <text id="Набирает-сообщение.." sketch:type="MSTextLayer" font-family="Helvetica Neue" font-size="10" font-weight="260" fill="#3A3942">
                    <tspan x="108" y="60">Набирает сообщение...</tspan>
                </text>
                <text id="Написать-сообщение.." sketch:type="MSTextLayer" font-family="Helvetica Neue" font-size="14" font-weight="260" fill="#3A3942">
                    <tspan x="63" y="550">Написать сообщение...</tspan>
                </text>
                <g id="Imported-Layers-Copy-7" transform="translate(10.000000, 29.000000)" sketch:type="MSShapeGroup">
                    <path d="M15.9375,8.85416667 L1.77083333,8.85416667" id="Fill-1" fill-opacity="0" fill="#000000"></path>
                    <path d="M15.9375,8.85416667 L1.77083333,8.85416667" id="Stroke-3" stroke="#3A3942" stroke-linecap="round" stroke-linejoin="round"></path>
                    <path d="M6.72916667,13.8125 L1.77083333,8.85416667 L6.72916667,3.89583333" id="Fill-4" fill-opacity="0" fill="#000000"></path>
                    <path d="M6.72916667,13.8125 L1.77083333,8.85416667 L6.72916667,3.89583333" id="Stroke-5" stroke="#3A3942" stroke-linecap="round" stroke-linejoin="round"></path>
                </g>
            </g>
        </g>
    </g>
</svg>