<?xml version="1.0" encoding="UTF-8" standalone="no"?>
<svg width="320px" height="568px" viewBox="0 0 320 568" version="1.1" xmlns="http://www.w3.org/2000/svg" xmlns:xlink="http://www.w3.org/1999/xlink" xmlns:sketch="http://www.bohemiancoding.com/sketch/ns">
    <!-- Generator: Sketch 3.3 (11970) - http://www.bohemiancoding.com/sketch -->
    <title>Group</title>
    <desc>Created with Sketch.</desc>
    <defs>
        <path id="path-1" d="M0,0 L19,0 L19,19 L0,19"></path>
    </defs>
    <g id="Elements" stroke="none" stroke-width="1" fill="none" fill-rule="evenodd" sketch:type="MSPage">
        <g id="iPhone-5/5S/5C-Copy-8" sketch:type="MSArtboardGroup">
            <g id="Group" sketch:type="MSLayerGroup" transform="translate(-1.000000, 0.000000)">
                <rect id="Rectangle-456" fill="#F6F6F6" sketch:type="MSShapeGroup" x="0" y="0" width="322" height="568"></rect>
                <g transform="translate(1.000000, 0.000000)" id="Rectangle-214" fill="#FFFFFF" sketch:type="MSShapeGroup">
                    <rect x="0" y="0" width="320" height="263"></rect>
                </g>
                <path d="M256.5,262.5 L320.5,262.5" id="Line" stroke="#38BC9C" stroke-linecap="square" sketch:type="MSShapeGroup"></path>
                <circle id="Oval-242" stroke-opacity="0.15" stroke="#979797" stroke-width="0.5" fill="#FFFFFF" sketch:type="MSShapeGroup" cx="161" cy="71" r="30"></circle>
                <text id="Витёк" sketch:type="MSTextLayer" font-family="Helvetica Neue" font-size="15" font-weight="260" fill="#3A3942">
                    <tspan x="141" y="121">Витёк</tspan>
                </text>
                <g id="Imported-Layers" transform="translate(14.000000, 29.500000)" sketch:type="MSShapeGroup">
                    <path d="M15.6458333,7.85416667 C15.6458333,7.07145833 15.011875,6.4375 14.2291667,6.4375 L13.33525,6.4375 C13.201375,5.919 12.997375,5.43025 12.73175,4.97975 L13.3635833,4.34791667 C13.9167917,3.79470833 13.9167917,2.89795833 13.3635833,2.34475 C12.810375,1.79154167 11.913625,1.79154167 11.3604167,2.34475 L10.7285833,2.97658333 C10.2780833,2.71095833 9.78933333,2.50695833 9.27083333,2.37308333 L9.27083333,1.47916667 C9.27083333,0.697166667 8.636875,0.0625 7.85416667,0.0625 C7.07145833,0.0625 6.4375,0.696458333 6.4375,1.47916667 L6.4375,2.37308333 C5.919,2.50695833 5.43025,2.71095833 4.97975,2.97658333 L4.34791667,2.34475 C3.79470833,1.79154167 2.89795833,1.79154167 2.34475,2.34475 C1.79154167,2.89795833 1.79154167,3.79470833 2.34475,4.34791667 L2.97658333,4.97975 C2.71095833,5.43025 2.50695833,5.919 2.37308333,6.4375 L1.47916667,6.4375 C0.697166667,6.4375 0.0625,7.07145833 0.0625,7.85416667 C0.0625,8.636875 0.696458333,9.27083333 1.47916667,9.27083333 L2.37308333,9.27083333 C2.50695833,9.78933333 2.71095833,10.2780833 2.97658333,10.7285833 L2.34475,11.3604174 C1.79154167,11.9136257 1.79154167,12.8103757 2.34475,13.363584 C2.89795833,13.9167924 3.79470833,13.9167924 4.34791667,13.363584 L4.97975,12.7317507 C5.42954167,12.9973757 5.919,13.2013757 6.4375,13.3352507 L6.4375,14.2291667 C6.4375,15.0111667 7.07145833,15.6458333 7.85416667,15.6458333 C8.636875,15.6458333 9.27083333,15.011875 9.27083333,14.2291667 L9.27083333,13.33525 C9.78933333,13.201375 10.2780833,12.997375 10.7285833,12.73175 L11.3604167,13.3635833 C11.913625,13.9167917 12.810375,13.9167917 13.3635833,13.3635833 C13.9167917,12.810375 13.9167917,11.913625 13.3635833,11.3604167 L12.73175,10.7285833 C12.997375,10.2787917 13.201375,9.78933333 13.33525,9.27083333 L14.2291667,9.27083333 C15.0111667,9.27083333 15.6458333,8.636875 15.6458333,7.85416667 L15.6458333,7.85416667 Z" id="Fill-1" fill-opacity="0" fill="#000000"></path>
                    <path d="M15.6458333,7.85416667 C15.6458333,7.07145833 15.011875,6.4375 14.2291667,6.4375 L13.33525,6.4375 C13.201375,5.919 12.997375,5.43025 12.73175,4.97975 L13.3635833,4.34791667 C13.9167917,3.79470833 13.9167917,2.89795833 13.3635833,2.34475 C12.810375,1.79154167 11.913625,1.79154167 11.3604167,2.34475 L10.7285833,2.97658333 C10.2780833,2.71095833 9.78933333,2.50695833 9.27083333,2.37308333 L9.27083333,1.47916667 C9.27083333,0.697166667 8.636875,0.0625 7.85416667,0.0625 C7.07145833,0.0625 6.4375,0.696458333 6.4375,1.47916667 L6.4375,2.37308333 C5.919,2.50695833 5.43025,2.71095833 4.97975,2.97658333 L4.34791667,2.34475 C3.79470833,1.79154167 2.89795833,1.79154167 2.34475,2.34475 C1.79154167,2.89795833 1.79154167,3.79470833 2.34475,4.34791667 L2.97658333,4.97975 C2.71095833,5.43025 2.50695833,5.919 2.37308333,6.4375 L1.47916667,6.4375 C0.697166667,6.4375 0.0625,7.07145833 0.0625,7.85416667 C0.0625,8.636875 0.696458333,9.27083333 1.47916667,9.27083333 L2.37308333,9.27083333 C2.50695833,9.78933333 2.71095833,10.2780833 2.97658333,10.7285833 L2.34475,11.3604167 C1.79154167,11.913625 1.79154167,12.810375 2.34475,13.3635833 C2.89795833,13.9167917 3.79470833,13.9167917 4.34791667,13.3635833 L4.97975,12.73175 C5.42954167,12.997375 5.919,13.201375 6.4375,13.33525 L6.4375,14.2291667 C6.4375,15.0111667 7.07145833,15.6458333 7.85416667,15.6458333 C8.636875,15.6458333 9.27083333,15.011875 9.27083333,14.2291667 L9.27083333,13.33525 C9.78933333,13.201375 10.2780833,12.997375 10.7285833,12.73175 L11.3604167,13.3635833 C11.913625,13.9167917 12.810375,13.9167917 13.3635833,13.3635833 C13.9167917,12.810375 13.9167917,11.913625 13.3635833,11.3604167 L12.73175,10.7285833 C12.997375,10.2787917 13.201375,9.78933333 13.33525,9.27083333 L14.2291667,9.27083333 C15.0111667,9.27083333 15.6458333,8.636875 15.6458333,7.85416667 L15.6458333,7.85416667 Z" id="Stroke-3" stroke="#3A3942" stroke-width="0.5" stroke-linecap="square"></path>
                    <path d="M9.35676833,6.351565 C10.1866304,7.18142708 10.1866304,8.52690625 9.35676833,9.35676833 C8.52690625,10.1866325 7.18142708,10.1866325 6.351565,9.35676833 C5.52170079,8.52690625 5.52170079,7.18142708 6.351565,6.351565 C7.18142708,5.52170292 8.52690625,5.52170292 9.35676833,6.351565" id="Fill-4" fill-opacity="0" fill="#000000"></path>
                    <path d="M9.35676833,6.351565 C10.1866304,7.18142708 10.1866304,8.52690625 9.35676833,9.35676833 C8.52690625,10.1866304 7.18142708,10.1866304 6.351565,9.35676833 C5.52170079,8.52690625 5.52170079,7.18142708 6.351565,6.351565 C7.18142708,5.52170079 8.52690625,5.52170079 9.35676833,6.351565" id="Stroke-5" stroke="#3A3942" stroke-width="0.5" stroke-linecap="square"></path>
                </g>
                <g id="Status-Bar-White-Copy-4" transform="translate(1.000000, 0.000000)" fill="#030303">
                    <path d="M7.89333333,13 C9.18936155,13 10.24,11.7687831 10.24,10.25 C10.24,8.73121694 9.18936155,7.5 7.89333333,7.5 C6.59730512,7.5 5.54666667,8.73121694 5.54666667,10.25 C5.54666667,11.7687831 6.59730512,13 7.89333333,13 Z M13.8666667,13 C15.1626949,13 16.2133333,11.7687831 16.2133333,10.25 C16.2133333,8.73121694 15.1626949,7.5 13.8666667,7.5 C12.5706385,7.5 11.52,8.73121694 11.52,10.25 C11.52,11.7687831 12.5706385,13 13.8666667,13 Z M19.84,13 C21.1360282,13 22.1866667,11.7687831 22.1866667,10.25 C22.1866667,8.73121694 21.1360282,7.5 19.84,7.5 C18.5439718,7.5 17.4933333,8.73121694 17.4933333,10.25 C17.4933333,11.7687831 18.5439718,13 19.84,13 Z M25.8133333,13 C27.1093615,13 28.16,11.7687831 28.16,10.25 C28.16,8.73121694 27.1093615,7.5 25.8133333,7.5 C24.5173051,7.5 23.4666667,8.73121694 23.4666667,10.25 C23.4666667,11.7687831 24.5173051,13 25.8133333,13 Z M25.8133333,12.5 C26.8737201,12.5 27.7333333,11.4926407 27.7333333,10.25 C27.7333333,9.00735931 26.8737201,8 25.8133333,8 C24.7529466,8 23.8933333,9.00735931 23.8933333,10.25 C23.8933333,11.4926407 24.7529466,12.5 25.8133333,12.5 Z M31.7866667,13 C33.0826949,13 34.1333333,11.7687831 34.1333333,10.25 C34.1333333,8.73121694 33.0826949,7.5 31.7866667,7.5 C30.4906385,7.5 29.44,8.73121694 29.44,10.25 C29.44,11.7687831 30.4906385,13 31.7866667,13 Z M31.7866667,12.5 C32.8470534,12.5 33.7066667,11.4926407 33.7066667,10.25 C33.7066667,9.00735931 32.8470534,8 31.7866667,8 C30.7262799,8 29.8666667,9.00735931 29.8666667,10.25 C29.8666667,11.4926407 30.7262799,12.5 31.7866667,12.5 Z" id="Mobile-Signal" sketch:type="MSShapeGroup"></path>
                    <text id="Carrier" sketch:type="MSTextLayer" font-family="Helvetica Neue" font-size="10.24" font-weight="normal" letter-spacing="0.200000003">
                        <tspan x="37.5466667" y="13.5">Sketch</tspan>
                    </text>
                    <path d="M82.0432391,12.4385043 C81.6011724,11.8454456 80.9406819,11.4689119 80.2027205,11.4689119 C79.4786195,11.4689119 78.8291067,11.8314341 78.387341,12.4053177 L80.2325667,14.5 L82.0432391,12.4385043 Z M83.9027169,10.3214425 C82.9822117,9.19174563 81.6652277,8.48445596 80.2027205,8.48445596 C78.752659,8.48445596 77.4456545,9.17975893 76.5263102,10.2926936 L77.4564682,11.3486 C78.1373482,10.5053708 79.1156463,9.97668394 80.2027205,9.97668394 C81.3029407,9.97668394 82.291738,10.518235 82.9735437,11.3793293 L83.9027169,10.3214425 L83.9027169,10.3214425 Z M85.76,8.20687933 C84.3630573,6.53943672 82.3898197,5.5 80.2027205,5.5 C78.0266755,5.5 76.0623357,6.52895605 74.6666667,8.18164431 L75.5964228,9.23709441 C76.7539881,7.85431655 78.389668,6.99222798 80.2027205,6.99222798 C82.0275222,6.99222798 83.672645,7.86552609 84.8314622,9.26404272 L85.76,8.20687933 Z" id="Wi-Fi" sketch:type="MSShapeGroup"></path>
                    <text id="9:41-AM" sketch:type="MSTextLayer" font-family="Helvetica Neue" font-size="10.24" font-weight="normal" sketch:alignment="middle" letter-spacing="0.100000001">
                        <tspan x="140.059173" y="13.5">9:41 AM</tspan>
                    </text>
                    <text id="100%" sketch:type="MSTextLayer" font-family="Helvetica Neue" font-size="10.24" font-weight="normal" sketch:alignment="right">
                        <tspan x="264.51968" y="13.5">100%</tspan>
                    </text>
                    <path d="M295.906592,5.5 C295.074524,5.5 294.4,6.16802155 294.4,7.00530324 L294.4,13.4946968 C294.4,14.3260528 295.07208,15 295.906592,15 L312.093408,15 C312.925476,15 313.6,14.3319784 313.6,13.4946968 L313.6,7.00530324 C313.6,6.17394722 312.92792,5.5 312.093408,5.5 L295.906592,5.5 Z M314.026667,8.5 L314.026667,12 L314.666667,12 C315.020129,12 315.306667,11.7135803 315.306667,11.3580461 L315.306667,9.14195395 C315.306667,8.78741257 315.022593,8.5 314.666667,8.5 L314.026667,8.5 Z M295.826092,6 C295.274125,6 294.826667,6.45699692 294.826667,7.00844055 L294.826667,13.4915594 C294.826667,14.0485058 295.280182,14.5 295.826092,14.5 L312.173908,14.5 C312.725875,14.5 313.173333,14.0430031 313.173333,13.4915594 L313.173333,7.00844055 C313.173333,6.45149422 312.719818,6 312.173908,6 L295.826092,6 Z M295.758009,6.5 C295.479284,6.5 295.253333,6.71637201 295.253333,6.99209595 L295.253333,13.5079041 C295.253333,13.7796811 295.474514,14 295.758009,14 L312.241991,14 C312.520716,14 312.746667,13.783628 312.746667,13.5079041 L312.746667,6.99209595 C312.746667,6.72031886 312.525486,6.5 312.241991,6.5 L295.758009,6.5 Z" id="Battery" sketch:type="MSShapeGroup"></path>
                </g>
                <g id="Imported-Layers" transform="translate(146.000000, 56.000000)" sketch:type="MSShapeGroup">
                    <path d="M19.375,19.375 L11.875,19.375 C7.7325,19.375 4.375,22.7325 4.375,26.875 L4.375,28.125 C4.375,28.125 8.28125,29.375 15.625,29.375 C22.96875,29.375 26.875,28.125 26.875,28.125 L26.875,26.875 C26.875,22.7325012 23.5175,19.375 19.375,19.375 L19.375,19.375 Z" id="Fill-1" fill-opacity="0" fill="#000000"></path>
                    <path d="M19.375,19.375 L11.875,19.375 C7.7325,19.375 4.375,22.7325 4.375,26.875 L4.375,28.125 C4.375,28.125 8.28125,29.375 15.625,29.375 C22.96875,29.375 26.875,28.125 26.875,28.125 L26.875,26.875 C26.875,22.7325 23.5175,19.375 19.375,19.375 L19.375,19.375 Z" id="Stroke-3" stroke="#3A3942" stroke-linecap="square"></path>
                    <path d="M9.375,8.125 C9.375,4.67375 12.17375,1.875 15.625,1.875 C19.07625,1.875 21.875,4.67375 21.875,8.125 C21.875,11.57625 19.07625,15.625 15.625,15.625 C12.17375,15.625 9.375,11.57625 9.375,8.125 L9.375,8.125 Z" id="Fill-4" fill-opacity="0" fill="#000000"></path>
                    <path d="M9.375,8.125 C9.375,4.67375 12.17375,1.875 15.625,1.875 C19.07625,1.875 21.875,4.67375 21.875,8.125 C21.875,11.57625 19.07625,15.625 15.625,15.625 C12.17375,15.625 9.375,11.57625 9.375,8.125 L9.375,8.125 Z" id="Stroke-5" stroke="#3A3942" stroke-linecap="square"></path>
                </g>
                <g transform="translate(113.500000, 128.500000)" sketch:type="MSShapeGroup">
                    <g id="Imported-Layers-Copy">
                        <path d="M7.5,0.0789473684 L9.86842105,5.13157895 L14.9210526,5.13157895 L11.2105263,9 L12.7105263,14.9210526 L7.5,11.9210526 L2.28947368,14.9210526 L3.78947368,9 L0.0789473684,5.13157895 L5.13157895,5.13157895 L7.5,0.0789473684 Z" id="Fill-1" fill="#38BC9C"></path>
                        <path d="M7.5,0.0789473684 L9.86842105,5.13157895 L14.9210526,5.13157895 L11.2105263,9 L12.7105263,14.9210526 L7.5,11.9210526 L2.28947368,14.9210526 L3.78947368,9 L0.0789473684,5.13157895 L5.13157895,5.13157895 L7.5,0.0789473684 Z" id="Stroke-3"></path>
                    </g>
                    <g id="Imported-Layers" transform="translate(20.000000, 0.000000)">
                        <path d="M7.5,0.0789473684 L9.86842105,5.13157895 L14.9210526,5.13157895 L11.2105263,9 L12.7105263,14.9210526 L7.5,11.9210526 L2.28947368,14.9210526 L3.78947368,9 L0.0789473684,5.13157895 L5.13157895,5.13157895 L7.5,0.0789473684 Z" id="Fill-1" fill="#38BC9C"></path>
                        <path d="M7.5,0.0789473684 L9.86842105,5.13157895 L14.9210526,5.13157895 L11.2105263,9 L12.7105263,14.9210526 L7.5,11.9210526 L2.28947368,14.9210526 L3.78947368,9 L0.0789473684,5.13157895 L5.13157895,5.13157895 L7.5,0.0789473684 Z" id="Stroke-3"></path>
                    </g>
                    <g id="Imported-Layers-Copy-2" transform="translate(40.000000, 0.000000)">
                        <path d="M7.5,0.0789473684 L9.86842105,5.13157895 L14.9210526,5.13157895 L11.2105263,9 L12.7105263,14.9210526 L7.5,11.9210526 L2.28947368,14.9210526 L3.78947368,9 L0.0789473684,5.13157895 L5.13157895,5.13157895 L7.5,0.0789473684 Z" id="Fill-1" fill-opacity="0" fill="#000000"></path>
                        <path d="M7.5,0.0789473684 L9.86842105,5.13157895 L14.9210526,5.13157895 L11.2105263,9 L12.7105263,14.9210526 L7.5,11.9210526 L2.28947368,14.9210526 L3.78947368,9 L0.0789473684,5.13157895 L5.13157895,5.13157895 L7.5,0.0789473684 Z" id="Stroke-3" stroke="#AEAEAE" stroke-width="0.5" stroke-linecap="square"></path>
                    </g>
                    <g id="Imported-Layers-Copy-3" transform="translate(60.000000, 0.000000)">
                        <path d="M7.5,0.0789473684 L9.86842105,5.13157895 L14.9210526,5.13157895 L11.2105263,9 L12.7105263,14.9210526 L7.5,11.9210526 L2.28947368,14.9210526 L3.78947368,9 L0.0789473684,5.13157895 L5.13157895,5.13157895 L7.5,0.0789473684 Z" id="Fill-1" fill-opacity="0" fill="#000000"></path>
                        <path d="M7.5,0.0789473684 L9.86842105,5.13157895 L14.9210526,5.13157895 L11.2105263,9 L12.7105263,14.9210526 L7.5,11.9210526 L2.28947368,14.9210526 L3.78947368,9 L0.0789473684,5.13157895 L5.13157895,5.13157895 L7.5,0.0789473684 Z" id="Stroke-3" stroke="#AEAEAE" stroke-width="0.5" stroke-linecap="square"></path>
                    </g>
                    <g id="Imported-Layers-Copy-4" transform="translate(80.000000, 0.000000)">
                        <path d="M7.5,0.0789473684 L9.86842105,5.13157895 L14.9210526,5.13157895 L11.2105263,9 L12.7105263,14.9210526 L7.5,11.9210526 L2.28947368,14.9210526 L3.78947368,9 L0.0789473684,5.13157895 L5.13157895,5.13157895 L7.5,0.0789473684 Z" id="Fill-1"></path>
                        <path d="M7.5,0.0789473684 L9.86842105,5.13157895 L14.9210526,5.13157895 L11.2105263,9 L12.7105263,14.9210526 L7.5,11.9210526 L2.28947368,14.9210526 L3.78947368,9 L0.0789473684,5.13157895 L5.13157895,5.13157895 L7.5,0.0789473684 Z" id="Stroke-3" stroke="#AEAEAE" stroke-width="0.5" stroke-linecap="square"></path>
                    </g>
                </g>
                <g transform="translate(13.000000, 221.000000)" font-family="Helvetica Neue" sketch:type="MSTextLayer" font-weight="260">
                    <g id="0-+-Выполняю">
                        <text id="0" font-size="17" fill="#AEAEAE">
                            <tspan x="24" y="16">0</tspan>
                        </text>
                        <text id="выполняю" font-size="13" fill="#949494">
                            <tspan x="0" y="32">выполняю</tspan>
                        </text>
                    </g>
                    <g id="0-copy-+-Заказал" transform="translate(99.000000, 0.500000)">
                        <text id="0-copy" font-size="16.5789474" fill="#AEAEAE">
                            <tspan x="16.5" y="16">0</tspan>
                        </text>
                        <text id="заказал" font-size="12" fill="#949494">
                            <tspan x="0.5" y="31">заказал</tspan>
                        </text>
                    </g>
                    <g id="0-copy-2-+-Архив" transform="translate(182.000000, 0.000000)">
                        <text id="0-copy-2" font-size="16.5789474" fill="#AEAEAE">
                            <tspan x="11.5" y="16">0</tspan>
                        </text>
                        <text id="архив" font-size="13" fill="#949494">
                            <tspan x="0" y="32">архив</tspan>
                        </text>
                    </g>
                    <g id="0-copy-3-+-Отзывы" transform="translate(255.000000, 0.000000)">
                        <text id="2" font-size="17" fill="#000000">
                            <tspan x="15.5" y="16">2</tspan>
                        </text>
                        <text id="отзывы" font-size="12.75" fill="#949494">
                            <tspan x="0" y="31">отзывы</tspan>
                        </text>
                    </g>
                </g>
                <g transform="translate(0.000000, 162.000000)">
                    <g id="1500-+-rub---fontawesome-copy" transform="translate(50.500000, 12.000000)" font-size="17" font-family="Helvetica Neue" fill="#3A3942" sketch:type="MSTextLayer" font-weight="260">
                        <text id="1500-₽">
                            <tspan x="0" y="16">1500 </tspan>
                            <tspan x="42.534" y="16" font-family=".Helvetica Neue DeskInterface">₽</tspan>
                        </text>
                    </g>
                    <rect id="Rectangle-311" stroke-opacity="0.2" stroke="#AEAEAE" stroke-width="0.5" sketch:type="MSShapeGroup" x="0" y="0" width="322" height="45"></rect>
                </g>
                <g id="Imported-Layers" transform="translate(13.000000, 176.000000)" sketch:type="MSShapeGroup">
                    <path d="M3.125,0.875 L1.625,0.875 C0.8,0.875 0.125,1.55 0.125,2.375 L0.125,2.375 C0.125,3.2 0.8,3.875 1.625,3.875 L3.125,3.875" id="Fill-1" fill-opacity="0" fill="#000000"></path>
                    <path d="M3.125,0.875 L1.625,0.875 C0.8,0.875 0.125,1.55 0.125,2.375 L0.125,2.375 C0.125,3.2 0.8,3.875 1.625,3.875 L3.125,3.875" id="Stroke-3" stroke="#3A3942" stroke-width="0.5" stroke-linecap="square"></path>
                    <path d="M3.125,3.875 L3.125,0.125 L13.625,0.125 L13.625,3.875" id="Fill-4" fill-opacity="0" fill="#000000"></path>
                    <path d="M3.125,3.875 L3.125,0.125 L13.625,0.125 L13.625,3.875" id="Stroke-5" stroke="#3A3942" stroke-width="0.5" stroke-linecap="square"></path>
                    <path id="Fill-6" fill-opacity="0" fill="#000000"></path>
                    <path id="Stroke-7" stroke="#3A3942" stroke-width="0.5" stroke-linecap="square"></path>
                    <path d="M15.125,9.125 L15.125,3.875 L1.625,3.875 C0.8,3.875 0.125,3.2 0.125,2.375 L0.125,14.375 C0.125,15.65 1.1,16.625 2.375,16.625 L15.125,16.625 L15.125,12.125" id="Fill-8" fill-opacity="0" fill="#000000"></path>
                    <path d="M15.125,9.125 L15.125,3.875 L1.625,3.875 C0.8,3.875 0.125,3.2 0.125,2.375 L0.125,14.375 C0.125,15.65 1.1,16.625 2.375,16.625 L15.125,16.625 L15.125,12.125" id="Stroke-9" stroke="#3A3942" stroke-width="0.5" stroke-linecap="square"></path>
                    <path d="M16.625,12.125 L12.875,12.125 C12.05,12.125 11.375,11.45 11.375,10.625 L11.375,10.625 C11.375,9.8 12.05,9.125 12.875,9.125 L16.625,9.125 L16.625,12.125 L16.625,12.125 Z" id="Fill-10" fill-opacity="0" fill="#000000"></path>
                    <path d="M16.625,12.125 L12.875,12.125 C12.05,12.125 11.375,11.45 11.375,10.625 L11.375,10.625 C11.375,9.8 12.05,9.125 12.875,9.125 L16.625,9.125 L16.625,12.125 L16.625,12.125 Z" id="Stroke-11" stroke="#3A3942" stroke-width="0.5" stroke-linecap="square"></path>
                </g>
                <g id="Imported-Layers" transform="translate(295.000000, 177.166667)" sketch:type="MSShapeGroup">
                    <path d="M6.36111111,11.5222215 C5.85555556,11.8111104 5.06111111,12.0277771 4.19444444,12.0277771 C2.60555556,12.0277771 1.30555556,11.3777771 1.30555556,10.5833326 C1.30555556,10.1499993 1.66666667,9.78888817 2.31666667,9.5" id="Fill-1" fill-opacity="0" fill="#000000"></path>
                    <path d="M6.36111111,11.5222222 C5.85555556,11.8111111 5.06111111,12.0277778 4.19444444,12.0277778 C2.60555556,12.0277778 1.30555556,11.3777778 1.30555556,10.5833333 C1.30555556,10.15 1.66666667,9.78888889 2.31666667,9.5" id="Stroke-3" stroke="#999999" stroke-width="0.5"></path>
                    <path d="M6.36111111,9.35555556 C5.85555556,9.64444444 5.06111111,9.86111111 4.19444444,9.86111111 C2.60555556,9.86111111 1.30555556,9.21111111 1.30555556,8.41666667 C1.30555556,7.98333333 1.66666667,7.62222222 2.24444444,7.33333333" id="Fill-4" fill-opacity="0" fill="#000000"></path>
                    <path d="M6.36111111,9.35555556 C5.85555556,9.64444444 5.06111111,9.86111111 4.19444444,9.86111111 C2.60555556,9.86111111 1.30555556,9.21111111 1.30555556,8.41666667 C1.30555556,7.98333333 1.66666667,7.62222222 2.24444444,7.33333333" id="Stroke-5" stroke="#999999" stroke-width="0.5"></path>
                    <path d="M6.36111111,7.18888889 C5.85555556,7.47777778 5.06111111,7.69444444 4.19444444,7.69444444 C2.60555556,7.69444444 1.30555556,7.04444444 1.30555556,6.25 C1.30555556,5.81666667 1.66666667,5.45555556 2.31666667,5.16666667" id="Fill-6" fill-opacity="0" fill="#000000"></path>
                    <path d="M6.36111111,7.18888889 C5.85555556,7.47777778 5.06111111,7.69444444 4.19444444,7.69444444 C2.60555556,7.69444444 1.30555556,7.04444444 1.30555556,6.25 C1.30555556,5.81666667 1.66666667,5.45555556 2.31666667,5.16666667" id="Stroke-7" stroke="#999999" stroke-width="0.5"></path>
                    <path d="M6.07222222,3 C6.72222222,3.28888889 7.08333333,3.65 7.08333333,4.08333333 C7.08333333,4.87777778 5.78333333,5.52777778 4.19444444,5.52777778 C2.60555556,5.52777778 1.30555556,4.87777778 1.30555556,4.08333333 C1.30555556,3.65 1.66666667,3.28888889 2.31666667,3" id="Fill-8" fill-opacity="0" fill="#000000"></path>
                    <path d="M6.07222222,3 C6.72222222,3.28888889 7.08333333,3.65 7.08333333,4.08333333 C7.08333333,4.87777778 5.78333333,5.52777778 4.19444444,5.52777778 C2.60555556,5.52777778 1.30555556,4.87777778 1.30555556,4.08333333 C1.30555556,3.65 1.66666667,3.28888889 2.31666667,3" id="Stroke-9" stroke="#999999" stroke-width="0.5"></path>
                    <path d="M6.23719944,0.895292778 C7.36537556,1.45938444 7.36537556,2.37394889 6.23719944,2.93804056 C5.10901611,3.50213222 3.27987278,3.50213222 2.15169161,2.93804056 C1.02351044,2.37394889 1.02351044,1.45938444 2.15169161,0.895292778 C3.27987278,0.331201111 5.10901611,0.331201111 6.23719944,0.895292778" id="Fill-10" fill-opacity="0" fill="#000000"></path>
                    <path d="M6.23719944,0.895289889 C7.36537556,1.45938083 7.36537556,2.3739525 6.23719944,2.93804344 C5.10901611,3.50213367 3.27987278,3.50213367 2.15169161,2.93804344 C1.02351044,2.3739525 1.02351044,1.45938083 2.15169161,0.895289889 C3.27987278,0.331199667 5.10901611,0.331199667 6.23719944,0.895289889" id="Stroke-11" stroke="#999999" stroke-width="0.5" stroke-linecap="square"></path>
                    <path d="M10.4055556,11.6666667 C10.9833333,11.9555556 11.4166667,12.3166667 11.4166667,12.75 C11.4166667,13.5444444 10.1166667,14.1944444 8.52777778,14.1944444 C6.93888889,14.1944444 5.63888889,13.5444444 5.63888889,12.75 C5.63888889,12.3166667 6,11.9555556 6.65,11.6666667" id="Fill-12" fill-opacity="0" fill="#000000"></path>
                    <path d="M10.4055556,11.6666667 C10.9833333,11.9555556 11.4166667,12.3166667 11.4166667,12.75 C11.4166667,13.5444444 10.1166667,14.1944444 8.52777778,14.1944444 C6.93888889,14.1944444 5.63888889,13.5444444 5.63888889,12.75 C5.63888889,12.3166667 6,11.9555556 6.65,11.6666667" id="Stroke-13" stroke="#999999" stroke-width="0.5"></path>
                    <path d="M10.4777778,9.5 C11.0555556,9.78888889 11.4166667,10.15 11.4166667,10.5833333 C11.4166667,11.3777778 10.1166667,12.0277778 8.52777778,12.0277778 C6.93888889,12.0277778 5.63888889,11.3777778 5.63888889,10.5833333 C5.63888889,10.15 6,9.78888889 6.65,9.5" id="Fill-14" fill-opacity="0" fill="#000000"></path>
                    <path d="M10.4777778,9.5 C11.0555556,9.78888889 11.4166667,10.15 11.4166667,10.5833333 C11.4166667,11.3777778 10.1166667,12.0277778 8.52777778,12.0277778 C6.93888889,12.0277778 5.63888889,11.3777778 5.63888889,10.5833333 C5.63888889,10.15 6,9.78888889 6.65,9.5" id="Stroke-15" stroke="#999999" stroke-width="0.5"></path>
                    <path d="M10.4055556,7.33333333 C10.9833333,7.62222222 11.4166667,7.98333333 11.4166667,8.41666667 C11.4166667,9.21111111 10.1166667,9.86111111 8.52777778,9.86111111 C6.93888889,9.86111111 5.63888889,9.21111111 5.63888889,8.41666667 C5.63888889,7.98333333 6,7.62222222 6.65,7.33333333" id="Fill-16" fill-opacity="0" fill="#000000"></path>
                    <path d="M10.4055556,7.33333333 C10.9833333,7.62222222 11.4166667,7.98333333 11.4166667,8.41666667 C11.4166667,9.21111111 10.1166667,9.86111111 8.52777778,9.86111111 C6.93888889,9.86111111 5.63888889,9.21111111 5.63888889,8.41666667 C5.63888889,7.98333333 6,7.62222222 6.65,7.33333333" id="Stroke-17" stroke="#999999" stroke-width="0.5"></path>
                    <path d="M10.5705328,5.22862611 C11.6987089,5.79271778 11.6987089,6.70728222 10.5705328,7.27137389 C9.44234944,7.83546556 7.61320611,7.83546556 6.48502278,7.27137389 C5.35684667,6.70728222 5.35684667,5.79271778 6.48502278,5.22862611 C7.61320611,4.66453444 9.44234944,4.66453444 10.5705328,5.22862611" id="Fill-18" fill-opacity="0" fill="#000000"></path>
                    <path d="M10.5705328,5.22862322 C11.6987089,5.79271417 11.6987089,6.70728222 10.5705328,7.27137389 C9.44234944,7.83546556 7.61320611,7.83546556 6.48502278,7.27137389 C5.35684667,6.70728222 5.35684667,5.79271417 6.48502278,5.22862322 C7.61320611,4.664533 9.44234944,4.664533 10.5705328,5.22862322" id="Stroke-19" stroke="#999999" stroke-width="0.5" stroke-linecap="square"></path>
                </g>
                <g id="Rectangle-180-Copy-3" transform="translate(1.000000, 519.000000)">
                    <rect id="Rectangle-180" fill="#F6F6F6" sketch:type="MSShapeGroup" x="0" y="0" width="320" height="49"></rect>
                    <g id="Group" transform="translate(28.000000, 12.500000)">
                        <g id="Imported-Layers" transform="translate(0.000000, 2.413043)" sketch:type="MSShapeGroup">
                            <path d="M3.19565217,7.12173913 L3.19565217,18.7173913 L8.67391304,18.7173913 L8.67391304,14.1521739 L12.326087,14.1521739 L12.326087,18.7173913 L17.8043478,18.7173913 L17.8043478,7.12173913" id="Fill-1" fill-opacity="0" fill="#000000"></path>
                            <path d="M3.19565217,7.12173913 L3.19565217,18.7173913 L8.67391304,18.7173913 L8.67391304,14.1521739 L12.326087,14.1521739 L12.326087,18.7173913 L17.8043478,18.7173913 L17.8043478,7.12173913" id="Stroke-3" stroke="#3A3942" stroke-linecap="round" stroke-linejoin="round"></path>
                            <path d="M0.456521739,9.58695652 L10.5,0.456521739 L20.5434783,9.58695652" id="Fill-4" fill-opacity="0" fill="#000000"></path>
                            <path d="M0.456521739,9.58695652 L10.5,0.456521739 L20.5434783,9.58695652" id="Stroke-5" stroke="#3A3942" stroke-linecap="round" stroke-linejoin="round"></path>
                            <path d="M8.67391304,6.84782609 L12.326087,6.84782609 L12.326087,10.5 L8.67391304,10.5 L8.67391304,6.84782609 Z" id="Fill-6" fill-opacity="0" fill="#000000"></path>
                            <path d="M8.67391304,6.84782609 L12.326087,6.84782609 L12.326087,10.5 L8.67391304,10.5 L8.67391304,6.84782609 Z" id="Stroke-7" stroke="#3A3942" stroke-linecap="round" stroke-linejoin="round"></path>
                        </g>
                        <g id="Imported-Layers" transform="translate(61.000000, 2.500000)">
                            <mask id="mask-2" sketch:name="Clip 2" fill="white">
                                <use xlink:href="#path-1"></use>
                            </mask>
                            <g id="Clip-2"></g>
                            <path d="M4.9875,13.8541667 L14.8041667,13.8541667" id="Fill-1" fill-opacity="0" fill="#000000" sketch:type="MSShapeGroup" mask="url(#mask-2)"></path>
                            <path d="M4.9875,13.8541667 L14.8041667,13.8541667" id="Stroke-3" stroke="#3A3942" stroke-linecap="round" stroke-linejoin="round" sketch:type="MSShapeGroup" mask="url(#mask-2)"></path>
                            <path d="M15.4375,18.6041667 L15.4375,17.8125 C15.4375,14.3291667 14.0916667,11.2416667 12.1916667,9.89583333 C14.0916667,8.55 15.4375,5.4625 15.4375,1.97916667 L15.4375,1.1875" id="Fill-4" fill-opacity="0" fill="#000000" sketch:type="MSShapeGroup" mask="url(#mask-2)"></path>
                            <path d="M15.4375,18.6041667 L15.4375,17.8125 C15.4375,14.3291667 14.0916667,11.2416667 12.1916667,9.89583333 C14.0916667,8.55 15.4375,5.4625 15.4375,1.97916667 L15.4375,1.1875" id="Stroke-5" stroke="#3A3942" stroke-linecap="round" stroke-linejoin="round" sketch:type="MSShapeGroup" mask="url(#mask-2)"></path>
                            <path d="M4.35416667,1.1875 L4.35416667,1.97916667 C4.35416667,5.4625 5.7,8.55 7.6,9.89583333 C5.7,11.2416667 4.35416667,14.3291667 4.35416667,17.8125 L4.35416667,18.6041667" id="Fill-6" fill-opacity="0" fill="#000000" sketch:type="MSShapeGroup" mask="url(#mask-2)"></path>
                            <path d="M4.35416667,1.1875 L4.35416667,1.97916667 C4.35416667,5.4625 5.7,8.55 7.6,9.89583333 C5.7,11.2416667 4.35416667,14.3291667 4.35416667,17.8125 L4.35416667,18.6041667" id="Stroke-7" stroke="#3A3942" stroke-linecap="round" stroke-linejoin="round" sketch:type="MSShapeGroup" mask="url(#mask-2)"></path>
                            <path d="M2.77083333,1.1875 L17.0208333,1.1875" id="Fill-8" fill-opacity="0" fill="#000000" sketch:type="MSShapeGroup" mask="url(#mask-2)"></path>
                            <path d="M2.77083333,1.1875 L17.0208333,1.1875" id="Stroke-9" stroke="#3A3942" stroke-linecap="round" stroke-linejoin="round" sketch:type="MSShapeGroup" mask="url(#mask-2)"></path>
                            <path d="M2.77083333,18.6041667 L17.0208333,18.6041667" id="Fill-10" fill-opacity="0" fill="#000000" sketch:type="MSShapeGroup" mask="url(#mask-2)"></path>
                            <path d="M2.77083333,18.6041667 L17.0208333,18.6041667" id="Stroke-11" stroke="#3A3942" stroke-linecap="round" stroke-linejoin="round" sketch:type="MSShapeGroup" mask="url(#mask-2)"></path>
                        </g>
                        <g id="Imported-Layers" transform="translate(120.000000, 0.000000)" sketch:type="MSShapeGroup">
                            <path d="M12.5,7.5 L12.5,17.5" id="Fill-1" fill-opacity="0" fill="#000000"></path>
                            <path d="M12.5,7.5 L12.5,17.5" id="Stroke-3" stroke="#3A3942" stroke-linecap="round" stroke-linejoin="round"></path>
                            <path d="M17.5,12.5 L7.5,12.5" id="Fill-4" fill-opacity="0" fill="#000000"></path>
                            <path d="M17.5,12.5 L7.5,12.5" id="Stroke-5" stroke="#3A3942" stroke-linecap="round" stroke-linejoin="round"></path>
                            <path d="M20.27817,4.72183 C24.57394,9.01759 24.57394,15.982407 20.27817,20.278175 C15.98241,24.5739418 9.017593,24.5739418 4.721825,20.278175 C0.4260582,15.982407 0.4260582,9.01759 4.721825,4.72183 C9.017593,0.42606 15.98241,0.42606 20.27817,4.72183" id="Fill-6" fill-opacity="0" fill="#000000"></path>
                            <path d="M20.27817,4.721825 C24.57394,9.017593 24.57394,15.98241 20.27817,20.27817 C15.98241,24.57394 9.017593,24.57394 4.721825,20.27817 C0.4260582,15.98241 0.4260582,9.017593 4.721825,4.721825 C9.017593,0.4260582 15.98241,0.4260582 20.27817,4.721825" id="Stroke-7" stroke="#3A3942" stroke-linecap="round" stroke-linejoin="round"></path>
                        </g>
                        <g id="Imported-Layers" transform="translate(184.000000, 1.500000)" sketch:type="MSShapeGroup">
                            <path d="M18.2875,15.1374991 C19.6875,13.7375 20.5625,11.9875 20.5625,10.0625 C20.5625,5.6875 16.275,2.1875 10.9375,2.1875 C5.6,2.1875 1.3125,5.6875 1.3125,10.0625 C1.3125,14.4375 5.6,17.9375 10.9375,17.9375 C11.9,17.9375 12.775,17.85 13.65,17.5875 L18.8125,19.6875 L18.2875,15.1374991 L18.2875,15.1374991 Z" id="Fill-1" fill-opacity="0" fill="#000000"></path>
                            <path d="M18.2875,15.1375 C19.6875,13.7375 20.5625,11.9875 20.5625,10.0625 C20.5625,5.6875 16.275,2.1875 10.9375,2.1875 C5.6,2.1875 1.3125,5.6875 1.3125,10.0625 C1.3125,14.4375 5.6,17.9375 10.9375,17.9375 C11.9,17.9375 12.775,17.85 13.65,17.5875 L18.8125,19.6875 L18.2875,15.1375 L18.2875,15.1375 Z" id="Stroke-3" stroke="#3A3942" stroke-linecap="round" stroke-linejoin="round"></path>
                            <path d="M7.4375,8.3125 L14.4375,8.3125" id="Fill-4" fill-opacity="0" fill="#000000"></path>
                            <path d="M7.4375,8.3125 L14.4375,8.3125" id="Stroke-5" stroke="#3A3942" stroke-linecap="round" stroke-linejoin="round"></path>
                            <path d="M7.4375,11.8125 L11.8125,11.8125" id="Fill-6" fill-opacity="0" fill="#000000"></path>
                            <path d="M7.4375,11.8125 L11.8125,11.8125" id="Stroke-7" stroke="#3A3942" stroke-linecap="round" stroke-linejoin="round"></path>
                        </g>
                        <g id="Imported-Layers" transform="translate(245.000000, 2.500000)" sketch:type="MSShapeGroup">
                            <path d="M0.413043478,18.5869565 C0.413043478,14.0244783 4.11143478,10.326087 8.67391304,10.326087 L10.326087,10.326087 C14.8885652,10.326087 18.5869565,14.0244783 18.5869565,18.5869565" id="Fill-1" fill-opacity="0" fill="#000000"></path>
                            <path d="M0.413043478,18.5869565 C0.413043478,14.0244783 4.11143478,10.326087 8.67391304,10.326087 L10.326087,10.326087 C14.8885652,10.326087 18.5869565,14.0244783 18.5869565,18.5869565" id="Stroke-3" stroke="#38BC9C" stroke-linecap="round" stroke-linejoin="round"></path>
                            <path d="M13.0047896,1.86477565 C14.9404352,3.8004213 14.9404352,6.93870913 13.0047896,8.87435478 C11.0691439,10.8099971 7.93085609,10.8099971 5.99520961,8.87435478 C4.05956809,6.93870913 4.05956809,3.8004213 5.99520961,1.86477565 C7.93085609,-0.07087 11.0691439,-0.07087 13.0047896,1.86477565" id="Fill-4" fill-opacity="0" fill="#000000"></path>
                            <path d="M13.0047896,1.86477483 C14.9404352,3.80041717 14.9404352,6.93871326 13.0047896,8.87435478 C11.0691439,10.8100004 7.93085609,10.8100004 5.99520961,8.87435478 C4.05956809,6.93871326 4.05956809,3.80041717 5.99520961,1.86477483 C7.93085609,-0.0708670261 11.0691439,-0.0708670261 13.0047896,1.86477483" id="Stroke-5" stroke="#38BC9C" stroke-linecap="round" stroke-linejoin="round"></path>
                        </g>
                    </g>
                </g>
                <g transform="translate(1.000000, 274.000000)">
                    <rect id="Rectangle-357" fill="#FFFFFF" sketch:type="MSShapeGroup" x="0" y="0" width="320" height="77"></rect>
                    <g id="Group-Copy" transform="translate(251.000000, 10.578947)" sketch:type="MSShapeGroup">
                        <g id="Imported-Layers-Copy" transform="translate(0.000000, -0.000000)">
                            <path d="M4.42105263,0.0465373961 L5.81717452,3.02493075 L8.79556787,3.02493075 L6.60831025,5.30526316 L7.49252078,8.79556787 L4.42105263,7.02714681 L1.34958449,8.79556787 L2.23379501,5.30526316 L0.0465373961,3.02493075 L3.02493075,3.02493075 L4.42105263,0.0465373961 Z" id="Fill-1" fill="#38BC9C"></path>
                            <path d="M4.42105263,0.0465373961 L5.81717452,3.02493075 L8.79556787,3.02493075 L6.60831025,5.30526316 L7.49252078,8.79556787 L4.42105263,7.02714681 L1.34958449,8.79556787 L2.23379501,5.30526316 L0.0465373961,3.02493075 L3.02493075,3.02493075 L4.42105263,0.0465373961 Z" id="Stroke-3"></path>
                        </g>
                        <g id="Imported-Layers" transform="translate(11.789474, -0.000000)">
                            <path d="M4.42105263,0.0465373961 L5.81717452,3.02493075 L8.79556787,3.02493075 L6.60831025,5.30526316 L7.49252078,8.79556787 L4.42105263,7.02714681 L1.34958449,8.79556787 L2.23379501,5.30526316 L0.0465373961,3.02493075 L3.02493075,3.02493075 L4.42105263,0.0465373961 Z" id="Fill-1" fill="#38BC9C"></path>
                            <path d="M4.42105263,0.0465373961 L5.81717452,3.02493075 L8.79556787,3.02493075 L6.60831025,5.30526316 L7.49252078,8.79556787 L4.42105263,7.02714681 L1.34958449,8.79556787 L2.23379501,5.30526316 L0.0465373961,3.02493075 L3.02493075,3.02493075 L4.42105263,0.0465373961 Z" id="Stroke-3"></path>
                        </g>
                        <g id="Imported-Layers-Copy-2" transform="translate(23.578947, -0.000000)">
                            <path d="M4.42105263,0.0465373961 L5.81717452,3.02493075 L8.79556787,3.02493075 L6.60831025,5.30526316 L7.49252078,8.79556787 L4.42105263,7.02714681 L1.34958449,8.79556787 L2.23379501,5.30526316 L0.0465373961,3.02493075 L3.02493075,3.02493075 L4.42105263,0.0465373961 Z" id="Fill-1" fill-opacity="0" fill="#000000"></path>
                            <path d="M4.42105263,0.0465373961 L5.81717452,3.02493075 L8.79556787,3.02493075 L6.60831025,5.30526316 L7.49252078,8.79556787 L4.42105263,7.02714681 L1.34958449,8.79556787 L2.23379501,5.30526316 L0.0465373961,3.02493075 L3.02493075,3.02493075 L4.42105263,0.0465373961 Z" id="Stroke-3" stroke="#AEAEAE" stroke-width="0.5" stroke-linecap="square"></path>
                        </g>
                        <g id="Imported-Layers-Copy-3" transform="translate(35.368421, -0.000000)">
                            <path d="M4.42105263,0.0465373961 L5.81717452,3.02493075 L8.79556787,3.02493075 L6.60831025,5.30526316 L7.49252078,8.79556787 L4.42105263,7.02714681 L1.34958449,8.79556787 L2.23379501,5.30526316 L0.0465373961,3.02493075 L3.02493075,3.02493075 L4.42105263,0.0465373961 Z" id="Fill-1" fill-opacity="0" fill="#000000"></path>
                            <path d="M4.42105263,0.0465373961 L5.81717452,3.02493075 L8.79556787,3.02493075 L6.60831025,5.30526316 L7.49252078,8.79556787 L4.42105263,7.02714681 L1.34958449,8.79556787 L2.23379501,5.30526316 L0.0465373961,3.02493075 L3.02493075,3.02493075 L4.42105263,0.0465373961 Z" id="Stroke-3" stroke="#AEAEAE" stroke-width="0.5" stroke-linecap="square"></path>
                        </g>
                        <g id="Imported-Layers-Copy-4" transform="translate(47.157895, -0.000000)">
                            <path d="M4.42105263,0.0465373961 L5.81717452,3.02493075 L8.79556787,3.02493075 L6.60831025,5.30526316 L7.49252078,8.79556787 L4.42105263,7.02714681 L1.34958449,8.79556787 L2.23379501,5.30526316 L0.0465373961,3.02493075 L3.02493075,3.02493075 L4.42105263,0.0465373961 Z" id="Fill-1"></path>
                            <path d="M4.42105263,0.0465373961 L5.81717452,3.02493075 L8.79556787,3.02493075 L6.60831025,5.30526316 L7.49252078,8.79556787 L4.42105263,7.02714681 L1.34958449,8.79556787 L2.23379501,5.30526316 L0.0465373961,3.02493075 L3.02493075,3.02493075 L4.42105263,0.0465373961 Z" id="Stroke-3" stroke="#AEAEAE" stroke-width="0.5" stroke-linecap="square"></path>
                        </g>
                    </g>
                    <text id="Вот-оно-настоящее-пр" sketch:type="MSTextLayer" font-family="Helvetica Neue" font-size="14" font-weight="260" fill="#3A3942">
                        <tspan x="13" y="20">Вот оно настоящее приложение!</tspan>
                    </text>
                    <text id="Seva-–-22-февраля-20" sketch:type="MSTextLayer" font-family="Helvetica Neue" font-size="9" font-weight="260" fill="#3A3942">
                        <tspan x="13" y="32.5">Seva – 22 февраля 2016</tspan>
                    </text>
                    <text id="Давно-выяснено,-что-" sketch:type="MSTextLayer" font-family="Helvetica Neue" font-size="9" font-weight="260" line-spacing="14" fill="#000000">
                        <tspan x="13" y="50.5">Давно выяснено, что при оценке дизайна и композиции читаемый текст </tspan>
                        <tspan x="13" y="64.7610626">мешает сосредоточиться. Lorem Ipsum используют потому.</tspan>
                    </text>
                </g>
            </g>
        </g>
    </g>
</svg>