<?xml version="1.0" encoding="UTF-8" standalone="no"?>
<svg width="320px" height="568px" viewBox="0 0 320 568" version="1.1" xmlns="http://www.w3.org/2000/svg" xmlns:xlink="http://www.w3.org/1999/xlink" xmlns:sketch="http://www.bohemiancoding.com/sketch/ns">
    <!-- Generator: Sketch 3.3 (11970) - http://www.bohemiancoding.com/sketch -->
    <title>Group</title>
    <desc>Created with Sketch.</desc>
    <defs>
        <filter x="-50%" y="-50%" width="200%" height="200%" filterUnits="objectBoundingBox" id="filter-1">
            <feOffset dx="0" dy="2" in="SourceAlpha" result="shadowOffsetOuter1"></feOffset>
            <feGaussianBlur stdDeviation="3.5" in="shadowOffsetOuter1" result="shadowBlurOuter1"></feGaussianBlur>
            <feColorMatrix values="0 0 0 0 0   0 0 0 0 0   0 0 0 0 0  0 0 0 0.14 0" in="shadowBlurOuter1" type="matrix" result="shadowMatrixOuter1"></feColorMatrix>
            <feMerge>
                <feMergeNode in="shadowMatrixOuter1"></feMergeNode>
                <feMergeNode in="SourceGraphic"></feMergeNode>
            </feMerge>
        </filter>
    </defs>
    <g id="Elements" stroke="none" stroke-width="1" fill="none" fill-rule="evenodd" sketch:type="MSPage">
        <g id="iPhone-5/5S/5C-Copy-7" sketch:type="MSArtboardGroup">
            <g id="Group" sketch:type="MSLayerGroup">
                <rect id="Rectangle-452" fill="#F6F6F6" sketch:type="MSShapeGroup" x="0" y="0" width="320" height="568"></rect>
                <g id="Status-Bar-White-Copy-3" fill="#030303">
                    <path d="M7.89333333,13 C9.18936155,13 10.24,11.7687831 10.24,10.25 C10.24,8.73121694 9.18936155,7.5 7.89333333,7.5 C6.59730512,7.5 5.54666667,8.73121694 5.54666667,10.25 C5.54666667,11.7687831 6.59730512,13 7.89333333,13 Z M13.8666667,13 C15.1626949,13 16.2133333,11.7687831 16.2133333,10.25 C16.2133333,8.73121694 15.1626949,7.5 13.8666667,7.5 C12.5706385,7.5 11.52,8.73121694 11.52,10.25 C11.52,11.7687831 12.5706385,13 13.8666667,13 Z M19.84,13 C21.1360282,13 22.1866667,11.7687831 22.1866667,10.25 C22.1866667,8.73121694 21.1360282,7.5 19.84,7.5 C18.5439718,7.5 17.4933333,8.73121694 17.4933333,10.25 C17.4933333,11.7687831 18.5439718,13 19.84,13 Z M25.8133333,13 C27.1093615,13 28.16,11.7687831 28.16,10.25 C28.16,8.73121694 27.1093615,7.5 25.8133333,7.5 C24.5173051,7.5 23.4666667,8.73121694 23.4666667,10.25 C23.4666667,11.7687831 24.5173051,13 25.8133333,13 Z M25.8133333,12.5 C26.8737201,12.5 27.7333333,11.4926407 27.7333333,10.25 C27.7333333,9.00735931 26.8737201,8 25.8133333,8 C24.7529466,8 23.8933333,9.00735931 23.8933333,10.25 C23.8933333,11.4926407 24.7529466,12.5 25.8133333,12.5 Z M31.7866667,13 C33.0826949,13 34.1333333,11.7687831 34.1333333,10.25 C34.1333333,8.73121694 33.0826949,7.5 31.7866667,7.5 C30.4906385,7.5 29.44,8.73121694 29.44,10.25 C29.44,11.7687831 30.4906385,13 31.7866667,13 Z M31.7866667,12.5 C32.8470534,12.5 33.7066667,11.4926407 33.7066667,10.25 C33.7066667,9.00735931 32.8470534,8 31.7866667,8 C30.7262799,8 29.8666667,9.00735931 29.8666667,10.25 C29.8666667,11.4926407 30.7262799,12.5 31.7866667,12.5 Z" id="Mobile-Signal" sketch:type="MSShapeGroup"></path>
                    <text id="Carrier" sketch:type="MSTextLayer" font-family="Helvetica Neue" font-size="10.24" font-weight="normal" letter-spacing="0.200000003">
                        <tspan x="37.5466667" y="13.5">Sketch</tspan>
                    </text>
                    <path d="M82.0432391,12.4385043 C81.6011724,11.8454456 80.9406819,11.4689119 80.2027205,11.4689119 C79.4786195,11.4689119 78.8291067,11.8314341 78.387341,12.4053177 L80.2325667,14.5 L82.0432391,12.4385043 Z M83.9027169,10.3214425 C82.9822117,9.19174563 81.6652277,8.48445596 80.2027205,8.48445596 C78.752659,8.48445596 77.4456545,9.17975893 76.5263102,10.2926936 L77.4564682,11.3486 C78.1373482,10.5053708 79.1156463,9.97668394 80.2027205,9.97668394 C81.3029407,9.97668394 82.291738,10.518235 82.9735437,11.3793293 L83.9027169,10.3214425 L83.9027169,10.3214425 Z M85.76,8.20687933 C84.3630573,6.53943672 82.3898197,5.5 80.2027205,5.5 C78.0266755,5.5 76.0623357,6.52895605 74.6666667,8.18164431 L75.5964228,9.23709441 C76.7539881,7.85431655 78.389668,6.99222798 80.2027205,6.99222798 C82.0275222,6.99222798 83.672645,7.86552609 84.8314622,9.26404272 L85.76,8.20687933 Z" id="Wi-Fi" sketch:type="MSShapeGroup"></path>
                    <text id="9:41-AM" sketch:type="MSTextLayer" font-family="Helvetica Neue" font-size="10.24" font-weight="normal" sketch:alignment="middle" letter-spacing="0.100000001">
                        <tspan x="140.059173" y="13.5">9:41 AM</tspan>
                    </text>
                    <text id="100%" sketch:type="MSTextLayer" font-family="Helvetica Neue" font-size="10.24" font-weight="normal" sketch:alignment="right">
                        <tspan x="264.51968" y="13.5">100%</tspan>
                    </text>
                    <path d="M295.906592,5.5 C295.074524,5.5 294.4,6.16802155 294.4,7.00530324 L294.4,13.4946968 C294.4,14.3260528 295.07208,15 295.906592,15 L312.093408,15 C312.925476,15 313.6,14.3319784 313.6,13.4946968 L313.6,7.00530324 C313.6,6.17394722 312.92792,5.5 312.093408,5.5 L295.906592,5.5 Z M314.026667,8.5 L314.026667,12 L314.666667,12 C315.020129,12 315.306667,11.7135803 315.306667,11.3580461 L315.306667,9.14195395 C315.306667,8.78741257 315.022593,8.5 314.666667,8.5 L314.026667,8.5 Z M295.826092,6 C295.274125,6 294.826667,6.45699692 294.826667,7.00844055 L294.826667,13.4915594 C294.826667,14.0485058 295.280182,14.5 295.826092,14.5 L312.173908,14.5 C312.725875,14.5 313.173333,14.0430031 313.173333,13.4915594 L313.173333,7.00844055 C313.173333,6.45149422 312.719818,6 312.173908,6 L295.826092,6 Z M295.758009,6.5 C295.479284,6.5 295.253333,6.71637201 295.253333,6.99209595 L295.253333,13.5079041 C295.253333,13.7796811 295.474514,14 295.758009,14 L312.241991,14 C312.520716,14 312.746667,13.783628 312.746667,13.5079041 L312.746667,6.99209595 C312.746667,6.72031886 312.525486,6.5 312.241991,6.5 L295.758009,6.5 Z" id="Battery" sketch:type="MSShapeGroup"></path>
                </g>
                <text id="Новое-задание" sketch:type="MSTextLayer" font-family="Helvetica Neue" font-size="18" font-weight="260" fill="#3A3942">
                    <tspan x="102" y="42">Новое задание</tspan>
                </text>
                <g id="Imported-Layers" transform="translate(11.000000, 29.500000)" sketch:type="MSShapeGroup">
                    <path d="M14.9375,5.85416667 L0.770833333,5.85416667" id="Fill-1" fill-opacity="0" fill="#000000"></path>
                    <path d="M14.9375,5.85416667 L0.770833333,5.85416667" id="Stroke-3" stroke="#3A3942" stroke-linecap="round" stroke-linejoin="round"></path>
                    <path d="M5.72916667,10.8125 L0.770833333,5.85416667 L5.72916667,0.895833333" id="Fill-4" fill-opacity="0" fill="#000000"></path>
                    <path d="M5.72916667,10.8125 L0.770833333,5.85416667 L5.72916667,0.895833333" id="Stroke-5" stroke="#3A3942" stroke-linecap="round" stroke-linejoin="round"></path>
                </g>
                <g id="Map-View-Copy-5" transform="translate(13.000000, 369.000000)"></g>
                <g transform="translate(0.000000, 137.500000)">
                    <rect id="Rectangle-207" fill="#FFFFFF" sketch:type="MSShapeGroup" x="0" y="0" width="320" height="45"></rect>
                    <text id="Математика" sketch:type="MSTextLayer" font-family="Helvetica Neue" font-size="14" font-weight="260" fill="#3A3942">
                        <tspan x="44" y="30.5">Математика</tspan>
                    </text>
                    <rect id="Rectangle-207" fill="#FFFFFF" sketch:type="MSShapeGroup" x="0" y="45.5" width="320" height="45"></rect>
                    <g id="Imported-Layers-Copy" transform="translate(306.089996, 18.500000)" stroke="#AEAEAE" stroke-linecap="square" sketch:type="MSShapeGroup">
                        <path d="M0.318181818,0.318181818 L3.5,3.5 L0.318181818,6.68181818" id="Stroke-3"></path>
                    </g>
                    <text id="Тип-работы" sketch:type="MSTextLayer" font-family="Helvetica Neue" font-size="12" font-weight="260" fill="#AEAEAE">
                        <tspan x="44" y="71.9279861">Тип работы</tspan>
                    </text>
                    <rect id="Rectangle-207" fill="#FFFFFF" sketch:type="MSShapeGroup" x="0" y="91.5" width="320" height="45"></rect>
                    <text id="Цена,-руб." sketch:type="MSTextLayer" font-family="Helvetica Neue" font-size="12" font-weight="260" fill="#AEAEAE">
                        <tspan x="44" y="118">Цена, руб.</tspan>
                    </text>
                    <rect id="Rectangle-207" fill="#FFFFFF" sketch:type="MSShapeGroup" x="0" y="137.5" width="320" height="45"></rect>
                    <g id="Imported-Layers-Copy-6" transform="translate(12.000000, 152.500000)" sketch:type="MSShapeGroup">
                        <path d="M7.8125,6.5625 L7.8125,9.0625 L10.3125,9.0625" id="Fill-1" fill-opacity="0" fill="#000000"></path>
                        <path d="M7.8125,6.5625 L7.8125,9.0625 L10.3125,9.0625" id="Stroke-3" stroke="#3A3942" stroke-width="0.5" stroke-linecap="round" stroke-linejoin="round"></path>
                        <path d="M2.1875,14.6875 L4.25,12.6250006" id="Fill-4" fill-opacity="0" fill="#000000"></path>
                        <path d="M2.1875,14.6875 L4.25,12.625" id="Stroke-5" stroke="#3A3942" stroke-width="0.5" stroke-linecap="round" stroke-linejoin="round"></path>
                        <path d="M13.4375,14.6875 L11.375,12.6250006" id="Fill-6" fill-opacity="0" fill="#000000"></path>
                        <path d="M13.4375,14.6875 L11.375,12.625" id="Stroke-7" stroke="#3A3942" stroke-width="0.5" stroke-linecap="round" stroke-linejoin="round"></path>
                        <path d="M11.3480312,5.52696875 C13.3006562,7.4795875 13.3006562,10.6454125 11.3480312,12.5980337 C9.3954125,14.5506554 6.2295875,14.5506554 4.27696625,12.5980337 C2.32434437,10.6454125 2.32434437,7.4795875 4.27696625,5.52696875 C6.2295875,3.57434375 9.3954125,3.57434375 11.3480312,5.52696875" id="Fill-8" fill-opacity="0" fill="#000000"></path>
                        <path d="M11.3480312,12.5980313 C9.3954125,14.5506563 6.2295875,14.5506563 4.27696625,12.5980313 C2.32434437,10.6454125 2.32434437,7.4795875 4.27696625,5.52696625 C6.2295875,3.57434438 9.3954125,3.57434438 11.3480312,5.52696625 C13.3006562,7.4795875 13.3006562,10.6454125 11.3480312,12.5980313 Z" id="Stroke-9" stroke="#3A3942" stroke-width="0.5" stroke-linecap="round" stroke-linejoin="round"></path>
                        <path d="M6.125,1.75 C5.625,1.25 4.875,0.9375 4.0625,0.9375 C2.3125,0.9375 0.9375,2.3125 0.9375,4.0625 C0.9375,4.5625 1.0625,5 1.25,5.4375 C2.3125,3.5625 4.0625,2.25 6.125,1.75 L6.125,1.75 Z" id="Fill-10" fill-opacity="0" fill="#000000"></path>
                        <path d="M6.125,1.75 C5.625,1.25 4.875,0.9375 4.0625,0.9375 C2.3125,0.9375 0.9375,2.3125 0.9375,4.0625 C0.9375,4.5625 1.0625,5 1.25,5.4375 C2.3125,3.5625 4.0625,2.25 6.125,1.75 L6.125,1.75 Z" id="Stroke-11" stroke="#3A3942" stroke-width="0.5" stroke-linecap="round" stroke-linejoin="round"></path>
                        <path d="M9.5,1.75 C10,1.25 10.75,0.9375 11.5625,0.9375 C13.3125,0.9375 14.6875,2.3125 14.6875,4.0625 C14.6875,4.5625 14.5625,5 14.375,5.4375 C13.3125,3.5625 11.5625,2.25 9.5,1.75 L9.5,1.75 Z" id="Fill-12" fill-opacity="0" fill="#000000"></path>
                        <path d="M9.5,1.75 C10,1.25 10.75,0.9375 11.5625,0.9375 C13.3125,0.9375 14.6875,2.3125 14.6875,4.0625 C14.6875,4.5625 14.5625,5 14.375,5.4375 C13.3125,3.5625 11.5625,2.25 9.5,1.75 L9.5,1.75 Z" id="Stroke-13" stroke="#3A3942" stroke-width="0.5" stroke-linecap="round" stroke-linejoin="round"></path>
                    </g>
                    <text id="Срок-сдачи" sketch:type="MSTextLayer" font-family="Helvetica Neue" font-size="12" font-weight="260" fill="#AEAEAE">
                        <tspan x="44" y="164">Срок сдачи</tspan>
                    </text>
                    <rect id="Rectangle-207" fill="#FFFFFF" sketch:type="MSShapeGroup" x="0" y="183.5" width="320" height="45"></rect>
                    <text id="Описание" sketch:type="MSTextLayer" font-family="Helvetica Neue" font-size="12" font-weight="260" fill="#AEAEAE">
                        <tspan x="44" y="209.019989">Описание</tspan>
                    </text>
                    <g id="Imported-Layers" transform="translate(306.089996, 64.500000)" stroke="#AEAEAE" stroke-linecap="square" sketch:type="MSShapeGroup">
                        <path d="M0.318181818,0.318181818 L3.5,3.5 L0.318181818,6.68181818" id="Stroke-3"></path>
                    </g>
                    <g id="Imported-Layers" transform="translate(298.000000, 153.500000)" sketch:type="MSShapeGroup">
                        <path d="M11.7391304,5.43478261 L11.7391304,12.7391304 L0.260869565,12.7391304 L0.260869565,5.43478261" id="Fill-1" fill-opacity="0" fill="#000000"></path>
                        <path d="M11.7391304,5.43478261 L11.7391304,12.7391304 L0.260869565,12.7391304 L0.260869565,5.43478261" id="Stroke-3" stroke="#AEAEAE" stroke-width="0.5" stroke-linecap="square"></path>
                        <path d="M0.260869565,2.30434783 L11.7391304,2.30434783 L11.7391304,5.43478261 L0.260869565,5.43478261 L0.260869565,2.30434783 Z" id="Fill-4" fill-opacity="0" fill="#000000"></path>
                        <path d="M0.260869565,2.30434783 L11.7391304,2.30434783 L11.7391304,5.43478261 L0.260869565,5.43478261 L0.260869565,2.30434783 Z" id="Stroke-5" stroke="#AEAEAE" stroke-width="0.5" stroke-linecap="square"></path>
                        <path d="M2.34782609,7.52173913 L3.39130435,7.52173913 L3.39130435,8.04347826 L2.34782609,8.04347826 L2.34782609,7.52173913 Z" id="Fill-12" fill-opacity="0" fill="#000000"></path>
                        <path d="M2.34782609,7.52173913 L3.39130435,7.52173913 L3.39130435,8.04347826 L2.34782609,8.04347826 L2.34782609,7.52173913 Z" id="Stroke-13" stroke="#AEAEAE" stroke-linecap="square"></path>
                        <path d="M5.47826087,7.52173913 L6.52173913,7.52173913 L6.52173913,8.04347826 L5.47826087,8.04347826 L5.47826087,7.52173913 Z" id="Fill-14" fill-opacity="0" fill="#000000"></path>
                        <path d="M5.47826087,7.52173913 L6.52173913,7.52173913 L6.52173913,8.04347826 L5.47826087,8.04347826 L5.47826087,7.52173913 Z" id="Stroke-15" stroke="#AEAEAE" stroke-linecap="square"></path>
                        <path d="M2.34782609,10.1304348 L3.39130435,10.1304348 L3.39130435,10.6521739 L2.34782609,10.6521739 L2.34782609,10.1304348 Z" id="Fill-16" fill-opacity="0" fill="#000000"></path>
                        <path d="M2.34782609,10.1304348 L3.39130435,10.1304348 L3.39130435,10.6521739 L2.34782609,10.6521739 L2.34782609,10.1304348 Z" id="Stroke-17" stroke="#AEAEAE" stroke-linecap="square"></path>
                        <path d="M5.47826087,10.1304348 L6.52173913,10.1304348 L6.52173913,10.6521739 L5.47826087,10.6521739 L5.47826087,10.1304348 Z" id="Fill-18" fill-opacity="0" fill="#000000"></path>
                        <path d="M5.47826087,10.1304348 L6.52173913,10.1304348 L6.52173913,10.6521739 L5.47826087,10.6521739 L5.47826087,10.1304348 Z" id="Stroke-19" stroke="#AEAEAE" stroke-linecap="square"></path>
                        <path d="M8.60869565,7.52173913 L9.65217391,7.52173913 L9.65217391,8.04347826 L8.60869565,8.04347826 L8.60869565,7.52173913 Z" id="Fill-20" fill-opacity="0" fill="#000000"></path>
                        <path d="M8.60869565,7.52173913 L9.65217391,7.52173913 L9.65217391,8.04347826 L8.60869565,8.04347826 L8.60869565,7.52173913 Z" id="Stroke-21" stroke="#AEAEAE" stroke-linecap="square"></path>
                        <path d="M3.25,1 L3.25,3.5" id="Line" stroke="#AEAEAE" stroke-width="0.5" stroke-linecap="square"></path>
                        <path d="M6,1 L6,3.5" id="Line-Copy" stroke="#AEAEAE" stroke-width="0.5" stroke-linecap="square"></path>
                        <path d="M9,1 L9,3.5" id="Line-Copy-2" stroke="#AEAEAE" stroke-width="0.5" stroke-linecap="square"></path>
                    </g>
                    <g id="Imported-Layers" transform="translate(12.000000, 15.000000)" sketch:type="MSShapeGroup">
                        <path d="M3.6875,7.7625 L3.6875,13.1875 C3.6875,14.675 6.05,15.8125 8.9375,15.8125 C11.825,15.8125 14.1875,14.675 14.1875,13.1875 L14.1875,7.7625" id="Fill-1" fill-opacity="0" fill="#000000"></path>
                        <path d="M3.6875,7.7625 L3.6875,13.1875 C3.6875,14.675 6.05,15.8125 8.9375,15.8125 C11.825,15.8125 14.1875,14.675 14.1875,13.1875 L14.1875,7.7625" id="Stroke-3" stroke="#3A3942" stroke-width="0.5"></path>
                        <path d="M16.8125,5.925 L16.8125,12.3125" id="Fill-4" fill-opacity="0" fill="#000000"></path>
                        <path d="M16,6.5 L16,12.3125" id="Stroke-5" stroke="#3A3942" stroke-width="0.5"></path>
                        <path d="M8.9375,11.4375 L0.1875,5.3125 L8.9375,0.0625 L17.6875,5.3125 L8.9375,11.4375 Z" id="Fill-6" fill-opacity="0" fill="#000000"></path>
                        <path d="M8.9375,11.4375 L0.1875,5.3125 L8.9375,0.0625 L17.6875,5.3125 L8.9375,11.4375 Z" id="Stroke-7" stroke="#3A3942" stroke-width="0.5" stroke-linecap="square"></path>
                    </g>
                    <g id="Imported-Layers" transform="translate(12.000000, 59.500000)" sketch:type="MSShapeGroup">
                        <path d="M10.2708333,7.3125 L7.5,7.3125 C6.39166667,7.3125 5.52083333,6.44166667 5.52083333,5.33333333 L5.52083333,5.33333333 C5.52083333,4.225 6.39166667,3.35416667 7.5,3.35416667 L10.2708333,3.35416667 L10.2708333,7.3125 L10.2708333,7.3125 Z" id="Fill-1" fill-opacity="0" fill="#000000"></path>
                        <path d="M10.2708333,7.3125 L7.5,7.3125 C6.39166667,7.3125 5.52083333,6.44166667 5.52083333,5.33333333 L5.52083333,5.33333333 C5.52083333,4.225 6.39166667,3.35416667 7.5,3.35416667 L10.2708333,3.35416667 L10.2708333,7.3125 L10.2708333,7.3125 Z" id="Stroke-3" stroke="#3A3942" stroke-width="0.5" stroke-linecap="square"></path>
                        <path d="M7.10416667,0.979166667 L8.6875,0.979166667 C9.55833333,0.979166667 10.2708333,1.69166667 10.2708333,2.5625 L10.2708333,7.3125" id="Fill-4" fill-opacity="0" fill="#000000"></path>
                        <path d="M7.10416667,0.979166667 L8.6875,0.979166667 C9.55833333,0.979166667 10.2708333,1.69166667 10.2708333,2.5625 L10.2708333,7.3125" id="Stroke-5" stroke="#3A3942" stroke-width="0.5" stroke-linecap="square"></path>
                        <path d="M0.770833333,8.10416667 L0.770833333,16.8125" id="Fill-6" fill-opacity="0" fill="#000000"></path>
                        <path d="M1.16666667,7.10333761 L1.16666667,15.8116709" id="Stroke-7" stroke="#3A3942" stroke-width="0.5" stroke-linecap="square"></path>
                        <path d="M3.14583333,16.8125 L0.770833333,16.8125 L0.770833333,12.0625 L3.14583333,12.0625 C4.49166667,12.0625 5.52083333,13.0916667 5.52083333,14.4375 L5.52083333,14.4375 C5.52083333,15.7833341 4.49166667,16.8125 3.14583333,16.8125 L3.14583333,16.8125 Z" id="Fill-8" fill-opacity="0" fill="#000000"></path>
                        <path d="M3.54166667,15.8116709 L1.16666667,15.8116709 L1.16666667,11.0616709 L3.54166667,11.0616709 C4.8875,11.0616709 5.91666667,12.0908376 5.91666667,13.4366709 L5.91666667,13.4366709 C5.91666667,14.7825043 4.8875,15.8116709 3.54166667,15.8116709 L3.54166667,15.8116709 Z" id="Stroke-9" stroke="#3A3942" stroke-width="0.5" stroke-linecap="square"></path>
                        <path d="M15.575,12.0625 C15.3375,11.5875 14.7833333,11.2708333 14.2291667,11.2708333 L12.6458333,11.2708333 C11.775,11.2708333 11.0625,11.9833333 11.0625,12.8541667 L11.0625,15.2291667 C11.0625,16.1 11.775,16.8125 12.6458333,16.8125 L14.2291667,16.8125 C14.7833333,16.8125 15.3375,16.4958333 15.575,16.0208333" id="Fill-10" fill-opacity="0" fill="#000000"></path>
                        <path d="M15.575,11.0616709 C15.3375,10.5866709 14.7833333,10.2700043 14.2291667,10.2700043 L12.6458333,10.2700043 C11.775,10.2700043 11.0625,10.9825043 11.0625,11.8533376 L11.0625,14.2283376 C11.0625,15.0991709 11.775,15.8116709 12.6458333,15.8116709 L14.2291667,15.8116709 C14.7833333,15.8116709 15.3375,15.4950043 15.575,15.0200043" id="Stroke-11" stroke="#3A3942" stroke-width="0.5" stroke-linecap="square"></path>
                    </g>
                    <g id="Imported-Layers" transform="translate(12.000000, 105.500000)" sketch:type="MSShapeGroup">
                        <path d="M11.0185185,12.1400463 L0.177083333,12.1400463 L0.177083333,0.177083333 L16.6261574,0.177083333 L16.6261574,8.32685185" id="Fill-1" fill-opacity="0" fill="#000000"></path>
                        <path d="M11.0185185,12.1400463 L0.177083333,12.1400463 L0.177083333,0.177083333 L16.6261574,0.177083333 L16.6261574,8.32685185" id="Stroke-3" stroke="#3A3942" stroke-width="0.5"></path>
                        <path d="M9.45900424,5.10118095 C10.0429838,5.68516046 10.0429838,6.63196917 9.45900424,7.21594868 C8.87502472,7.79992819 7.92821602,7.79992819 7.3442365,7.21594868 C6.76025699,6.63196917 6.76025699,5.68516046 7.3442365,5.10118095 C7.92821602,4.51720144 8.87502472,4.51720144 9.45900424,5.10118095" id="Fill-4" fill-opacity="0" fill="#000000"></path>
                        <path d="M9.45900424,5.10117796 C10.0429837,5.68515672 10.0429837,6.63197291 9.45900424,7.21594868 C8.87502472,7.79992819 7.92821602,7.79992819 7.3442365,7.21594868 C6.7602555,6.63197291 6.7602555,5.68515672 7.3442365,5.10117796 C7.92821602,4.51719994 8.87502472,4.51719994 9.45900424,5.10117796" id="Stroke-5" stroke="#3A3942" stroke-width="0.5" stroke-linecap="square"></path>
                        <path d="M14.3831019,6.90625 L14.3831019,4.66319444 C13.112037,4.66319444 12.1400463,3.6912037 12.1400463,2.42013889 L4.66319444,2.42013889 C4.66319444,3.6912037 3.6912037,4.66319444 2.42013889,4.66319444 L2.42013889,7.65393519 C3.6912037,7.65393519 4.66319444,8.62592593 4.66319444,9.89699074 L11.0185185,9.89699074" id="Fill-6" fill-opacity="0" fill="#000000"></path>
                        <path d="M14.3831019,6.90625 L14.3831019,4.66319444 C13.112037,4.66319444 12.1400463,3.6912037 12.1400463,2.42013889 L4.66319444,2.42013889 C4.66319444,3.6912037 3.6912037,4.66319444 2.42013889,4.66319444 L2.42013889,7.65393519 C3.6912037,7.65393519 4.66319444,8.62592593 4.66319444,9.89699074 L11.0185185,9.89699074" id="Stroke-7" stroke="#3A3942" stroke-width="0.5"></path>
                        <path d="M15.5793981,14.0092593 C16.1775463,14.3083333 16.6261574,14.6821759 16.6261574,15.130787 C16.6261574,15.9532407 15.2803241,16.6261574 13.6354167,16.6261574 C11.9905093,16.6261574 10.6446759,15.9532407 10.6446759,15.130787 C10.6446759,14.6821759 11.0185185,14.3083333 11.6914352,14.0092593" id="Fill-8" fill-opacity="0" fill="#000000"></path>
                        <path d="M15.5793981,14.0092593 C16.1775463,14.3083333 16.6261574,14.6821759 16.6261574,15.130787 C16.6261574,15.9532407 15.2803241,16.6261574 13.6354167,16.6261574 C11.9905093,16.6261574 10.6446759,15.9532407 10.6446759,15.130787 C10.6446759,14.6821759 11.0185185,14.3083333 11.6914352,14.0092593" id="Stroke-9" stroke="#3A3942" stroke-width="0.5"></path>
                        <path d="M15.5793981,11.7662037 C16.1775463,12.0652778 16.6261574,12.4391204 16.6261574,12.8877315 C16.6261574,13.7101852 15.2803241,14.3831019 13.6354167,14.3831019 C11.9905093,14.3831019 10.6446759,13.7101852 10.6446759,12.8877315 C10.6446759,12.4391204 11.0185185,12.0652778 11.6166667,11.7662037" id="Fill-10" fill-opacity="0" fill="#000000"></path>
                        <path d="M15.5793981,11.7662037 C16.1775463,12.0652778 16.6261574,12.4391204 16.6261574,12.8877315 C16.6261574,13.7101852 15.2803241,14.3831019 13.6354167,14.3831019 C11.9905093,14.3831019 10.6446759,13.7101852 10.6446759,12.8877315 C10.6446759,12.4391204 11.0185185,12.0652778 11.6166667,11.7662037" id="Stroke-11" stroke="#3A3942" stroke-width="0.5"></path>
                        <path d="M15.5793981,9.52314815 C16.1775463,9.82222222 16.6261574,10.1960648 16.6261574,10.6446759 C16.6261574,11.4671296 15.2803241,12.1400463 13.6354167,12.1400463 C11.9905093,12.1400463 10.6446759,11.4671296 10.6446759,10.6446759 C10.6446759,10.1960648 11.0185185,9.82222222 11.6166667,9.52314815" id="Fill-12" fill-opacity="0" fill="#000000"></path>
                        <path d="M15.5793981,9.52314815 C16.1775463,9.82222222 16.6261574,10.1960648 16.6261574,10.6446759 C16.6261574,11.4671296 15.2803241,12.1400463 13.6354167,12.1400463 C11.9905093,12.1400463 10.6446759,11.4671296 10.6446759,10.6446759 C10.6446759,10.1960648 11.0185185,9.82222222 11.6166667,9.52314815" id="Stroke-13" stroke="#3A3942" stroke-width="0.5"></path>
                        <path d="M15.7501919,7.3442365 C16.9181434,7.92821602 16.9181434,8.87502472 15.7501919,9.45900424 C14.5822328,10.0429852 12.6886005,10.0429852 11.5206415,9.45900424 C10.3526899,8.87502472 10.3526899,7.92821602 11.5206415,7.3442365 C12.6886005,6.76025699 14.5822328,6.76025699 15.7501919,7.3442365" id="Fill-14" fill-opacity="0" fill="#000000"></path>
                        <path d="M15.7501919,7.3442365 C16.9181434,7.92821602 16.9181434,8.87502472 15.7501919,9.45900424 C14.5822328,10.0429837 12.6886005,10.0429837 11.5206415,9.45900424 C10.3526899,8.87502472 10.3526899,7.92821602 11.5206415,7.3442365 C12.6886005,6.7602555 14.5822328,6.7602555 15.7501919,7.3442365" id="Stroke-15" stroke="#3A3942" stroke-width="0.5" stroke-linecap="square"></path>
                    </g>
                    <g id="Imported-Layers" transform="translate(12.000000, 199.000000)" stroke="#3A3942" stroke-width="0.5" stroke-linecap="square" sketch:type="MSShapeGroup">
                        <path d="M0.9375,0.5625 L14.6875,0.5625" id="Stroke-3"></path>
                        <path d="M0.9375,3.5625 L8.4375,3.5625" id="Stroke-5"></path>
                        <path d="M0.9375,7.5625 L14.6875,7.5625" id="Stroke-7"></path>
                        <path d="M0.9375,11.5625 L8.4375,11.5625" id="Stroke-9"></path>
                    </g>
                </g>
                <g transform="translate(13.500000, 63.000000)" sketch:type="MSShapeGroup">
                    <g id="Rectangle-300-Copy-4-+-Imported-Layers-Copy-5">
                        <rect id="Rectangle-300-Copy-4" stroke-opacity="0.2" stroke="#AEAEAE" fill="#FFFFFF" x="0" y="0" width="60" height="60" rx="3"></rect>
                        <g id="Imported-Layers-Copy-5" transform="translate(18.000000, 18.000000)">
                            <path d="M23.5,22.5 L1.5,22.5 L1.5,5.5 L23.5,5.5 L23.5,22.5 Z" id="Fill-1" fill-opacity="0" fill="#000000"></path>
                            <path d="M23.5,22.5 L1.5,22.5 L1.5,5.5 L23.5,5.5 L23.5,22.5 Z" id="Stroke-3" stroke="#38BC9C" stroke-linecap="square"></path>
                            <path d="M4.5,2.5 L8.5,2.5" id="Fill-4" fill-opacity="0" fill="#000000"></path>
                            <path d="M4.5,2.5 L8.5,2.5" id="Stroke-5" stroke="#38BC9C" stroke-linecap="square"></path>
                            <path d="M18.32843,11.67157 C19.89052,13.23367 19.89052,15.76633 18.32843,17.328427 C16.76633,18.890524 14.23367,18.890524 12.67157,17.328427 C11.10948,15.76633 11.10948,13.23367 12.67157,11.67157 C14.23367,10.10948 16.76633,10.10948 18.32843,11.67157" id="Fill-6" fill-opacity="0" fill="#000000"></path>
                            <path d="M18.32843,11.67157 C19.89052,13.23367 19.89052,15.76633 18.32843,17.32843 C16.76633,18.89052 14.23367,18.89052 12.67157,17.32843 C11.10948,15.76633 11.10948,13.23367 12.67157,11.67157 C14.23367,10.109476 16.76633,10.109476 18.32843,11.67157" id="Stroke-7" stroke="#38BC9C" stroke-linecap="square"></path>
                            <path d="M7.207107,9.79289 C7.597631,10.18342 7.597631,10.81658 7.207107,11.20711 C6.816582,11.59763 6.183418,11.59763 5.792893,11.20711 C5.402369,10.81658 5.402369,10.18342 5.792893,9.79289 C6.183418,9.40237 6.816582,9.40237 7.207107,9.79289" id="Fill-8" fill="#38BC9C"></path>
                        </g>
                    </g>
                    <g id="Rectangle-300-Copy-+-Imported-Layers-Copy-2" transform="translate(77.000000, 0.000000)">
                        <rect id="Rectangle-300-Copy" stroke-opacity="0.2" stroke="#AEAEAE" fill="#FFFFFF" x="0" y="0" width="60" height="60" rx="3"></rect>
                        <g id="Imported-Layers-Copy-2" transform="translate(18.000000, 18.000000)">
                            <path d="M23.5,22.5 L1.5,22.5 L1.5,5.5 L23.5,5.5 L23.5,22.5 Z" id="Fill-1" fill-opacity="0" fill="#000000"></path>
                            <path d="M23.5,22.5 L1.5,22.5 L1.5,5.5 L23.5,5.5 L23.5,22.5 Z" id="Stroke-3" stroke="#38BC9C" stroke-linecap="square"></path>
                            <path d="M4.5,2.5 L8.5,2.5" id="Fill-4" fill-opacity="0" fill="#000000"></path>
                            <path d="M4.5,2.5 L8.5,2.5" id="Stroke-5" stroke="#38BC9C" stroke-linecap="square"></path>
                            <path d="M18.32843,11.67157 C19.89052,13.23367 19.89052,15.76633 18.32843,17.328427 C16.76633,18.890524 14.23367,18.890524 12.67157,17.328427 C11.10948,15.76633 11.10948,13.23367 12.67157,11.67157 C14.23367,10.10948 16.76633,10.10948 18.32843,11.67157" id="Fill-6" fill-opacity="0" fill="#000000"></path>
                            <path d="M18.32843,11.67157 C19.89052,13.23367 19.89052,15.76633 18.32843,17.32843 C16.76633,18.89052 14.23367,18.89052 12.67157,17.32843 C11.10948,15.76633 11.10948,13.23367 12.67157,11.67157 C14.23367,10.109476 16.76633,10.109476 18.32843,11.67157" id="Stroke-7" stroke="#38BC9C" stroke-linecap="square"></path>
                            <path d="M7.207107,9.79289 C7.597631,10.18342 7.597631,10.81658 7.207107,11.20711 C6.816582,11.59763 6.183418,11.59763 5.792893,11.20711 C5.402369,10.81658 5.402369,10.18342 5.792893,9.79289 C6.183418,9.40237 6.816582,9.40237 7.207107,9.79289" id="Fill-8" fill="#38BC9C"></path>
                        </g>
                    </g>
                    <g id="Rectangle-300-Copy-2-+-Imported-Layers-Copy-3" transform="translate(154.000000, 0.000000)">
                        <rect id="Rectangle-300-Copy-2" stroke-opacity="0.2" stroke="#AEAEAE" fill="#FFFFFF" x="0" y="0" width="60" height="60" rx="3"></rect>
                        <g id="Imported-Layers-Copy-3" transform="translate(18.000000, 18.000000)">
                            <path d="M23.5,22.5 L1.5,22.5 L1.5,5.5 L23.5,5.5 L23.5,22.5 Z" id="Fill-1" fill-opacity="0" fill="#000000"></path>
                            <path d="M23.5,22.5 L1.5,22.5 L1.5,5.5 L23.5,5.5 L23.5,22.5 Z" id="Stroke-3" stroke="#38BC9C" stroke-linecap="square"></path>
                            <path d="M4.5,2.5 L8.5,2.5" id="Fill-4" fill-opacity="0" fill="#000000"></path>
                            <path d="M4.5,2.5 L8.5,2.5" id="Stroke-5" stroke="#38BC9C" stroke-linecap="square"></path>
                            <path d="M18.32843,11.67157 C19.89052,13.23367 19.89052,15.76633 18.32843,17.328427 C16.76633,18.890524 14.23367,18.890524 12.67157,17.328427 C11.10948,15.76633 11.10948,13.23367 12.67157,11.67157 C14.23367,10.10948 16.76633,10.10948 18.32843,11.67157" id="Fill-6" fill-opacity="0" fill="#000000"></path>
                            <path d="M18.32843,11.67157 C19.89052,13.23367 19.89052,15.76633 18.32843,17.32843 C16.76633,18.89052 14.23367,18.89052 12.67157,17.32843 C11.10948,15.76633 11.10948,13.23367 12.67157,11.67157 C14.23367,10.109476 16.76633,10.109476 18.32843,11.67157" id="Stroke-7" stroke="#38BC9C" stroke-linecap="square"></path>
                            <path d="M7.207107,9.79289 C7.597631,10.18342 7.597631,10.81658 7.207107,11.20711 C6.816582,11.59763 6.183418,11.59763 5.792893,11.20711 C5.402369,10.81658 5.402369,10.18342 5.792893,9.79289 C6.183418,9.40237 6.816582,9.40237 7.207107,9.79289" id="Fill-8" fill="#38BC9C"></path>
                        </g>
                    </g>
                    <g id="Rectangle-300-Copy-3-+-Imported-Layers-Copy-4" transform="translate(233.000000, 0.000000)">
                        <rect id="Rectangle-300-Copy-3" stroke-opacity="0.2" stroke="#AEAEAE" fill="#FFFFFF" x="0" y="0" width="60" height="60" rx="3"></rect>
                        <g id="Imported-Layers-Copy-4" transform="translate(18.000000, 18.000000)">
                            <path d="M23.5,22.5 L1.5,22.5 L1.5,5.5 L23.5,5.5 L23.5,22.5 Z" id="Fill-1" fill-opacity="0" fill="#000000"></path>
                            <path d="M23.5,22.5 L1.5,22.5 L1.5,5.5 L23.5,5.5 L23.5,22.5 Z" id="Stroke-3" stroke="#38BC9C" stroke-linecap="square"></path>
                            <path d="M4.5,2.5 L8.5,2.5" id="Fill-4" fill-opacity="0" fill="#000000"></path>
                            <path d="M4.5,2.5 L8.5,2.5" id="Stroke-5" stroke="#38BC9C" stroke-linecap="square"></path>
                            <path d="M18.32843,11.67157 C19.89052,13.23367 19.89052,15.76633 18.32843,17.328427 C16.76633,18.890524 14.23367,18.890524 12.67157,17.328427 C11.10948,15.76633 11.10948,13.23367 12.67157,11.67157 C14.23367,10.10948 16.76633,10.10948 18.32843,11.67157" id="Fill-6" fill-opacity="0" fill="#000000"></path>
                            <path d="M18.32843,11.67157 C19.89052,13.23367 19.89052,15.76633 18.32843,17.32843 C16.76633,18.89052 14.23367,18.89052 12.67157,17.32843 C11.10948,15.76633 11.10948,13.23367 12.67157,11.67157 C14.23367,10.109476 16.76633,10.109476 18.32843,11.67157" id="Stroke-7" stroke="#38BC9C" stroke-linecap="square"></path>
                            <path d="M7.207107,9.79289 C7.597631,10.18342 7.597631,10.81658 7.207107,11.20711 C6.816582,11.59763 6.183418,11.59763 5.792893,11.20711 C5.402369,10.81658 5.402369,10.18342 5.792893,9.79289 C6.183418,9.40237 6.816582,9.40237 7.207107,9.79289" id="Fill-8" fill="#38BC9C"></path>
                        </g>
                    </g>
                </g>
                <g id="Rectangle-319-+-Rectangle-166-+-PASSWORD-Copy-3" transform="translate(47.000000, 509.000000)">
                    <rect id="Rectangle-319" stroke="#979797" fill="#D8D8D8" filter="url(#filter-1)" sketch:type="MSShapeGroup" x="14.75" y="0" width="209.5" height="40"></rect>
                    <g id="Rectangle-166-+-PASSWORD-Copy-3">
                        <rect id="Rectangle-166" fill="#38BC9C" sketch:type="MSShapeGroup" x="0" y="0" width="239" height="40" rx="3"></rect>
                        <text id="Опубликовать" sketch:type="MSTextLayer" font-family="Helvetica Neue" font-size="14" font-weight="260" sketch:alignment="middle" letter-spacing="0.699999988" fill="#FFFFFF">
                            <tspan x="70.2760001" y="26">Опубликовать</tspan>
                        </text>
                    </g>
                </g>
            </g>
        </g>
    </g>
</svg>