<?xml version="1.0" encoding="UTF-8" standalone="no"?>
<svg width="27px" height="23px" viewBox="0 0 27 23" version="1.1" xmlns="http://www.w3.org/2000/svg" xmlns:xlink="http://www.w3.org/1999/xlink" xmlns:sketch="http://www.bohemiancoding.com/sketch/ns">
    <!-- Generator: Sketch 3.3 (11970) - http://www.bohemiancoding.com/sketch -->
    <title>Imported Layers</title>
    <desc>Created with Sketch.</desc>
    <defs></defs>
    <g id="Welcome" stroke="none" stroke-width="1" fill="none" fill-rule="evenodd" sketch:type="MSPage">
        <g id="Desktop-HD" sketch:type="MSArtboardGroup" transform="translate(-470.000000, -368.000000)">
            <g id="Group" sketch:type="MSLayerGroup" transform="translate(457.000000, 232.000000)">
                <g id="Group-Copy-13-+-Rectangle-101-Copy-2-+-Imported-Layers" transform="translate(0.000000, 122.000000)" sketch:type="MSShapeGroup">
                    <g id="Imported-Layers" transform="translate(13.500000, 14.500000)">
                        <path d="M4.25,4 L7.75,4" id="Fill-1" fill-opacity="0" fill="#000000"></path>
                        <path d="M4.25,4 L7.75,4" id="Stroke-3" stroke="#3F4C6B" stroke-linecap="square"></path>
                        <path d="M12.4166667,11 L8.91666667,11" id="Fill-4" fill-opacity="0" fill="#000000"></path>
                        <path d="M12.4166667,11 L8.91666667,11" id="Stroke-5" stroke="#3F4C6B" stroke-linecap="square"></path>
                        <path d="M4.25,18 L7.75,18" id="Fill-6" fill-opacity="0" fill="#000000"></path>
                        <path d="M4.25,18 L7.75,18" id="Stroke-7" stroke="#3F4C6B" stroke-linecap="square"></path>
                        <path d="M16,0.5 L16,7.5" id="Fill-8" fill-opacity="0" fill="#000000"></path>
                        <path d="M16,0.5 L16,7.5" id="Stroke-9" stroke="#3F4C6B" stroke-linecap="square"></path>
                        <path d="M21,7.5 L21,14.5" id="Fill-10" fill-opacity="0" fill="#000000"></path>
                        <path d="M21,7.5 L21,14.5" id="Stroke-11" stroke="#3F4C6B" stroke-linecap="square"></path>
                        <path d="M16,14.5 L16,21.5" id="Fill-12" fill-opacity="0" fill="#000000"></path>
                        <path d="M16,14.5 L16,21.5" id="Stroke-13" stroke="#3F4C6B" stroke-linecap="square"></path>
                        <path d="M10.6666667,4 L11.8333333,4" id="Fill-14" fill-opacity="0" fill="#000000"></path>
                        <path d="M10.6666667,4 L11.8333333,4" id="Stroke-15" stroke="#3F4C6B" stroke-linecap="square"></path>
                        <path d="M15.3333333,11 L16.5,11" id="Fill-16" fill-opacity="0" fill="#000000"></path>
                        <path d="M15.3333333,11 L16.5,11" id="Stroke-17" stroke="#3F4C6B" stroke-linecap="square"></path>
                        <path d="M10.6666667,18 L11.8333333,18" id="Fill-18" fill-opacity="0" fill="#000000"></path>
                        <path d="M10.6666667,18 L11.8333333,18" id="Stroke-19" stroke="#3F4C6B" stroke-linecap="square"></path>
                        <path d="M0.166666667,0.5 L21.1666667,0.5 L21.1666667,7.5 L0.166666667,7.5 L0.166666667,0.5 Z" id="Fill-20" fill-opacity="0" fill="#000000"></path>
                        <path d="M0.166666667,0.5 L21.1666667,0.5 L21.1666667,7.5 L0.166666667,7.5 L0.166666667,0.5 Z" id="Stroke-21" stroke="#3F4C6B" stroke-linecap="square"></path>
                        <path d="M4.83333333,7.5 L25.8333333,7.5 L25.8333333,14.5 L4.83333333,14.5 L4.83333333,7.5 Z" id="Fill-22" fill-opacity="0" fill="#000000"></path>
                        <path d="M4.83333333,7.5 L25.8333333,7.5 L25.8333333,14.5 L4.83333333,14.5 L4.83333333,7.5 Z" id="Stroke-23" stroke="#3F4C6B" stroke-linecap="square"></path>
                        <path d="M0.166666667,14.5 L21.1666667,14.5 L21.1666667,21.5 L0.166666667,21.5 L0.166666667,14.5 Z" id="Fill-24" fill-opacity="0" fill="#000000"></path>
                        <path d="M0.166666667,14.5 L21.1666667,14.5 L21.1666667,21.5 L0.166666667,21.5 L0.166666667,14.5 Z" id="Stroke-25" stroke="#3F4C6B" stroke-linecap="square"></path>
                    </g>
                </g>
            </g>
        </g>
    </g>
</svg>