<?xml version="1.0" encoding="UTF-8" standalone="no"?>
<svg width="21px" height="29px" viewBox="0 0 21 29" version="1.1" xmlns="http://www.w3.org/2000/svg" xmlns:xlink="http://www.w3.org/1999/xlink" xmlns:sketch="http://www.bohemiancoding.com/sketch/ns">
    <!-- Generator: Sketch 3.3 (11970) - http://www.bohemiancoding.com/sketch -->
    <title>Imported Layers</title>
    <desc>Created with Sketch.</desc>
    <defs></defs>
    <g id="Welcome" stroke="none" stroke-width="1" fill="none" fill-rule="evenodd" sketch:type="MSPage">
        <g id="Desktop-HD" sketch:type="MSArtboardGroup" transform="translate(-473.000000, -304.000000)">
            <g id="Group" sketch:type="MSLayerGroup" transform="translate(457.000000, 232.000000)">
                <g id="Group-Copy-12-+-Rectangle-101-Copy-+-Imported-Layers" transform="translate(1.000000, 61.000000)" sketch:type="MSShapeGroup">
                    <g id="Imported-Layers" transform="translate(16.166667, 11.500000)">
                        <path d="M0,17.3333333 L5.33333333,13.3333333 L9.33333333,17.3333333 L13.3333333,13.3333333 L18.6666667,17.3333333" id="Fill-1" fill-opacity="0" fill="#000000"></path>
                        <path d="M0,17.3333333 L5.33333333,13.3333333 L9.33333333,17.3333333 L13.3333333,13.3333333 L18.6666667,17.3333333" id="Stroke-3" stroke="#3F4C6B"></path>
                        <path d="M5,13.3333333 L5,1.33333333" id="Fill-4" fill-opacity="0" fill="#000000"></path>
                        <path d="M5,13.3333333 L5,1.33333333" id="Stroke-5" stroke="#3F4C6B"></path>
                        <path d="M13,13.3333333 L13,1.33333333" id="Fill-6" fill-opacity="0" fill="#000000"></path>
                        <path d="M13,13.3333333 L13,1.33333333" id="Stroke-7" stroke="#3F4C6B"></path>
                        <path d="M7,25 L11.6666667,25" id="Fill-8" fill-opacity="0" fill="#000000"></path>
                        <path d="M7,25 L11.6666667,25" id="Stroke-9" stroke="#3F4C6B"></path>
                        <path d="M18.6666667,0 L18.6666667,17.3333333 L9.33333333,28 L0,17.3333333 L0,0" id="Fill-10" fill-opacity="0" fill="#000000"></path>
                        <path d="M18.6666667,0 L18.6666667,17.3333333 L9.33333333,28 L0,17.3333333 L0,0" id="Stroke-11" stroke="#3F4C6B" stroke-linecap="square"></path>
                    </g>
                </g>
            </g>
        </g>
    </g>
</svg>